<?xml version="1.0" encoding="UTF-8" standalone="no"?>
<!-- Created with Inkscape (http://www.inkscape.org/) -->

<svg
   xmlns:dc="http://purl.org/dc/elements/1.1/"
   xmlns:cc="http://creativecommons.org/ns#"
   xmlns:rdf="http://www.w3.org/1999/02/22-rdf-syntax-ns#"
   xmlns:svg="http://www.w3.org/2000/svg"
   xmlns="http://www.w3.org/2000/svg"
   xmlns:xlink="http://www.w3.org/1999/xlink"
   version="1.1"
   width="106.722mm"
   height="100.162mm"
   viewBox="0 0 106.721 100.162"
   id="svg2"
   xml:space="preserve"
   style="fill-rule:evenodd"><metadata
   id="metadata58"><rdf:RDF><cc:Work
       rdf:about=""><dc:format>image/svg+xml</dc:format><dc:type
         rdf:resource="http://purl.org/dc/dcmitype/StillImage" /><dc:title></dc:title></cc:Work></rdf:RDF></metadata>
 <defs
   id="defs4">
  <style
   type="text/css"
   id="style6" />
  <linearGradient
   x1="48.252899"
   y1="36.258202"
   x2="21.9841"
   y2="36.258202"
   id="id0"
   gradientUnits="userSpaceOnUse">
   <stop
   id="stop9"
   style="stop-color:#fff168;stop-opacity:1"
   offset="0" />
   <stop
   id="stop11"
   style="stop-color:#fdc400;stop-opacity:1"
   offset="0.50196099" />
  </linearGradient>
  <linearGradient
   x1="84.7369"
   y1="36.258202"
   x2="58.4683"
   y2="36.258202"
   id="id1"
   xlink:href="#id0"
   gradientUnits="userSpaceOnUse">
  </linearGradient>
  <linearGradient
   x1="16.879999"
   y1="80.021004"
   x2="89.841301"
   y2="80.021004"
   id="id2"
   gradientUnits="userSpaceOnUse">
   <stop
   id="stop15"
   style="stop-color:#e31e24;stop-opacity:1"
   offset="0" />
   <stop
   id="stop17"
   style="stop-color:#ea533d;stop-opacity:1"
   offset="0.50196099" />
  </linearGradient>
  <linearGradient
   x1="18.1586"
   y1="80.104599"
   x2="88.477501"
   y2="80.104599"
   id="id3"
   gradientUnits="userSpaceOnUse">
   <stop
   id="stop20"
   style="stop-color:#fdc400;stop-opacity:1"
   offset="0" />
   <stop
   id="stop22"
   style="stop-color:#ea533d;stop-opacity:1"
   offset="0.50196099" />
  </linearGradient>
  <linearGradient
   x1="10.4962"
   y1="76.330498"
   x2="41.408001"
   y2="76.330498"
   id="id4"
   gradientUnits="userSpaceOnUse">
   <stop
   id="stop25"
   style="stop-color:#fdc400;stop-opacity:1"
   offset="0" />
   <stop
   id="stop27"
   style="stop-color:#f39313;stop-opacity:1"
   offset="0.50196099" />
  </linearGradient>
  <linearGradient
   x1="59.078201"
   y1="37.327499"
   x2="88.482803"
   y2="37.327499"
   id="id5"
   xlink:href="#id0"
   gradientUnits="userSpaceOnUse">
  </linearGradient>
  <linearGradient
   x1="18.646799"
   y1="37.327499"
   x2="47.234798"
   y2="37.327499"
   id="id6"
   xlink:href="#id0"
   gradientUnits="userSpaceOnUse">
  </linearGradient>
 </defs>
 <g
   id="Слой_x0020_1">
  <metadata
   id="CorelCorpID_0Corel-Layer" />
  <g
   id="_240898336">
   <path
   d="m 97.6699,3.5464 -6e-4,0.0286 c -0.0543,2.5731 -0.1583,5.0951 -0.3102,7.55759 -0.1538,2.4935 -0.3579,4.9736 -0.610799,7.43069 -1.2962,12.597 -3.869,24.3873 -7.51199,34.1712 l -6e-4,0.0016 c -0.726999,1.9526 -1.4686,3.7584 -2.2213,5.41399 -0.771299,1.6964 -1.5631,3.2639 -2.3715,4.6979 -4.335,7.68899 -9.30759,11.8066 -14.449,11.8066 l -8e-4,0 0,-0.0055 c -2.3007,-2e-4 -4.5075,-0.800299 -6.60489,-2.3891 -0.3357,-0.2543 -0.664499,-0.525 -0.986199,-0.811599 -1.6311,-1.4538 -3.1967,-3.4106 -4.6881,-5.86349 l -0.0166,-0.0275 -7e-4,-0.0012 0.0026,-0.0015 c -0.3285,-0.540899 -0.626199,-1.0546 -0.892299,-1.54 -0.3091,-0.563799 -0.602999,-1.1259 -0.881599,-1.6858 -0.962699,-1.9348 -1.8874,-4.1036 -2.7637,-6.47599 -0.0578,0.1571 -0.1151,0.3099 -0.1708,0.4578 -1.3491,3.5792 -2.8207,6.70219 -4.3773,9.26369 l -0.0071,0.0117 c -0.4994,0.821299 -1.0005,1.5784 -1.5024,2.2706 -0.5009,0.690799 -1.024,1.3436 -1.5685,1.9575 -2.8519,3.2161 -5.93579,4.8404 -9.20819,4.8404 l -8e-4,0 0,-0.0055 c -2.4567,-2e-4 -4.8658,-0.928599 -7.17909,-2.7276 -0.715599,-0.556599 -1.4323,-1.2082 -2.148,-1.9526 -3.5239,-3.665 -6.83199,-9.49239 -9.71459,-17.2344 l -0.0055,0 -0.0079,-0.0213 0.0048,-0.0018 c -0.708399,-1.9044 -1.3778,-3.8889 -2.0059,-5.94429 -0.633599,-2.0732 -1.2182,-4.1885 -1.7521,-6.33689 -2.7689,-11.1408 -4.393,-23.8347 -4.6671,-36.8838 l -0.0444,-2.1077 -0.0303,-1.43869998 1.4359,0 2.1084,0 8.67169,0 2.0372,0 1.3872,0 0.0184,1.39459998 0.027,2.0371 6e-4,0.0453 c 0.0695,5.1788 0.3097,10.1386 0.681499,14.8413 0.3692,4.6711 0.867199,9.03449 1.4553,13.065 2.9416,20.1548 7.66129,32.0431 9.83189,32.0431 l 0.0016,0 0,0.0055 c 0.1158,-3e-4 -0.0848,-0.1335 0.1134,-0.4103 0.4214,-0.588299 0.896699,-1.5027 1.4051,-2.7664 2.8126,-6.99159 6.28319,-23.5955 6.97869,-52.7935 l 0.0478,-2.0154 0.0327,-1.378 1.3729,0 2.0159,0 0,0.0055 9.52209,0 0,-0.0055 2.0157,0 1.3729,0 0.0327,1.378 0.0478,2.0154 6e-4,0.0252 c 0.1349,5.65129 0.3783,10.8738 0.703899,15.6785 0.3214,4.7427 0.724999,9.04839 1.1846,12.9344 2.2652,19.15 5.2904,27.3266 6.60959,27.3266 l 0.0045,0 0,0.0047 c 0.0728,-0.015 0.3206,-0.2963 0.728499,-0.828699 0.631499,-0.824199 1.3388,-2.0786 2.0871,-3.7398 4.02,-8.92269 8.79429,-28.6222 9.14959,-55.4308 l 0.0268,-2.0371 0.0183,-1.39459999 1.3873,0 2.0371,0 8.67169,0 2.1084,0 1.4359,0 -0.0303,1.43869999 -0.0445,2.1077 z m -2.8118,-0.0266 6e-4,-0.0286 0.0141,-0.668999 -0.672399,0 -8.67169,0 -0.649799,0 -0.0085,0.642499 c -0.3612,27.2562 -5.2634,47.3914 -9.39219,56.5554 -0.836499,1.8569 -1.657,3.2982 -2.4177,4.291 -0.972999,1.2699 -1.981,1.9269 -2.961,1.9319 l -0.0055,0.0055 -0.0045,0 c -2.298,0 -6.93809,-8.92199 -9.40979,-29.818 -0.4615,-3.9021 -0.868699,-8.25319 -1.1956,-13.0778 -0.3227,-4.7625 -0.565899,-10.0189 -0.703899,-15.7997 l -6e-4,-0.0252 -0.0151,-0.637399 -0.642799,0 0,-0.0055 -9.52209,0 0,0.0055 -0.642999,0 -0.0151,0.637399 c -0.704999,29.6 -4.2784,46.5691 -7.17709,53.7746 -0.602299,1.4973 -1.1877,2.6115 -1.7249,3.3616 -0.760399,1.0617 -1.5866,1.5766 -2.4064,1.5789 l 0,0.0055 -0.0016,0 c -3.1961,0 -9.45679,-12.7882 -12.6211,-34.4685 -0.599399,-4.1073 -1.105,-8.53149 -1.4773,-13.2414 -0.3699,-4.6781 -0.609899,-9.69389 -0.681499,-15.0287 l -6e-4,-0.0453 -0.0085,-0.642499 -0.650099,0 -8.67169,0 -0.672499,0 0.0141,0.668999 c 0.2694,12.8281 1.8667,25.3097 4.5899,36.2666 0.534399,2.1504 1.1044,4.2181 1.7081,6.19349 0.608999,1.9927 1.2601,3.9225 1.9514,5.78069 l 0.0055,0 0.0079,0.0213 -0.0048,0.0018 c 2.7452,7.37269 5.84599,12.8705 9.10749,16.2626 0.603599,0.627799 1.2211,1.1875 1.8504,1.677 1.8177,1.4136 3.6469,2.1431 5.44829,2.1432 l 0,-0.0055 8e-4,0 c 2.4369,0 4.8158,-1.3024 7.10259,-3.8812 0.4547,-0.5127 0.918999,-1.0957 1.3921,-1.7481 0.4713,-0.649899 0.931199,-1.3433 1.379,-2.0796 l 0.0029,-0.0048 c 1.4659,-2.4106 2.8621,-5.37769 4.1521,-8.80019 0.2765,-0.733799 0.5253,-1.4193 0.746099,-2.0563 0.2438,-0.703899 0.4835,-1.4241 0.717999,-2.1594 l -0.0051,-0.0016 6e-4,-0.0019 1.3355,-4.2289 1.3489,4.2289 c 1.197,3.7528 2.5258,7.11069 3.9499,9.97279 0.2839,0.570499 0.559599,1.0999 0.826399,1.5866 0.305,0.556699 0.584799,1.0443 0.838399,1.4615 l 0.0024,-0.0015 c 1.3428,2.2084 2.7318,3.9519 4.1591,5.2241 0.2729,0.2432 0.542999,0.4662 0.809799,0.668199 1.6038,1.2149 3.2435,1.8268 4.9071,1.8269 l 0,-0.0055 8e-4,0 c 4.0565,0 8.18589,-3.614 11.9906,-10.3624 0.774099,-1.3732 1.5291,-2.8671 2.2613,-4.4775 0.750799,-1.6513 1.4705,-3.3988 2.1551,-5.2376 l 6e-4,-0.0016 c 3.5573,-9.55389 6.07359,-21.1049 7.34659,-33.4766 0.247,-2.4003 0.4475,-4.8398 0.599799,-7.30949 0.1542,-2.5007 0.2582,-4.9864 0.3102,-7.44739 z"
   id="_21279040"
   style="fill:#2b2a29;fill-rule:nonzero" />
   <polygon
   points="105.903,60.5833 0.818299,60.5833 6.64739,99.4588 100.074,99.4588 "
   id="_21279280"
   style="fill:#e31e24" />
   <polygon
   points="8.03649,97.8396 6.64739,99.4588 0.818299,60.5833 2.693,62.2025 "
   id="_21278512"
   style="fill:#e31e24" />
   <polygon
   points="8.03649,97.8396 98.6845,97.8396 100.074,99.4588 6.64739,99.4588 "
   id="_21278752"
   style="fill:#c02222" />
   <polygon
   points="100.074,99.4588 98.6845,97.8396 104.028,62.2025 105.903,60.5833 "
   id="_21278440"
   style="fill:#c02222" />
   <polygon
   points="6.64739,99.4588 100.074,99.4588 105.903,60.5833 0.818299,60.5833 "
   id="_21282664"
   style="fill:none" />
   <path
   d="m 1.6367,61.2889 5.61789,37.4671 92.2118,0 5.61819,-37.4671 -103.448,0 z M 5.9501,99.5608 0.12101,60.6853 1e-5,59.877701 l 0.818299,0 105.085001,0 0.8184,0 -0.1211,0.807599 -5.82939,38.8755 -0.0901,0.6008 -0.6072,0 -93.4262009,0 -0.607199,0 -0.0901,-0.6008 z"
   id="_240899176"
   style="fill:#000000;fill-rule:nonzero" />
   <polygon
   points="8.03649,97.8396 98.6845,97.8396 104.028,62.2025 2.693,62.2025 "
   id="_240899104"
   style="fill:url(#id2)" />
   <polygon
   points="2.693,62.2025 6.79419,89.5549 47.4186,63.9836 47.4186,62.2025 "
   id="_240899032"
   style="fill:#c02222" />
   <polygon
   points="11.9234,96.2256 7.47739,66.5744 101.762,66.5744 102.151,63.9836 4.4855,63.9836 9.31999,96.2256 "
   id="_240898960"
   style="fill:url(#id3)" />
   <polygon
   points="11.9234,96.2256 10.5671,87.1802 8.18819,88.6774 9.31999,96.2256 "
   id="_240898888"
   style="fill:#ffef47" />
   <polygon
   points="47.4186,63.9836 4.4855,63.9836 8.18819,88.6774 10.5671,87.1802 7.47739,66.5744 43.3027,66.5744 "
   id="_240898816"
   style="fill:url(#id4)" />
   <path
   d="m 96.2643,3.5188 c -0.3775,17.9826 -3.3417,35.2868 -8.34539,48.7251 -5.0422,13.5418 -11.3371,20.9996 -17.725,20.9996 -3.965,0 -7.69259,-2.8232 -11.0784,-8.39169 -2.1007,-3.4549 -4.052,-7.98939 -5.75489,-13.3281 -1.7028,5.33869 -3.6542,9.87319 -5.75509,13.3281 -3.3858,5.56849 -7.11299,8.39169 -11.0782,8.39169 -6.38799,0 -12.6829,-7.45779 -17.7251,-20.9996 C 13.79833,38.8056 10.83454,21.5014 10.45674,3.5188 l -0.0444,-2.1077 2.1084,0 8.67169,0 2.0372,0 0.027,2.0371 c 0.4974,37.5644 9.64599,61.3892 13.3749,61.3892 2.5129,0 8.93149,-16.5001 9.90439,-57.3426 l 0.0478,-2.0154 2.0159,0 9.52209,0 2.0157,0 0.0478,2.0154 c 0.972899,40.8426 7.39149,57.3426 9.90429,57.3426 3.729,0 12.8774,-23.8249 13.3753,-61.3892 l 0.0268,-2.0371 2.0371,0 8.67169,0 2.1084,0 -0.0445,2.1077 z"
   id="_240898744"
   style="fill:#fdc400" />
   <path
   d="m 95.2932,3.4985 c -0.3756,17.8765 -3.3177,35.0675 -8.28439,48.4064 -4.8197,12.9438 -10.9486,20.3673 -16.8149,20.3673 -6.41989,0 -12.4687,-8.72009 -16.8333,-24.0964 -4.3644,15.3763 -10.4135,24.0964 -16.8333,24.0964 -5.86639,0 -11.9953,-7.42349 -16.8148,-20.3673 C 14.74571,38.566 11.80362,21.375 11.42792,3.4985 l -0.0234,-1.1159 1.1162,0 8.67169,0 1.0784,0 0.0143,1.0784 c 0.504,38.0675 9.70399,62.3479 14.3464,62.3479 3.9774,0 9.96969,-20.257 10.8755,-58.291 l 0.0253,-1.067 1.0673,0 9.52209,0 1.0672,0 0.0252,1.067 c 0.905699,38.0341 6.89809,58.291 10.8754,58.291 4.6427,0 13.8424,-24.2805 14.3468,-62.3479 l 0.0141,-1.0784 1.0783,0 8.67169,0 1.1162,0 -0.0234,1.1159 z"
   id="_240898672"
   style="fill:#fdc400" />
   <path
   d="M 53.3607,12.3049 48.5997,7.5441 C 47.801501,41.0598 42.74931,66.9019 36.6316,66.9019 30.26891,66.9019 21.662,38.9456 21.1925,3.4758 l -4.3162,4.3156 c 1.3629,34.5992 11.0499,61.2492 19.6642,61.2492 8.27379,0 15.2744,-24.1603 16.8202,-56.7357 z"
   id="_240898600"
   style="fill:url(#id0)" />
   <path
   d="m 53.3607,43.9092 0,-31.6043 c -1.5458,32.5755 -8.54639,56.7357 -16.8202,56.7357 -8.61429,0 -18.3013,-26.6501 -19.6642,-61.2492 l -0.0199,0.02 -4.3356,-4.3356 c 0.795299,37.8565 13.112,67.7033 24.0065,67.7033 6.50359,0 12.7236,-10.6433 16.8334,-27.27 z"
   id="_240898528"
   style="fill:url(#id6)" />
   <path
   d="m 53.3607,12.3049 4.7611,-4.7608 c 0.797799,33.5157 5.85039,59.3578 11.9678,59.3578 6.36279,0 14.9697,-27.9563 15.4392,-63.4261 l 4.316,4.3156 c -1.3629,34.5992 -11.0497,61.2492 -19.6639,61.2492 -8.27369,0 -15.2744,-24.1603 -16.8202,-56.7357 z"
   id="_240898432"
   style="fill:url(#id1)" />
   <path
   d="m 53.3607,43.9092 0,-31.6043 c 1.5458,32.5755 8.54649,56.7357 16.8202,56.7357 8.61419,0 18.301,-26.6501 19.6639,-61.2492 l 0.02,0.02 4.3357,-4.3356 C 93.405001,41.3323 81.0884,71.1791 70.194,71.1791 c -6.50359,0 -12.7233,-10.6433 -16.8333,-27.27 z"
   id="_240898384"
   style="fill:url(#id5)" />
  </g>
  <path
   d="m 30.2451,87.9016 -14.4433,0 0,-9.13699 3.5042,0 0,6.57939 1.9638,0 0,-6.57939 3.5072,0 0,6.57939 1.955,0 0,-6.57939 3.5131,0 0,9.13699 z m 5.54449,-6.18539 -3.3484,-0.3528 c 0.1264,-0.584999 0.3086,-1.0465 0.546799,-1.3817 0.2381,-0.3351 0.579099,-0.626099 1.0289,-0.873099 0.3204,-0.1793 0.764399,-0.3175 1.3259,-0.4145 0.561499,-0.097 1.17,-0.147 1.8256,-0.147 1.0495,0 1.8962,0.0588 2.5312,0.1764 0.637899,0.1176 1.17,0.3645 1.5934,0.737899 0.2998,0.2587 0.534999,0.623199 0.708399,1.0965 0.1706,0.4763 0.2558,0.926099 0.2558,1.3582 l 0,4.0393 c 0,0.4293 0.0294,0.767299 0.0823,1.0113 0.0559,0.244 0.1735,0.555699 0.3587,0.934899 l -3.2897,0 c -0.1323,-0.2352 -0.2175,-0.4145 -0.2587,-0.537999 -0.0411,-0.1235 -0.0793,-0.3175 -0.1205,-0.582099 -0.4586,0.4439 -0.917199,0.758499 -1.37,0.946699 -0.620299,0.2528 -1.3405,0.3792 -2.1607,0.3792 -1.0907,0 -1.9197,-0.2528 -2.4871,-0.758499 -0.564499,-0.5027 -0.846699,-1.1259 -0.846699,-1.8668 0,-0.696699 0.2029,-1.267 0.611499,-1.7139 0.4086,-0.4498 1.1583,-0.781999 2.2548,-0.999499 1.3171,-0.2646 2.1696,-0.4498 2.5606,-0.555599 0.3881,-0.1059 0.802599,-0.247 1.2377,-0.4175 0,-0.4322 -0.0882,-0.731999 -0.2646,-0.905499 -0.1793,-0.1705 -0.4909,-0.2587 -0.940699,-0.2587 -0.573299,0 -1.0025,0.0941 -1.2906,0.2764 -0.2234,0.144 -0.4057,0.4145 -0.543899,0.808399 z m 3.0398,1.8433 c -0.4821,0.1734 -0.984899,0.3263 -1.5052,0.4586 -0.711399,0.1882 -1.1642,0.3763 -1.3523,0.558599 -0.197,0.1911 -0.294,0.4057 -0.294,0.646699 0,0.2764 0.097,0.4998 0.2881,0.676199 0.194,0.1734 0.4763,0.2616 0.849599,0.2616 0.391,0 0.752599,-0.094 1.0907,-0.2822 0.3351,-0.1911 0.573199,-0.4233 0.714399,-0.693799 0.1411,-0.2734 0.2087,-0.629099 0.2087,-1.0642 l 0,-0.561499 z m 4.5155,-4.8037 3.7012,0 1.8874,6.08839 1.7492,-6.08839 3.4543,0 -3.6278,9.77489 c -0.4115,1.1142 -0.834899,1.8668 -1.267,2.2549 -0.608599,0.552599 -1.5346,0.828999 -2.7811,0.828999 -0.5056,0 -1.2847,-0.0706 -2.343,-0.2087 l -0.2734,-2.446 c 0.5027,0.1617 1.0671,0.2411 1.6874,0.2411 0.4116,0 0.746699,-0.0941 1.0025,-0.2822 0.2558,-0.1911 0.4733,-0.5292 0.649699,-1.0172 l -3.8394,-9.14579 z m 11.8063,12.6265 0,-12.6265 3.2808,0 0,1.3523 c 0.4557,-0.570299 0.870199,-0.955399 1.2494,-1.1553 0.5116,-0.2705 1.076,-0.4057 1.6963,-0.4057 1.223,0 2.1696,0.4704 2.8399,1.4052 0.667299,0.934899 1.0024,2.0932 1.0024,3.472 0,1.5198 -0.3645,2.6811 -1.0936,3.4836 -0.728999,0.799699 -1.6521,1.1995 -2.7634,1.1995 -0.540899,0 -1.0348,-0.0911 -1.4787,-0.2734 -0.4439,-0.1852 -0.843699,-0.4586 -1.1936,-0.820199 l 0,4.3685 -3.5395,0 z m 3.516,-8.02859 c 0,0.723199 0.1499,1.2612 0.4557,1.611 0.3028,0.3499 0.687899,0.5263 1.1524,0.5263 0.4086,0 0.749599,-0.1676 1.026,-0.5057 0.2763,-0.3351 0.4145,-0.905499 0.4145,-1.708 0,-0.740899 -0.1441,-1.2847 -0.4322,-1.6316 -0.2851,-0.3499 -0.637899,-0.5233 -1.0495,-0.5233 -0.4498,0 -0.823099,0.1764 -1.1201,0.5262 -0.2998,0.3498 -0.4468,0.920199 -0.4468,1.7051 z m 20.9109,4.5479 -2.9634,0 0,-5.73559 -2.1696,5.73559 -2.1107,0 -2.3519,-5.73559 0,5.73559 -2.9633,0 0,-9.13699 4.1863,0 2.1872,5.2535 2.0079,-5.2535 4.1775,0 0,9.13699 z m 5.44149,-6.18539 -3.3484,-0.3528 c 0.1264,-0.584999 0.3086,-1.0465 0.546799,-1.3817 0.2381,-0.3351 0.579099,-0.626099 1.0289,-0.873099 0.3204,-0.1793 0.764399,-0.3175 1.3259,-0.4145 0.561499,-0.097 1.17,-0.147 1.8256,-0.147 1.0495,0 1.8962,0.0588 2.5312,0.1764 0.637899,0.1176 1.17,0.3645 1.5934,0.737899 0.2998,0.2587 0.534999,0.623199 0.708399,1.0965 0.1706,0.4763 0.2558,0.926099 0.2558,1.3582 l 0,4.0393 c 0,0.4293 0.0294,0.767299 0.0823,1.0113 0.0559,0.244 0.1735,0.555699 0.3587,0.934899 l -3.2897,0 c -0.1323,-0.2352 -0.2175,-0.4145 -0.2587,-0.537999 -0.0411,-0.1235 -0.0793,-0.3175 -0.1205,-0.582099 -0.4586,0.4439 -0.917199,0.758499 -1.37,0.946699 -0.620299,0.2528 -1.3405,0.3792 -2.1607,0.3792 -1.0907,0 -1.9197,-0.2528 -2.4871,-0.758499 -0.564499,-0.5027 -0.846699,-1.1259 -0.846699,-1.8668 0,-0.696699 0.2029,-1.267 0.611499,-1.7139 0.4086,-0.4498 1.1583,-0.781999 2.2548,-0.999499 1.3171,-0.2646 2.1696,-0.4498 2.5606,-0.555599 0.3881,-0.1059 0.802599,-0.247 1.2377,-0.4175 0,-0.4322 -0.0882,-0.731999 -0.2646,-0.905499 -0.1793,-0.1705 -0.4909,-0.2587 -0.940699,-0.2587 -0.573299,0 -1.0025,0.0941 -1.2906,0.2764 -0.2234,0.144 -0.4057,0.4145 -0.543899,0.808399 z m 3.0398,1.8433 c -0.4821,0.1734 -0.984899,0.3263 -1.5052,0.4586 -0.711399,0.1882 -1.1642,0.3763 -1.3523,0.558599 -0.197,0.1911 -0.294,0.4057 -0.294,0.646699 0,0.2764 0.097,0.4998 0.2881,0.676199 0.194,0.1734 0.4763,0.2616 0.849599,0.2616 0.391,0 0.752599,-0.094 1.0907,-0.2822 0.3351,-0.1911 0.573199,-0.4233 0.714399,-0.693799 0.1411,-0.2734 0.2087,-0.629099 0.2087,-1.0642 l 0,-0.561499 z"
   id="path52"
   style="fill:#fefefe;fill-rule:nonzero" />
  <polygon
   points="15.79,83.8788 15.8018,78.7646 19.3008,78.7698 19.3008,81.678 "
   id="polygon54"
   style="fill:#ebecec" />
 </g>
</svg>