<svg width="40" height="40" viewBox="0 0 40 40" fill="none" xmlns="http://www.w3.org/2000/svg">
<path d="M31.7599 28.71C33.9499 27.09 34.0699 24.14 34.5199 21.6C34.0017 21.5819 33.5108 21.3632 33.1508 20.99C32.7907 20.6169 32.5896 20.1185 32.5899 19.6C32.6452 19.098 32.8882 18.6356 33.2703 18.3054C33.6524 17.9752 34.1453 17.8018 34.6499 17.82C34.8295 16.7827 34.6232 15.7156 34.0699 14.82C33.59 14.255 33.0649 13.73 32.4999 13.25C30.9722 11.764 29.1729 10.5859 27.1999 9.78001C26.1521 9.39423 25.0226 9.28404 23.9199 9.46001C23.6499 9.51001 22.5499 9.65001 22.3599 9.90001C22.1699 10.15 22.3599 10.43 22.3599 10.64C22.1888 11.1827 21.814 11.638 21.3143 11.9103C20.8145 12.1825 20.2288 12.2505 19.6799 12.1C19.3499 12.01 19.1599 11.74 18.8699 11.61C18.5799 11.48 17.9599 11.76 17.5399 11.97C16.5399 12.45 15.5399 12.97 14.6399 13.47C12.7099 14.53 10.8199 15.66 8.93994 16.8C7.9427 17.2905 7.02016 17.9201 6.19994 18.67C5.90042 18.9951 5.66841 19.3764 5.51735 19.7918C5.36629 20.2072 5.29919 20.6485 5.31994 21.09C5.24994 22.88 5.43994 24.68 5.53994 26.47C5.59994 27.47 5.38994 29.16 6.10994 29.95C6.82994 30.74 8.34994 30.57 9.39994 30.55C10.6199 30.55 11.8299 30.55 13.0499 30.5H14.3399C14.7849 30.555 15.235 30.555 15.6799 30.5C15.8999 29.83 16.0899 29.35 16.9099 29.14C17.2601 29.0313 17.6357 29.0367 17.9826 29.1553C18.3294 29.2739 18.6297 29.4997 18.8399 29.8C18.9999 30.03 19.0399 30.45 19.2699 30.6C19.2699 30.6 20.0299 30.6 19.9999 30.6H20.3499C20.8575 30.4822 21.3718 30.3954 21.8899 30.34C24.5999 30.25 29.4899 30.4 31.7599 28.71ZM27.9999 27.9C27.7006 28.1969 27.315 28.3916 26.8983 28.4562C26.4817 28.5209 26.0552 28.4522 25.6799 28.26C25.517 28.1478 25.3795 28.0026 25.2764 27.8338C25.1732 27.665 25.1068 27.4764 25.0813 27.2802C25.0558 27.084 25.0719 26.8847 25.1286 26.6951C25.1852 26.5056 25.2811 26.3301 25.4099 26.18C25.719 25.884 26.1211 25.7043 26.5477 25.6715C26.9744 25.6386 27.3993 25.7547 27.7499 26C27.8975 26.1034 28.022 26.2364 28.1154 26.3905C28.2089 26.5445 28.2693 26.7164 28.2928 26.895C28.3163 27.0737 28.3024 27.2553 28.252 27.4283C28.2016 27.6013 28.1157 27.7619 27.9999 27.9ZM29.8099 22.61C29.6288 22.7937 29.3908 22.9105 29.1346 22.9414C28.8785 22.9723 28.6195 22.9154 28.3999 22.78C28.2138 22.6143 28.0963 22.385 28.0704 22.1371C28.0445 21.8893 28.1121 21.6406 28.2599 21.44C28.4426 21.2461 28.69 21.1258 28.9553 21.1019C29.2206 21.0779 29.4855 21.152 29.6999 21.31C29.7942 21.3882 29.8711 21.4852 29.9258 21.5949C29.9804 21.7045 30.0115 21.8244 30.0172 21.9467C30.0228 22.0691 30.0029 22.1913 29.9586 22.3055C29.9143 22.4197 29.8466 22.5234 29.7599 22.61H29.8099ZM26.9999 11.79C27.3696 11.6229 27.7776 11.5588 28.1808 11.6045C28.5839 11.6503 28.9671 11.8042 29.2899 12.05C29.432 12.1911 29.5404 12.3625 29.607 12.5513C29.6736 12.7401 29.6967 12.9415 29.6746 13.1405C29.6524 13.3395 29.5857 13.531 29.4793 13.7006C29.3728 13.8702 29.2295 14.0135 29.0599 14.12C28.6469 14.3768 28.1589 14.486 27.6758 14.4297C27.1926 14.3734 26.7429 14.155 26.3999 13.81C26.2787 13.6456 26.1972 13.4554 26.162 13.2542C26.1268 13.053 26.1387 12.8464 26.1968 12.6506C26.255 12.4548 26.3578 12.2751 26.4972 12.1258C26.6365 11.9765 26.8086 11.8615 26.9999 11.79ZM21.9999 14.79H22.0499C22.2918 14.6845 22.5575 14.6455 22.8195 14.6771C23.0814 14.7088 23.3302 14.8099 23.5399 14.97C23.6358 15.0667 23.7088 15.1837 23.7535 15.3124C23.7981 15.441 23.8133 15.578 23.798 15.7134C23.7826 15.8487 23.7371 15.9788 23.6647 16.0942C23.5924 16.2096 23.4951 16.3072 23.3799 16.38C23.1077 16.5452 22.7875 16.6134 22.4716 16.5735C22.1556 16.5335 21.8625 16.3878 21.6399 16.16C21.5568 16.047 21.5009 15.9163 21.4766 15.778C21.4524 15.6398 21.4604 15.4979 21.5001 15.3633C21.5398 15.2287 21.6101 15.1051 21.7055 15.0022C21.8009 14.8993 21.9188 14.8198 22.0499 14.77L21.9999 14.79ZM13.5599 15.38C13.8415 15.2555 14.1512 15.2084 14.4571 15.2435C14.763 15.2787 15.0539 15.3949 15.2999 15.58C15.419 15.6863 15.5108 15.8194 15.5679 15.9684C15.6249 16.1174 15.6455 16.2779 15.6279 16.4364C15.6103 16.595 15.555 16.7471 15.4666 16.8799C15.3782 17.0127 15.2594 17.1225 15.1199 17.2C14.8074 17.3882 14.441 17.4667 14.0788 17.4232C13.7165 17.3798 13.3791 17.2168 13.1199 16.96C13.0137 16.8324 12.941 16.6803 12.9083 16.5175C12.8755 16.3547 12.8838 16.1863 12.9325 16.0276C12.9811 15.8688 13.0685 15.7246 13.1868 15.6081C13.305 15.4915 13.4505 15.4063 13.6099 15.36L13.5599 15.38ZM11.1799 27.18C10.9375 27.4263 10.6193 27.5838 10.2765 27.6273C9.9337 27.6709 9.58622 27.5979 9.28994 27.42C9.15816 27.3151 9.04858 27.185 8.96756 27.0373C8.88654 26.8896 8.83571 26.7273 8.81803 26.5598C8.80035 26.3923 8.81617 26.2229 8.86457 26.0616C8.91296 25.9002 8.99298 25.7501 9.09994 25.62C9.34837 25.3413 9.69411 25.1684 10.0661 25.1368C10.4381 25.1052 10.808 25.2173 11.0999 25.45C11.2256 25.554 11.3281 25.6831 11.4009 25.829C11.4737 25.9749 11.5152 26.1344 11.5227 26.2973C11.5303 26.4602 11.5036 26.6229 11.4446 26.7749C11.3856 26.9269 11.2954 27.0649 11.1799 27.18ZM19.4299 24.11C19.149 24.3948 18.7812 24.578 18.3847 24.6305C17.9881 24.683 17.5853 24.6019 17.2399 24.4C17.085 24.28 16.9556 24.1302 16.8594 23.9594C16.7632 23.7886 16.7021 23.6003 16.6797 23.4056C16.6573 23.2108 16.6742 23.0136 16.7292 22.8254C16.7841 22.6373 16.8762 22.462 16.9999 22.31C17.2877 22.003 17.6791 21.8137 18.0984 21.7786C18.5177 21.7435 18.9351 21.8651 19.2699 22.12C19.4199 22.234 19.5441 22.3784 19.6345 22.5437C19.7249 22.709 19.7794 22.8915 19.7945 23.0793C19.8096 23.267 19.785 23.4559 19.7221 23.6335C19.6593 23.8111 19.5598 23.9735 19.4299 24.11ZM6.68994 20C6.6235 19.9875 6.56351 19.9522 6.52035 19.9001C6.47718 19.8481 6.45356 19.7826 6.45356 19.715C6.45356 19.6474 6.47718 19.5819 6.52035 19.5299C6.56351 19.4778 6.6235 19.4425 6.68994 19.43C11.7157 19.433 16.7329 19.0183 21.6899 18.19C25.4435 17.7728 29.1698 17.1384 32.8499 16.29C32.8867 16.2795 32.9252 16.2763 32.9632 16.2807C33.0012 16.2851 33.0379 16.2969 33.0714 16.3154C33.1048 16.334 33.1342 16.359 33.158 16.3889C33.1818 16.4189 33.1994 16.4532 33.2099 16.49C33.2204 16.5268 33.2236 16.5653 33.2192 16.6032C33.2149 16.6412 33.2031 16.678 33.1845 16.7114C33.1659 16.7449 33.141 16.7743 33.111 16.7981C33.0811 16.8219 33.0467 16.8395 33.0099 16.85C29.2235 17.7158 25.3906 18.3635 21.5299 18.79C16.6259 19.6083 11.6618 20.0131 6.68994 20Z" fill="#FFC800"/>
<path d="M25.49 30.53C27.87 30.44 30.58 30.71 32.76 29.59C34.22 28.84 34.59 27.59 34.63 26.02C34.67 24.45 34.7 23.09 34.7 21.62H34.52C34.07 24.16 33.95 27.11 31.76 28.73C29.57 30.35 24.6 30.27 21.89 30.35C21.3719 30.4054 20.8576 30.4922 20.35 30.61H21.07C22.55 30.63 24 30.59 25.49 30.53Z" fill="#FFA400"/>
<path d="M29.43 21.68C29.311 21.5798 29.1605 21.5249 29.005 21.5249C28.8495 21.5249 28.699 21.5798 28.58 21.68C28.4965 21.7623 28.444 21.8709 28.4312 21.9875C28.4185 22.1041 28.4463 22.2215 28.51 22.32C28.69 22.62 29.08 22.54 29.34 22.39C29.6 22.24 29.69 21.85 29.43 21.68Z" fill="#FFA400"/>
<path d="M27.33 13.88C27.6442 14.0025 27.9882 14.027 28.3167 13.9503C28.6451 13.8735 28.9426 13.6991 29.17 13.45C29.65 12.68 28.97 12.17 28.29 12.04C27.9282 11.9846 27.5581 12.0296 27.22 12.17C27.0428 12.2399 26.8923 12.3642 26.7902 12.525C26.6881 12.6859 26.6397 12.875 26.6519 13.0651C26.6641 13.2552 26.7364 13.4366 26.8582 13.583C26.9801 13.7294 27.1453 13.8334 27.33 13.88Z" fill="#FFA400"/>
<path d="M27.53 26.35C27.2849 26.1704 26.9889 26.0736 26.685 26.0736C26.3811 26.0736 26.0851 26.1704 25.84 26.35C25.738 26.4332 25.6535 26.5358 25.5912 26.6518C25.5289 26.7678 25.4902 26.8949 25.4772 27.0259C25.4642 27.1569 25.4772 27.2892 25.5154 27.4152C25.5536 27.5411 25.6164 27.6583 25.7 27.76C25.9436 27.9564 26.2471 28.0635 26.56 28.0635C26.8729 28.0635 27.1764 27.9564 27.42 27.76C27.5383 27.6884 27.6378 27.5897 27.7104 27.472C27.7829 27.3543 27.8263 27.2211 27.8371 27.0832C27.8478 26.9454 27.8256 26.807 27.7722 26.6795C27.7188 26.552 27.6358 26.439 27.53 26.35Z" fill="#FFA400"/>
<path d="M22.31 16.05C22.4819 16.1055 22.6657 16.1135 22.8418 16.073C23.0179 16.0325 23.1797 15.9451 23.31 15.82C23.58 15.4 23.18 15.14 22.82 15.08C22.6174 15.0468 22.4096 15.0711 22.22 15.15C22.1248 15.1875 22.0445 15.2551 21.9912 15.3424C21.9378 15.4298 21.9145 15.5322 21.9247 15.634C21.9349 15.7358 21.978 15.8315 22.0476 15.9066C22.1171 15.9817 22.2093 16.032 22.31 16.05Z" fill="#FFA400"/>
<path d="M19.06 22.49C18.8274 22.2991 18.5359 22.1947 18.235 22.1947C17.9341 22.1947 17.6425 22.2991 17.41 22.49C17.2381 22.6514 17.1287 22.8684 17.1013 23.1026C17.0738 23.3369 17.13 23.5732 17.26 23.77C17.62 24.36 18.38 24.24 18.9 23.94C19.0205 23.8669 19.1226 23.767 19.1984 23.6481C19.2742 23.5293 19.3217 23.3946 19.3371 23.2544C19.3526 23.1143 19.3356 22.9725 19.2876 22.84C19.2395 22.7074 19.1617 22.5877 19.06 22.49Z" fill="#FFA400"/>
<path d="M13.89 16.89C14.1073 16.9795 14.3468 16.9996 14.576 16.9477C14.8051 16.8958 15.0126 16.7744 15.17 16.6C15.51 16.07 15.02 15.74 14.56 15.6C14.3065 15.5597 14.0468 15.5909 13.81 15.69C13.67 15.7236 13.5464 15.8057 13.461 15.9217C13.3756 16.0376 13.3341 16.1801 13.3436 16.3238C13.3532 16.4675 13.4133 16.6032 13.5133 16.7068C13.6133 16.8104 13.7468 16.8753 13.89 16.89Z" fill="#FFA400"/>
<path d="M10.83 25.82C10.6401 25.6631 10.4014 25.5773 10.155 25.5773C9.90868 25.5773 9.67 25.6631 9.48004 25.82C9.35318 25.9504 9.27271 26.119 9.25103 26.2997C9.22935 26.4804 9.26765 26.6632 9.36005 26.82C9.52667 27.0019 9.75464 27.1158 10.0001 27.1397C10.2456 27.1637 10.4914 27.0962 10.69 26.95C11.07 26.78 11.26 26.11 10.83 25.82Z" fill="#FFA400"/>
<path d="M35 21C34.1 21 33.06 20.51 33.19 19.45C33.2829 19.0728 33.5177 18.7459 33.8455 18.5373C34.1733 18.3287 34.5689 18.2544 34.95 18.33C35.0251 18.3275 35.0964 18.2958 35.1486 18.2417C35.2008 18.1875 35.23 18.1153 35.23 18.04C35.3445 17.0893 35.2766 16.1254 35.03 15.2C34.7312 14.5786 34.3054 14.0267 33.78 13.58C32.4641 12.2692 31.001 11.1149 29.42 10.14C27.6609 8.95361 25.5065 8.50478 23.42 8.89005C22.96 8.99005 21.99 9.12005 21.76 9.59005C21.61 9.89005 21.76 10.28 21.7 10.59C21.5928 10.7944 21.4431 10.9735 21.261 11.1154C21.0789 11.2572 20.8687 11.3585 20.6442 11.4125C20.4198 11.4665 20.1865 11.4719 19.9598 11.4283C19.7332 11.3848 19.5184 11.2933 19.33 11.16C18.65 10.69 18.61 10.69 17.83 11.06C16.63 11.63 15.45 12.24 14.3 12.87C12 14.21 9.67998 15.54 7.43998 17C5.87998 18 4.83998 19.11 4.73998 21C4.71817 23.1464 4.80495 25.2925 4.99998 27.43C4.99998 28.35 4.91998 29.53 5.55998 30.29C5.88906 30.6006 6.28025 30.8378 6.70774 30.986C7.13523 31.1343 7.5893 31.1902 8.03998 31.15C9.56998 31.15 11.11 31.09 12.64 31.08H14.64C15.1096 31.166 15.593 31.1385 16.05 31C16.0931 30.9841 16.1305 30.9555 16.1572 30.9181C16.1839 30.8806 16.1988 30.836 16.2 30.79C16.42 30.13 16.66 29.64 17.52 29.69C18.38 29.74 18.26 30.41 18.65 30.94C19.04 31.47 20.35 31.21 20.89 31.23C23.59 31.28 26.34 31.23 29.03 31.05C30.89 30.93 33.21 30.62 34.43 29.05C34.9774 28.2217 35.2503 27.2421 35.21 26.25C35.27 24.64 35.28 23.02 35.28 21.41C35.2979 21.3645 35.3045 21.3152 35.299 21.2666C35.2935 21.2179 35.2762 21.1713 35.2486 21.1309C35.221 21.0904 35.1839 21.0574 35.1406 21.0345C35.0972 21.0117 35.049 20.9999 35 21ZM20 30.58C20 30.58 19.3 30.58 19.27 30.58C19.04 30.43 19 30.01 18.84 29.78C18.6297 29.4797 18.3295 29.254 17.9826 29.1354C17.6357 29.0167 17.2601 29.0114 16.91 29.12C16.09 29.33 15.91 29.81 15.68 30.48C15.235 30.5351 14.785 30.5351 14.34 30.48H13.05C11.83 30.48 10.62 30.48 9.39998 30.53C8.34998 30.53 6.89998 30.79 6.10998 29.93C5.31998 29.07 5.59998 27.47 5.53998 26.45C5.43998 24.66 5.24998 22.86 5.31998 21.07C5.29923 20.6285 5.36633 20.1872 5.51739 19.7718C5.66845 19.3564 5.90046 18.9751 6.19998 18.65C7.00841 17.8884 7.92084 17.2453 8.90998 16.74C10.79 15.6 12.68 14.47 14.61 13.41C15.61 12.89 16.53 12.41 17.51 11.91C17.93 11.7 18.41 11.34 18.84 11.55C19.27 11.76 19.32 11.95 19.65 12.04C20.1988 12.1906 20.7846 12.1225 21.2843 11.8503C21.784 11.5781 22.1588 11.1228 22.33 10.58C22.33 10.37 22.24 10.01 22.33 9.84005C22.42 9.67005 23.62 9.45005 23.89 9.40005C24.9927 9.22408 26.1221 9.33427 27.17 9.72005C29.1429 10.526 30.9423 11.7041 32.47 13.19C33.035 13.67 33.56 14.1951 34.04 14.76C34.5932 15.6557 34.7995 16.7228 34.62 17.76C34.1153 17.7419 33.6225 17.9153 33.2404 18.2454C32.8583 18.5756 32.6152 19.0381 32.56 19.54C32.5597 20.0586 32.7607 20.557 33.1208 20.9301C33.4809 21.3032 33.9718 21.5219 34.49 21.54H34.67C34.67 23.01 34.67 24.48 34.6 25.94C34.53 27.4 34.19 28.76 32.73 29.51C30.55 30.63 27.84 30.36 25.46 30.45C23.98 30.51 22.52 30.55 21.04 30.52H20V30.58Z" fill="#534741"/>
<path d="M32.84 16.24C29.1598 17.0883 25.4336 17.7227 21.68 18.14C16.723 18.9682 11.7057 19.383 6.67998 19.38C6.61354 19.3925 6.55355 19.4278 6.51039 19.4798C6.46723 19.5319 6.4436 19.5974 6.4436 19.665C6.4436 19.7326 6.46723 19.7981 6.51039 19.8501C6.55355 19.9021 6.61354 19.9375 6.67998 19.95C11.6485 19.9625 16.6092 19.5577 21.51 18.74C25.374 18.3138 29.2103 17.6661 33 16.8C33.0742 16.7787 33.137 16.7289 33.1745 16.6614C33.212 16.5939 33.2212 16.5142 33.2 16.44C33.1788 16.3657 33.1289 16.3029 33.0614 16.2654C32.9939 16.2279 32.9142 16.2187 32.84 16.24Z" fill="#534741"/>
<path d="M27.75 26C27.3917 25.7453 26.9543 25.6266 26.5164 25.6651C26.0784 25.7035 25.6685 25.8967 25.36 26.21C25.2311 26.3601 25.1353 26.5356 25.0786 26.7251C25.022 26.9147 25.0059 27.114 25.0314 27.3102C25.0568 27.5064 25.1233 27.695 25.2264 27.8638C25.3296 28.0326 25.4671 28.1778 25.63 28.29C26.014 28.4904 26.4527 28.5607 26.8801 28.4904C27.3075 28.4201 27.7005 28.2129 28 27.9C28.1158 27.7619 28.2016 27.6013 28.252 27.4283C28.3025 27.2553 28.3164 27.0737 28.2928 26.895C28.2693 26.7164 28.2089 26.5446 28.1155 26.3905C28.022 26.2364 27.8976 26.1034 27.75 26ZM27.42 27.81C27.1764 28.0064 26.8729 28.1136 26.56 28.1136C26.2471 28.1136 25.9436 28.0064 25.7 27.81C25.6164 27.7083 25.5536 27.5912 25.5154 27.4652C25.4772 27.3392 25.4642 27.2069 25.4772 27.0759C25.4902 26.9449 25.5289 26.8178 25.5912 26.7018C25.6535 26.5858 25.738 26.4833 25.84 26.4C26.0852 26.2205 26.3811 26.1237 26.685 26.1237C26.9889 26.1237 27.2849 26.2205 27.53 26.4C27.6298 26.4894 27.7077 26.6006 27.7574 26.7251C27.8072 26.8495 27.8275 26.9837 27.8169 27.1173C27.8062 27.2508 27.7649 27.3801 27.696 27.4951C27.6272 27.6101 27.5327 27.7076 27.42 27.78V27.81Z" fill="#534741"/>
<path d="M11.05 25.45C10.7581 25.2173 10.3882 25.1052 10.0162 25.1368C9.6442 25.1685 9.29846 25.3414 9.05003 25.62C8.94307 25.7502 8.86306 25.9003 8.81466 26.0616C8.76626 26.223 8.75044 26.3923 8.76812 26.5598C8.78581 26.7273 8.83664 26.8897 8.91765 27.0373C8.99867 27.185 9.10826 27.3151 9.24003 27.42C9.53631 27.5979 9.8838 27.6709 10.2266 27.6274C10.5694 27.5838 10.8876 27.4263 11.13 27.18C11.2455 27.0649 11.3357 26.9269 11.3947 26.7749C11.4537 26.6229 11.4803 26.4602 11.4728 26.2973C11.4653 26.1344 11.4238 25.9749 11.351 25.829C11.2782 25.6831 11.1757 25.554 11.05 25.45ZM10.69 27C10.4913 27.1462 10.2456 27.2138 10.0001 27.1898C9.75463 27.1658 9.52666 27.0519 9.36003 26.87C9.26764 26.7133 9.22934 26.5304 9.25102 26.3498C9.2727 26.1691 9.35317 26.0005 9.48003 25.87C9.66999 25.7132 9.90867 25.6273 10.155 25.6273C10.4014 25.6273 10.6401 25.7132 10.83 25.87C11.26 26.11 11.07 26.78 10.69 27Z" fill="#534741"/>
<path d="M19.28 22.1199C18.9452 21.8651 18.5278 21.7434 18.1085 21.7785C17.6892 21.8136 17.2978 22.003 17.01 22.3099C16.8857 22.4614 16.793 22.6361 16.7372 22.8238C16.6814 23.0116 16.6637 23.2086 16.6851 23.4034C16.7065 23.5981 16.7666 23.7865 16.8619 23.9577C16.9572 24.1288 17.0858 24.2792 17.24 24.3999C17.5853 24.6018 17.9881 24.6829 18.3847 24.6304C18.7813 24.5779 19.1491 24.3948 19.43 24.1099C19.5604 23.9741 19.6606 23.8123 19.7243 23.6351C19.7879 23.4578 19.8135 23.2692 19.7993 23.0814C19.7852 22.8937 19.7316 22.711 19.6421 22.5453C19.5526 22.3797 19.4292 22.2347 19.28 22.1199ZM18.9 23.9999C18.38 24.2999 17.62 24.4199 17.26 23.8299C17.1301 23.6331 17.0738 23.3968 17.1013 23.1626C17.1287 22.9283 17.2381 22.7114 17.41 22.5499C17.6425 22.359 17.9341 22.2546 18.235 22.2546C18.5359 22.2546 18.8274 22.359 19.06 22.5499C19.1617 22.6476 19.2395 22.7673 19.2876 22.8999C19.3356 23.0324 19.3526 23.1742 19.3371 23.3144C19.3217 23.4545 19.2742 23.5892 19.1984 23.7081C19.1226 23.8269 19.0205 23.9268 18.9 23.9999Z" fill="#534741"/>
<path d="M29.69 21.34C29.4756 21.1819 29.2107 21.1079 28.9453 21.1319C28.68 21.1558 28.4327 21.2761 28.25 21.47C28.1022 21.6706 28.0346 21.9192 28.0605 22.1671C28.0864 22.415 28.2039 22.6442 28.39 22.81C28.6096 22.9454 28.8686 23.0023 29.1247 22.9714C29.3808 22.9405 29.6189 22.8237 29.8 22.64C29.8838 22.5501 29.9479 22.4436 29.9881 22.3275C30.0283 22.2113 30.0437 22.0881 30.0333 21.9656C30.023 21.8431 29.9871 21.7242 29.9279 21.6164C29.8688 21.5087 29.7877 21.4145 29.69 21.34ZM29.34 22.39C29.08 22.54 28.69 22.62 28.51 22.32C28.4463 22.2215 28.4185 22.1041 28.4313 21.9875C28.444 21.871 28.4965 21.7623 28.58 21.68C28.699 21.5798 28.8495 21.5249 29.005 21.5249C29.1605 21.5249 29.311 21.5798 29.43 21.68C29.69 21.85 29.55 22.26 29.34 22.39Z" fill="#534741"/>
<path d="M15.2199 17.16C15.3594 17.0825 15.4782 16.9728 15.5666 16.8399C15.655 16.7071 15.7103 16.555 15.7279 16.3965C15.7455 16.2379 15.7249 16.0774 15.6679 15.9285C15.6108 15.7795 15.519 15.6463 15.3999 15.54C15.1539 15.3549 14.863 15.2387 14.5571 15.2036C14.2512 15.1684 13.9415 15.2155 13.6599 15.34C13.513 15.3966 13.3815 15.4871 13.2761 15.6041C13.1707 15.7211 13.0945 15.8613 13.0535 16.0133C13.0126 16.1654 13.0082 16.3249 13.0406 16.479C13.0729 16.6331 13.1413 16.7774 13.2399 16.9C13.4953 17.1553 13.8278 17.3191 14.1858 17.3662C14.5438 17.4132 14.9073 17.3407 15.2199 17.16ZM13.8099 15.74C14.0467 15.6409 14.3064 15.6097 14.5599 15.65C15.0199 15.74 15.5099 16.07 15.1699 16.65C15.0125 16.8244 14.805 16.9458 14.5759 16.9977C14.3467 17.0496 14.1072 17.0295 13.8899 16.94C13.7467 16.9253 13.6132 16.8604 13.5132 16.7568C13.4132 16.6532 13.3531 16.5175 13.3435 16.3738C13.334 16.2301 13.3755 16.0877 13.4609 15.9717C13.5463 15.8557 13.6699 15.7736 13.8099 15.74Z" fill="#534741"/>
<path d="M29.13 14.1C29.3048 13.9942 29.4529 13.8496 29.5628 13.6774C29.6727 13.5052 29.7415 13.3099 29.7637 13.1068C29.7859 12.9037 29.7611 12.6982 29.6911 12.5063C29.6211 12.3143 29.5078 12.1411 29.36 12C29.0372 11.7542 28.6539 11.6003 28.2508 11.5545C27.8477 11.5088 27.4397 11.5728 27.07 11.74C26.886 11.8175 26.7219 11.9358 26.5902 12.0858C26.4585 12.2359 26.3625 12.414 26.3096 12.6065C26.2566 12.799 26.2481 13.0011 26.2845 13.1974C26.3209 13.3938 26.4015 13.5793 26.52 13.74C26.8535 14.081 27.2909 14.3015 27.7634 14.3666C28.2359 14.4318 28.7166 14.338 29.13 14.1ZM27.22 12.17C27.5542 12.016 27.9245 11.9571 28.29 12C28.97 12.13 29.65 12.64 29.17 13.41C28.9426 13.6591 28.6451 13.8335 28.3167 13.9103C27.9882 13.987 27.6442 13.9625 27.33 13.84C27.1582 13.7848 27.0071 13.6792 26.8961 13.5369C26.7851 13.3947 26.7194 13.2224 26.7075 13.0424C26.6957 12.8623 26.7382 12.6829 26.8296 12.5274C26.9209 12.3718 27.057 12.2473 27.22 12.17Z" fill="#534741"/>
<path d="M23.43 16.34C23.5451 16.2673 23.6424 16.1696 23.7148 16.0542C23.7871 15.9388 23.8326 15.8087 23.848 15.6734C23.8634 15.5381 23.8481 15.401 23.8035 15.2724C23.7588 15.1437 23.6859 15.0267 23.59 14.93C23.3802 14.7699 23.1315 14.6688 22.8695 14.6371C22.6075 14.6055 22.3418 14.6445 22.1 14.75H22.05C21.9291 14.8062 21.8221 14.8882 21.7364 14.9903C21.6507 15.0924 21.5885 15.212 21.5542 15.3408C21.5198 15.4696 21.5142 15.6043 21.5377 15.7355C21.5611 15.8667 21.6131 15.9911 21.69 16.1C21.9101 16.331 22.202 16.4805 22.518 16.5241C22.8341 16.5677 23.1556 16.5028 23.43 16.34ZM22.26 15.15C22.4495 15.0712 22.6574 15.0469 22.86 15.08C23.22 15.14 23.62 15.4 23.35 15.82C23.2196 15.9451 23.0578 16.0326 22.8817 16.0731C22.7056 16.1136 22.5219 16.1056 22.35 16.05C22.2492 16.0321 22.1571 15.9818 22.0875 15.9067C22.018 15.8316 21.9748 15.7359 21.9646 15.6341C21.9544 15.5322 21.9778 15.4299 22.0311 15.3425C22.0844 15.2551 22.1648 15.1875 22.26 15.15Z" fill="#534741"/>
</svg>
