<svg width="40" height="40" viewBox="0 0 40 40" fill="none" xmlns="http://www.w3.org/2000/svg">
<path d="M24.28 6.65995C18.12 7.18995 11.75 9.99995 8.67004 15.32C7.07004 18.12 6.53004 21.78 8.22004 24.53C9.91004 27.28 14.22 28.33 16.48 26.02C16.6919 25.7467 16.971 25.5331 17.29 25.4C17.95 25.24 18.47 25.93 18.76 26.54C19.3809 27.9156 19.7986 29.3742 20 30.87C20.0138 31.3687 20.1586 31.855 20.42 32.2799C20.7346 32.5778 21.1217 32.7881 21.5427 32.8899C21.9638 32.9916 22.4042 32.9813 22.82 32.86C25.2784 32.5094 27.6244 31.6031 29.68 30.2099C30.85 29.4199 32.02 28.14 31.68 26.79C31.34 25.44 29.68 24.9799 28.55 24.2099C27.7929 23.6962 27.1796 22.9975 26.7684 22.1802C26.3571 21.3629 26.1615 20.4541 26.2 19.54C27.413 19.8551 28.6981 19.7344 29.8312 19.1989C30.9643 18.6634 31.8734 17.7472 32.4 16.61C32.8749 15.4523 33.0207 14.186 32.8213 12.9507C32.6219 11.7155 32.0851 10.5593 31.27 9.60995C30.4372 8.67369 29.4267 7.91221 28.2971 7.36974C27.1675 6.82728 25.9414 6.51463 24.69 6.44995" fill="#F0DCB3"/>
<path d="M24.28 6.65995C18.12 7.18995 11.75 9.99995 8.67004 15.32C7.07004 18.12 6.53004 21.78 8.22004 24.53C9.91004 27.28 14.22 28.33 16.48 26.02C16.6919 25.7467 16.971 25.5331 17.29 25.4C17.95 25.24 18.47 25.93 18.76 26.54C19.3809 27.9156 19.7986 29.3742 20 30.87C20.0138 31.3687 20.1586 31.855 20.42 32.2799C20.7346 32.5778 21.1217 32.7881 21.5427 32.8899C21.9638 32.9916 22.4042 32.9813 22.82 32.86C25.2784 32.5094 27.6244 31.6031 29.68 30.2099C30.85 29.4199 32.02 28.14 31.68 26.79C31.34 25.44 29.68 24.9799 28.55 24.2099C27.7929 23.6962 27.1796 22.9975 26.7684 22.1802C26.3571 21.3629 26.1615 20.4541 26.2 19.54C27.413 19.8551 28.6981 19.7344 29.8312 19.1989C30.9643 18.6634 31.8734 17.7472 32.4 16.61C32.8749 15.4523 33.0207 14.186 32.8213 12.9507C32.6219 11.7155 32.0851 10.5593 31.27 9.60995C30.4372 8.67369 29.4267 7.91221 28.2971 7.36974C27.1675 6.82728 25.9414 6.51463 24.69 6.44995" stroke="black" stroke-width="0.1" stroke-miterlimit="10"/>
<path d="M24.64 7.84C18.56 8.38 12.28 11.09 9.24998 16.38C7.65998 19.15 7.12998 22.76 8.78998 25.48C10.45 28.2 14.72 29.23 16.94 26.95C17.1475 26.6748 17.4282 26.4635 17.75 26.34C18.39 26.18 18.91 26.86 19.19 27.46C19.8122 28.8142 20.2301 30.2532 20.43 31.73C20.4464 32.2238 20.5875 32.7054 20.84 33.13C21.1535 33.4194 21.536 33.6236 21.9508 33.7234C22.3656 33.8232 22.7991 33.8151 23.21 33.7C25.6443 33.3527 27.9669 32.4531 30 31.07C31.15 30.29 32.31 29.07 31.93 27.7C31.55 26.33 30 25.92 28.82 25.16C28.0739 24.6516 27.4694 23.9617 27.0635 23.1552C26.6577 22.3487 26.4637 21.4521 26.5 20.55C27.6971 20.8634 28.9663 20.7457 30.0852 20.2173C31.2042 19.6889 32.1015 18.7836 32.62 17.66C33.0907 16.5163 33.2361 15.2647 33.0402 14.0436C32.8444 12.8224 32.3148 11.6791 31.51 10.74C30.6872 9.81272 29.6876 9.05909 28.5697 8.52333C27.4518 7.98756 26.2382 7.68044 25 7.62" fill="#F0DCB3"/>
<path d="M24.64 7.84C18.56 8.38 12.28 11.09 9.24998 16.38C7.65998 19.15 7.12998 22.76 8.78998 25.48C10.45 28.2 14.72 29.23 16.94 26.95C17.1475 26.6748 17.4282 26.4635 17.75 26.34C18.39 26.18 18.91 26.86 19.19 27.46C19.8122 28.8142 20.2301 30.2532 20.43 31.73C20.4464 32.2238 20.5875 32.7054 20.84 33.13C21.1535 33.4194 21.536 33.6236 21.9508 33.7234C22.3656 33.8232 22.7991 33.8151 23.21 33.7C25.6443 33.3527 27.9669 32.4531 30 31.07C31.15 30.29 32.31 29.07 31.93 27.7C31.55 26.33 30 25.92 28.82 25.16C28.0739 24.6516 27.4694 23.9617 27.0635 23.1552C26.6577 22.3487 26.4637 21.4521 26.5 20.55C27.6971 20.8634 28.9663 20.7457 30.0852 20.2173C31.2042 19.6889 32.1015 18.7836 32.62 17.66C33.0907 16.5163 33.2361 15.2647 33.0402 14.0436C32.8444 12.8224 32.3148 11.6791 31.51 10.74C30.6872 9.81272 29.6876 9.05909 28.5697 8.52333C27.4518 7.98756 26.2382 7.68044 25 7.62" stroke="black" stroke-width="0.1" stroke-miterlimit="10"/>
<path d="M30.4601 20.06L30.3701 19.81C30.2925 19.5655 30.2023 19.3252 30.1001 19.09C29.9318 18.7081 29.7275 18.3431 29.4901 18C29.1753 17.549 28.7614 17.1761 28.2801 16.91C27.6971 16.5795 27.0082 16.4898 26.3601 16.66C25.9972 16.7902 25.6745 17.0127 25.4238 17.3055C25.1731 17.5983 25.0029 17.9514 24.9301 18.33C24.8251 18.74 24.8251 19.1699 24.9301 19.58C24.9886 19.7927 25.0797 19.9951 25.2001 20.18C25.3163 20.3712 25.4576 20.5461 25.6201 20.7C25.9729 21.0326 26.3928 21.2858 26.8516 21.4428C27.3104 21.5997 27.7974 21.6567 28.2801 21.61C29.3526 21.4798 30.348 20.9856 31.1001 20.21C31.2966 20.0154 31.4803 19.8083 31.6501 19.59L31.9101 19.22L32.1301 18.87C32.4194 18.3585 32.6476 17.8147 32.8101 17.25C33.1352 16.0467 33.1668 14.783 32.9024 13.5649C32.6379 12.3468 32.085 11.21 31.2901 10.25C30.4186 9.24722 29.3437 8.44146 28.1368 7.88627C26.9298 7.33108 25.6185 7.03918 24.2901 7.02997C21.4807 7.16361 18.7414 7.95117 16.2901 9.32997C13.76 10.5259 11.5546 12.3128 9.86006 14.54C8.30786 16.6662 7.59563 19.2908 7.86006 21.91C7.93389 22.516 8.07131 23.1127 8.27006 23.69C8.39006 23.97 8.49006 24.25 8.63006 24.51L8.74006 24.71V24.81V24.86C8.74006 24.79 8.74006 24.86 8.74006 24.86L9.01006 25.28C9.09013 25.3982 9.17694 25.5117 9.27006 25.62C9.35078 25.7281 9.43759 25.8316 9.53006 25.93C9.72527 26.1419 9.93584 26.3391 10.1601 26.52C10.3756 26.7074 10.6027 26.8811 10.8401 27.04C11.0901 27.18 11.3201 27.34 11.5801 27.46C12.0983 27.6997 12.6416 27.8808 13.2001 28C13.7218 28.1151 14.2562 28.1621 14.7901 28.14C15.3028 28.1293 15.8113 28.0451 16.3001 27.89C16.5345 27.8087 16.762 27.7084 16.9801 27.59L17.2901 27.42H17.3401C17.2801 27.42 17.3401 27.42 17.3401 27.42L17.4201 27.36C17.4564 27.3373 17.49 27.3104 17.5201 27.28C17.8085 26.9752 18.018 26.6044 18.1301 26.2C18.2574 25.7647 18.3214 25.3134 18.3201 24.86C18.3406 24.4664 18.2772 24.0729 18.1341 23.7057C17.991 23.3385 17.7715 23.0059 17.4901 22.73C17.2332 22.5155 16.9142 22.3893 16.5801 22.37C16.4305 22.368 16.2817 22.3917 16.1401 22.44L15.9301 22.55C15.8682 22.5821 15.811 22.6225 15.7601 22.67C15.3301 23.132 15.0632 23.722 15.0001 24.35C14.9432 24.8985 14.9432 25.4514 15.0001 26C15.024 26.3898 15.1517 26.7661 15.3701 27.09C15.5499 27.3622 15.8242 27.5581 16.1401 27.64V27.8C16.0443 27.7935 15.95 27.7733 15.8601 27.74C15.5929 27.6463 15.355 27.4842 15.1701 27.27C14.867 26.9314 14.672 26.5101 14.6101 26.06C14.52 25.4779 14.4931 24.8878 14.5301 24.3C14.5458 23.9446 14.6028 23.5922 14.7001 23.25C14.8011 22.8336 15.0038 22.4488 15.2901 22.13C15.4688 21.959 15.6708 21.8143 15.8901 21.7C16.1218 21.5898 16.3737 21.5286 16.6301 21.52C17.1653 21.5062 17.6908 21.6638 18.1301 21.97C18.5695 22.2936 18.9146 22.7286 19.1301 23.23C19.3476 23.7375 19.4762 24.2788 19.5101 24.83C19.5468 25.4004 19.4997 25.9732 19.3701 26.53C19.2291 27.1705 18.9182 27.7612 18.4701 28.24C17.4157 29.0471 16.1536 29.5378 14.8309 29.6547C13.5082 29.7715 12.1796 29.5098 11.0001 28.9C10.6801 28.76 10.3901 28.58 10.0801 28.41C9.78316 28.2215 9.49611 28.0179 9.22006 27.8C8.93693 27.5753 8.66962 27.3314 8.42006 27.07C8.29006 26.95 8.18006 26.79 8.05006 26.65C7.92909 26.5094 7.8156 26.3625 7.71006 26.21L7.40006 25.8L7.34006 25.71V25.65L7.27006 25.53L7.14006 25.28C6.96432 24.9588 6.81387 24.6245 6.69006 24.28C6.44394 23.5801 6.27298 22.856 6.18006 22.12C5.88797 19.0861 6.76818 16.0554 8.64006 13.65C10.5298 11.2854 12.9572 9.40659 15.7201 8.16997C16.0501 7.99997 16.3901 7.84997 16.7201 7.68997L17.7201 7.26997C18.4101 6.99997 19.1101 6.74997 19.8301 6.53997C21.2723 6.10414 22.7736 5.89498 24.2801 5.91997C25.7585 5.95467 27.2124 6.3055 28.544 6.94887C29.8756 7.59225 31.054 8.51325 32.0001 9.64997C32.8662 10.7357 33.4568 12.0149 33.7214 13.3783C33.9861 14.7418 33.917 16.149 33.5201 17.48C33.3318 18.1024 33.0628 18.6974 32.7201 19.25L32.4601 19.66L32.1801 20.01C31.9849 20.2593 31.771 20.4933 31.5401 20.71C30.6656 21.5541 29.5302 22.076 28.3201 22.19C27.7592 22.2272 27.1969 22.1458 26.6696 21.9511C26.1424 21.7564 25.6621 21.4527 25.2601 21.06C25.0719 20.8669 24.9074 20.652 24.7701 20.42C24.6386 20.1955 24.5409 19.9529 24.4801 19.7C24.3598 19.2207 24.3598 18.7192 24.4801 18.24C24.5816 17.8028 24.7941 17.3991 25.0972 17.0681C25.4002 16.737 25.7835 16.4897 26.2101 16.35C26.9455 16.1731 27.721 16.2915 28.3701 16.68C28.8763 16.9783 29.3074 17.3888 29.6301 17.88C29.8817 18.2301 30.0962 18.6054 30.2701 19C30.4101 19.32 30.4801 19.57 30.5401 19.74L30.6201 20L30.4601 20.06Z" fill="#A9856C" stroke="black" stroke-width="0.1" stroke-miterlimit="10"/>
<path d="M18.68 25.26L18.85 25.54C19.0143 25.8121 19.1645 26.0925 19.3 26.38C19.5134 26.8228 19.6939 27.2807 19.84 27.75C20.0174 28.3659 20.1477 28.9944 20.23 29.63C20.2903 30.3398 20.4415 31.0388 20.68 31.71C20.7855 32.0377 20.9704 32.3342 21.2181 32.5732C21.4658 32.8122 21.7688 32.9863 22.1 33.08C22.8989 33.1259 23.6973 32.982 24.43 32.66C25.2726 32.3852 26.0946 32.0511 26.89 31.66C27.6773 31.2696 28.4329 30.8182 29.15 30.31C29.7432 29.9435 30.1945 29.3864 30.43 28.73C30.4986 28.4983 30.4986 28.2517 30.43 28.02C30.327 27.7566 30.1742 27.5156 29.98 27.31C29.75 27.06 29.46 26.82 29.17 26.55L28.77 26.14C28.64 26 28.51 25.87 28.39 25.73C27.9614 25.2355 27.5734 24.7071 27.23 24.15C26.9687 23.7254 26.7349 23.2845 26.53 22.83C26.36 22.45 26.25 22.14 26.18 21.94C26.11 21.74 26.08 21.61 26.08 21.61L26.23 21.54L26.43 21.8C26.57 21.97 26.76 22.21 27.03 22.52C27.3 22.83 27.6 23.18 28.03 23.57C28.4481 24.0065 28.8923 24.4172 29.36 24.8C29.48 24.91 29.61 25.01 29.75 25.12C29.89 25.23 30.02 25.33 30.17 25.43C30.32 25.53 30.77 25.87 31.11 26.17C31.2996 26.3305 31.4706 26.5116 31.62 26.71C31.7069 26.8161 31.7839 26.9299 31.85 27.05C31.9207 27.1713 31.981 27.2984 32.03 27.43C32.2244 28.0109 32.2244 28.6392 32.03 29.22C31.8596 29.7576 31.565 30.2475 31.17 30.65C30.811 31.0209 30.4001 31.3375 29.95 31.59C29.1274 32.0698 28.2719 32.4908 27.39 32.85C26.5185 33.2143 25.6231 33.5184 24.71 33.76L24.04 33.92C23.81 33.98 23.58 34.02 23.34 34.06C22.8459 34.1694 22.334 34.1694 21.84 34.06C21.3385 33.9262 20.8912 33.6396 20.56 33.24C20.2947 32.8669 20.1045 32.4458 20 32C19.802 31.2528 19.7012 30.4831 19.7 29.71C19.6746 29.0952 19.6011 28.4833 19.48 27.88C19.3791 27.4145 19.2454 26.9567 19.08 26.51C18.9783 26.2208 18.8615 25.937 18.73 25.66L18.59 25.36L18.68 25.26Z" fill="#A9856C" stroke="black" stroke-width="0.1" stroke-miterlimit="10"/>
<path d="M16.73 21.9999C16.3669 21.9802 16.0064 22.0722 15.6971 22.2635C15.3878 22.4548 15.1445 22.7362 15 23.0699C14.7218 23.7467 14.6253 24.4844 14.72 25.2099C14.6913 25.6973 14.7819 26.1843 14.9841 26.6287C15.1862 27.073 15.4938 27.4614 15.88 27.7599C17.04 28.3899 18.55 27.2999 18.77 26.0099C18.8132 25.3512 18.7201 24.6905 18.4964 24.0694C18.2727 23.4482 17.9233 22.8799 17.47 22.3999" fill="#A9856C"/>
<path d="M16.73 21.9999C16.3669 21.9802 16.0064 22.0722 15.6971 22.2635C15.3878 22.4548 15.1445 22.7362 15 23.0699C14.7218 23.7467 14.6253 24.4844 14.72 25.2099C14.6913 25.6973 14.7819 26.1843 14.9841 26.6287C15.1862 27.073 15.4938 27.4614 15.88 27.7599C17.04 28.3899 18.55 27.2999 18.77 26.0099C18.8132 25.3512 18.7201 24.6905 18.4964 24.0694C18.2727 23.4482 17.9233 22.8799 17.47 22.3999" stroke="black" stroke-width="0.1" stroke-miterlimit="10"/>
<path d="M30 22.23C28.5117 22.2505 27.0588 21.7756 25.87 20.88C25 20.19 24.19 19 24.6 18C25.01 17 26.7 16.58 27.89 17C28.7679 17.3447 29.525 17.9399 30.0673 18.7115C30.6096 19.4832 30.9131 20.3972 30.94 21.34" fill="#A9856C"/>
<path d="M30 22.23C28.5117 22.2505 27.0588 21.7756 25.87 20.88C25 20.19 24.19 19 24.6 18C25.01 17 26.7 16.58 27.89 17C28.7679 17.3447 29.525 17.9399 30.0673 18.7115C30.6096 19.4832 30.9131 20.3972 30.94 21.34" stroke="black" stroke-width="0.1" stroke-miterlimit="10"/>
<path d="M20.59 10.66C21.98 7.27005 28.26 8.55005 30.27 10.34C30.8899 10.8194 31.3046 11.5165 31.43 12.29C31.4722 12.6756 31.3603 13.0623 31.1187 13.3658C30.877 13.6692 30.5252 13.8649 30.14 13.91C29.6587 13.8367 29.208 13.6287 28.84 13.31C27.6176 12.4671 26.2246 11.9038 24.76 11.66C23.44 11.47 21.92 11.94 20.76 11.04" fill="#F7EFDC"/>
<path d="M20.59 10.66C21.98 7.27005 28.26 8.55005 30.27 10.34C30.8899 10.8194 31.3046 11.5165 31.43 12.29C31.4722 12.6756 31.3603 13.0623 31.1187 13.3658C30.877 13.6692 30.5252 13.8649 30.14 13.91C29.6587 13.8367 29.208 13.6287 28.84 13.31C27.6176 12.4671 26.2246 11.9038 24.76 11.66C23.44 11.47 21.92 11.94 20.76 11.04" stroke="black" stroke-width="0.1" stroke-miterlimit="10"/>
<path d="M26.1701 23.62C26.4234 23.9985 26.575 24.4359 26.6101 24.89C26.8101 26.09 26.9501 27.3 27.0401 28.51C27.0901 29.16 26.7301 30.51 27.2001 31.07C27.8701 31.84 29.3201 30.41 30.0601 29.95C30.2183 29.8684 30.35 29.7436 30.4401 29.59C30.472 29.4473 30.4686 29.2989 30.4303 29.1578C30.3919 29.0167 30.3198 28.887 30.2201 28.78C28.8867 26.86 27.5001 24.98 26.0601 23.14" fill="#CEAD80"/>
<path d="M26.1701 23.62C26.4234 23.9985 26.575 24.4359 26.6101 24.89C26.8101 26.09 26.9501 27.3 27.0401 28.51C27.0901 29.16 26.7301 30.51 27.2001 31.07C27.8701 31.84 29.3201 30.41 30.0601 29.95C30.2183 29.8684 30.35 29.7436 30.4401 29.59C30.472 29.4473 30.4686 29.2989 30.4303 29.1578C30.3919 29.0167 30.3198 28.887 30.2201 28.78C28.8867 26.86 27.5001 24.98 26.0601 23.14" stroke="black" stroke-width="0.1" stroke-miterlimit="10"/>
<path d="M18.12 10.9399C17.7289 11.0084 17.3585 11.1646 17.0363 11.3966C16.7142 11.6287 16.4488 11.9307 16.26 12.2799C16.2101 12.3606 16.189 12.4557 16.2 12.5499C16.25 12.7399 16.53 12.7499 16.73 12.7099C17.1769 12.607 17.6124 12.4596 18.03 12.2699C18.351 12.1551 18.6135 11.9178 18.76 11.6099C18.85 11.2799 18.56 10.8599 18.24 10.9699" fill="#F7EFDC"/>
<path d="M18.12 10.9399C17.7289 11.0084 17.3585 11.1646 17.0363 11.3966C16.7142 11.6287 16.4488 11.9307 16.26 12.2799C16.2101 12.3606 16.189 12.4557 16.2 12.5499C16.25 12.7399 16.53 12.7499 16.73 12.7099C17.1769 12.607 17.6124 12.4596 18.03 12.2699C18.351 12.1551 18.6134 11.9178 18.76 11.6099C18.85 11.2799 18.56 10.8599 18.24 10.9699" stroke="black" stroke-width="0.1" stroke-miterlimit="10"/>
<path d="M8.65002 20.77C8.53094 21.9637 8.85481 23.1596 9.56002 24.13C9.97002 24.86 10.5 25.66 11.32 25.76C11.54 25.76 11.81 25.71 11.85 25.5C11.8699 25.4246 11.8699 25.3454 11.85 25.27C11.54 24.34 10.62 23.71 10.35 22.77C10.25 22.44 10.24 22.09 10.17 21.77C10.122 21.4231 9.94752 21.1061 9.68002 20.88C9.54116 20.7787 9.36907 20.7337 9.19838 20.7541C9.02769 20.7745 8.87106 20.8588 8.76002 20.99" fill="#F7EFDC"/>
<path d="M8.65002 20.77C8.53094 21.9637 8.85481 23.1596 9.56002 24.13C9.97002 24.86 10.5 25.66 11.32 25.76C11.54 25.76 11.81 25.71 11.85 25.5C11.8699 25.4246 11.8699 25.3454 11.85 25.27C11.54 24.34 10.62 23.71 10.35 22.77C10.25 22.44 10.24 22.09 10.17 21.77C10.122 21.4231 9.94752 21.1061 9.68002 20.88C9.54116 20.7787 9.36907 20.7337 9.19838 20.7541C9.02769 20.7745 8.87106 20.8588 8.76002 20.99" stroke="black" stroke-width="0.1" stroke-miterlimit="10"/>
<path d="M26.07 30.91C26.38 31.43 25.88 32.09 25.33 32.32C24.7402 32.4605 24.1645 32.6546 23.61 32.9C23.41 32.56 23.7 32.14 24.01 31.9C24.5344 31.468 25.1498 31.1603 25.81 31" fill="#CEAD80"/>
<path d="M26.07 30.91C26.38 31.43 25.88 32.09 25.33 32.32C24.7402 32.4605 24.1645 32.6546 23.61 32.9C23.41 32.56 23.7 32.14 24.01 31.9C24.5344 31.468 25.1498 31.1603 25.81 31" stroke="black" stroke-width="0.1" stroke-miterlimit="10"/>
</svg>
