<?xml version="1.0" encoding="UTF-8" standalone="no"?>
<!-- Created with Inkscape (http://www.inkscape.org/) -->

<svg
   width="64pt"
   height="64pt"
   viewBox="0 0 22.577778 22.577778"
   version="1.1"
   id="svg831"
   inkscape:version="1.1.1 (3bf5ae0d25, 2021-09-20)"
   sodipodi:docname="Ex.svg"
   inkscape:export-filename="C:\Users\User\Desktop\CARLOS PROJECT\4. APRIL 1\Done\3 - Brocoli.png"
   inkscape:export-xdpi="576"
   inkscape:export-ydpi="576"
   xmlns:inkscape="http://www.inkscape.org/namespaces/inkscape"
   xmlns:sodipodi="http://sodipodi.sourceforge.net/DTD/sodipodi-0.dtd"
   xmlns="http://www.w3.org/2000/svg"
   xmlns:svg="http://www.w3.org/2000/svg"
   xmlns:rdf="http://www.w3.org/1999/02/22-rdf-syntax-ns#"
   xmlns:cc="http://creativecommons.org/ns#"
   xmlns:dc="http://purl.org/dc/elements/1.1/">
  <defs
     id="defs825">
    <pattern
       id="EMFhbasepattern"
       patternUnits="userSpaceOnUse"
       width="6"
       height="6"
       x="0"
       y="0" />
    <pattern
       id="EMFhbasepattern-9"
       patternUnits="userSpaceOnUse"
       width="6"
       height="6"
       x="0"
       y="0" />
    <pattern
       id="EMFhbasepattern-0"
       patternUnits="userSpaceOnUse"
       width="6"
       height="6"
       x="0"
       y="0" />
    <pattern
       id="EMFhbasepattern-7"
       patternUnits="userSpaceOnUse"
       width="6"
       height="6"
       x="0"
       y="0" />
    <pattern
       id="EMFhbasepattern-2"
       patternUnits="userSpaceOnUse"
       width="6"
       height="6"
       x="0"
       y="0" />
    <pattern
       id="EMFhbasepattern-98"
       patternUnits="userSpaceOnUse"
       width="6"
       height="6"
       x="0"
       y="0" />
    <pattern
       id="EMFhbasepattern-6"
       patternUnits="userSpaceOnUse"
       width="6"
       height="6"
       x="0"
       y="0" />
    <pattern
       id="EMFhbasepattern-01"
       patternUnits="userSpaceOnUse"
       width="6"
       height="6"
       x="0"
       y="0" />
    <pattern
       id="EMFhbasepattern-07"
       patternUnits="userSpaceOnUse"
       width="6"
       height="6"
       x="0"
       y="0" />
    <pattern
       id="EMFhbasepattern-8"
       patternUnits="userSpaceOnUse"
       width="6"
       height="6"
       x="0"
       y="0" />
    <pattern
       id="EMFhbasepattern-4"
       patternUnits="userSpaceOnUse"
       width="6"
       height="6"
       x="0"
       y="0" />
    <pattern
       id="EMFhbasepattern-40"
       patternUnits="userSpaceOnUse"
       width="6"
       height="6"
       x="0"
       y="0" />
    <pattern
       id="EMFhbasepattern-08"
       patternUnits="userSpaceOnUse"
       width="6"
       height="6"
       x="0"
       y="0" />
    <pattern
       id="EMFhbasepattern-04"
       patternUnits="userSpaceOnUse"
       width="6"
       height="6"
       x="0"
       y="0" />
    <pattern
       id="EMFhbasepattern-014"
       patternUnits="userSpaceOnUse"
       width="6"
       height="6"
       x="0"
       y="0" />
    <pattern
       id="EMFhbasepattern-27"
       patternUnits="userSpaceOnUse"
       width="6"
       height="6"
       x="0"
       y="0" />
    <pattern
       id="EMFhbasepattern-09"
       patternUnits="userSpaceOnUse"
       width="6"
       height="6"
       x="0"
       y="0" />
    <pattern
       id="EMFhbasepattern-5"
       patternUnits="userSpaceOnUse"
       width="6"
       height="6"
       x="0"
       y="0" />
    <pattern
       id="EMFhbasepattern-018"
       patternUnits="userSpaceOnUse"
       width="6"
       height="6"
       x="0"
       y="0" />
  </defs>
  <sodipodi:namedview
     id="base"
     pagecolor="#ffffff"
     bordercolor="#666666"
     borderopacity="1.0"
     inkscape:pageopacity="0.0"
     inkscape:pageshadow="2"
     inkscape:zoom="6.4882571"
     inkscape:cx="31.749667"
     inkscape:cy="42.615451"
     inkscape:document-units="pt"
     inkscape:current-layer="layer1"
     showgrid="false"
     units="pt"
     inkscape:window-width="1920"
     inkscape:window-height="1001"
     inkscape:window-x="-9"
     inkscape:window-y="-9"
     inkscape:window-maximized="1"
     inkscape:pagecheckerboard="true"
     inkscape:showpageshadow="false"
     inkscape:object-paths="true"
     inkscape:snap-intersection-paths="true"
     inkscape:snap-smooth-nodes="true"
     inkscape:snap-midpoints="true"
     showguides="true"
     inkscape:snap-bbox="true"
     inkscape:bbox-nodes="true"
     inkscape:snap-nodes="false"
     inkscape:snap-global="true"
     inkscape:lockguides="true">
    <inkscape:grid
       type="xygrid"
       id="grid1378" />
    <sodipodi:guide
       position="0.97013831,21.607643"
       orientation="78.000048,0"
       id="guide1380"
       inkscape:locked="true" />
    <sodipodi:guide
       position="0.97013831,0.97013129"
       orientation="0,78.000005"
       id="guide1382"
       inkscape:locked="true" />
    <sodipodi:guide
       position="21.607639,0.97013129"
       orientation="-78.000048,0"
       id="guide1384"
       inkscape:locked="true" />
    <sodipodi:guide
       position="21.607639,21.607643"
       orientation="0,-78.000005"
       id="guide1386"
       inkscape:locked="true" />
  </sodipodi:namedview>
  <metadata
     id="metadata828">
    <rdf:RDF>
      <cc:Work
         rdf:about="">
        <dc:format>image/svg+xml</dc:format>
        <dc:type
           rdf:resource="http://purl.org/dc/dcmitype/StillImage" />
      </cc:Work>
    </rdf:RDF>
  </metadata>
  <g
     inkscape:label="Icon"
     inkscape:groupmode="layer"
     id="layer1"
     transform="translate(0,-274.42223)">
    <g
       id="g16736"
       style="display:inline;stroke-width:0.795592"
       transform="matrix(1.256926,0,0,1.256926,-38.239027,-38.894417)">
      <path
         style="color:#000000;fill:#dc1c4b;stroke-width:0.795592;stroke-linecap:round;stroke-linejoin:round;-inkscape-stroke:none"
         d="m 38.447266,252.45898 c -0.116579,-0.024 -0.234869,0.0327 -0.289063,0.13868 -1.211058,2.3383 -1.074112,6.83065 -5.802734,8.90429 -0.405223,0.14401 -0.621919,0.41094 -0.716797,0.71094 0.139752,0.42281 0.576899,0.39506 0.917969,0.39262 2.572613,-0.13001 5.476556,-1.48665 7.537109,-3.14844 0.01943,-0.0157 0.03652,-0.0342 0.05078,-0.0547 l 2.695313,-3.86132 c 0.05448,-0.0782 0.06268,-0.17968 0.02148,-0.26563 l -0.966797,-2.00195 c -0.03633,-0.0738 -0.104902,-0.12647 -0.185547,-0.14258 z"
         id="path1907"
         sodipodi:nodetypes="cccccccccccc" />
      <path
         id="path2397"
         style="fill:#b01d47;fill-opacity:1;stroke-width:3.00696;stroke-linecap:round;stroke-linejoin:round"
         d="m 156.61328,-95.847656 c -2.48273,1.120025 -4.13919,3.173771 -5.27734,5.33789 -0.003,0.0071 -0.005,0.01431 -0.008,0.02148 -2.56297,4.898179 -3.58764,11.02683 -5.89843,16.871093 2.17767,-1.327618 4.23425,-2.768253 6.10547,-4.277343 0.0733,-0.05963 0.1377,-0.129328 0.1914,-0.207031 l 10.1875,-14.59375 z"
         transform="matrix(0.26458334,0,0,0.26458334,0,280.06666)"
         sodipodi:nodetypes="cccccccc" />
      <path
         style="color:#000000;fill:#50b86b;stroke-width:0.795592;stroke-linecap:round;stroke-linejoin:round;-inkscape-stroke:none"
         d="m 44.478516,250.0625 c -1.715434,-0.13539 -2.806876,0.49848 -3.556641,1.35742 -0.658808,-0.1471 -1.232968,-0.16544 -1.675781,0.0371 -0.486167,0.22239 -0.825115,0.63493 -1.083985,1.13477 a 0.26460996,0.26460996 0 0 0 -0.02148,0.1914 l 0.505859,1.84571 a 0.26460996,0.26460996 0 0 0 0.371094,0.16796 l 1.349609,-0.6621 c 0.09171,0.26698 0.183679,0.53379 0.275391,0.80078 a 0.26460996,0.26460996 0 0 0 0.002,0.004 l 0.734375,2.01172 a 0.26460996,0.26460996 0 0 0 0.46875,0.0566 l 0.994141,-1.46875 a 0.26460996,0.26460996 0 0 0 0.03711,-0.082 c 0.335796,-1.28724 0.210719,-2.33423 -0.390625,-3.08984 0.17709,-0.22758 0.359935,-0.43623 0.625,-0.56641 0.305031,-0.1498 0.709537,-0.22844 1.310547,-0.1543 a 0.26460996,0.26460996 0 0 0 0.296875,-0.26367 v -1.05664 a 0.26460996,0.26460996 0 0 0 -0.242187,-0.26367 z"
         id="path2099" />
      <path
         id="path2598"
         style="color:#000000;fill:#349951;fill-opacity:1;stroke-width:3.00696;stroke-linecap:round;stroke-linejoin:round;-inkscape-stroke:none"
         d="m 162.0625,-93.011719 c 0.30667,-1.175596 0.51084,-2.298401 0.61328,-3.365234 -0.80634,-0.121103 -1.6072,-0.201692 -2.39453,-0.201172 -1.26192,8.34e-4 -2.49268,0.200185 -3.66797,0.730469 -1.02007,0.460182 -1.89755,1.080661 -2.66016,1.798828 l 2.43946,6.683594 z"
         transform="matrix(0.26458334,0,0,0.26458334,0,280.06666)"
         sodipodi:nodetypes="ccscccc" />
      <path
         style="color:#000000;fill:#dc1c4b;stroke-width:0.795592;stroke-linecap:round;stroke-linejoin:round;-inkscape-stroke:none"
         d="m 40.873047,256.2832 c -0.105088,-0.008 -0.204825,0.0474 -0.253906,0.14063 -1.249151,2.38072 -1.060293,7.0333 -6.113282,9.05078 -0.454402,0.16362 -0.609375,0.34657 -0.609375,0.60156 0.02336,0.24917 0.396407,0.39126 0.765625,0.38674 0.0026,4e-5 0.0052,4e-5 0.0078,0 1.677351,-0.0601 3.773607,-0.42556 5.705078,-1.37305 1.931471,-0.94748 3.699319,-2.48627 4.666016,-4.86914 0.0014,-0.003 0.0027,-0.007 0.0039,-0.01 0.195511,-0.53897 0.335881,-1.04281 0.416015,-1.51172 0.01458,-0.0849 -0.01311,-0.17166 -0.07422,-0.23242 l -1.939453,-1.9336 c -0.04454,-0.0443 -0.103387,-0.0713 -0.166016,-0.0762 z"
         id="path1523"
         sodipodi:nodetypes="cccccccccccccc" />
      <path
         style="color:#000000;fill:#f0517a;stroke-width:0.795592;stroke-linecap:round;stroke-linejoin:round;-inkscape-stroke:none"
         d="m 39.033203,258.06639 c -0.170654,0.15727 -0.340494,0.30563 -0.505859,0.4414 -0.11227,0.0925 -0.128845,0.25823 -0.03711,0.3711 0.09248,0.11226 0.258225,0.12883 0.371094,0.0371 0.17271,-0.14181 0.352641,-0.29634 0.53125,-0.46094 0.106454,-0.0994 0.112564,-0.26613 0.01367,-0.37305 -0.104698,-0.11394 -0.276602,-0.0975 -0.373045,-0.0156 z m -1.371094,1.08989 c -0.07574,0.0525 -0.15308,0.10478 -0.230468,0.15625 -0.122046,0.0808 -0.155304,0.24533 -0.07422,0.36719 0.08142,0.12138 0.245831,0.15376 0.367187,0.0723 0.08009,-0.0533 0.159783,-0.1058 0.238282,-0.16015 0.120591,-0.0834 0.150375,-0.24895 0.06641,-0.36914 -0.122623,-0.14409 -0.238604,-0.13953 -0.367191,-0.0665 z"
         id="path13669"
         sodipodi:nodetypes="cccccccccccccc" />
      <path
         style="color:#000000;fill:#50b86b;stroke-width:0.795592;stroke-linecap:round;stroke-linejoin:round;-inkscape-stroke:none"
         d="m 46.927734,253.9082 c -1.715478,-0.13539 -2.806875,0.5004 -3.55664,1.35938 -0.653992,-0.14608 -1.224435,-0.16601 -1.666016,0.0332 -0.48507,0.21883 -0.825206,0.62533 -1.085937,1.12109 a 0.26460996,0.26460996 0 0 0 -0.02148,0.19141 c 0.168723,0.62756 0.326172,1.23002 0.498047,1.86133 a 0.26460996,0.26460996 0 0 0 0.371094,0.16992 l 1.349609,-0.66211 0.400391,1.16211 a 0.26460996,0.26460996 0 0 0 0.30664,0.17188 c 0.579105,-0.12956 1.160069,-0.25971 1.740235,-0.40235 a 0.26460996,0.26460996 0 0 0 0.199219,-0.21094 c 0.173081,-1.01978 -0.008,-1.86269 -0.513672,-2.49804 0.174702,-0.2222 0.354892,-0.42878 0.615234,-0.55664 0.305031,-0.14981 0.709537,-0.22845 1.310547,-0.1543 a 0.26460996,0.26460996 0 0 0 0.296875,-0.26367 v -1.0586 a 0.26460996,0.26460996 0 0 0 -0.244141,-0.26367 z"
         id="path1715" />
      <path
         style="color:#000000;fill:#f0517a;stroke-width:0.795592;stroke-linecap:round;stroke-linejoin:round;-inkscape-stroke:none"
         d="m 42.884766,260.29102 c -0.50275,0.7865 -1.246776,1.52143 -1.908204,2.06445 -0.112263,0.0925 -0.128838,0.25822 -0.03711,0.37109 0.09263,0.11352 0.259875,0.13016 0.373047,0.0371 0.690875,-0.5672 1.468367,-1.32831 2.017578,-2.1875 0.07863,-0.12299 0.04279,-0.28642 -0.08008,-0.36523 -0.156647,-0.0765 -0.312028,-0.0142 -0.365231,0.0801 z m -3.001954,2.86914 c -0.12204,0.0808 -0.155297,0.24533 -0.07422,0.36718 0.08142,0.12138 0.245831,0.15376 0.367187,0.0723 0.0801,-0.0533 0.157842,-0.10581 0.236328,-0.16016 0.121254,-0.0828 0.151933,-0.24844 0.06836,-0.36914 -0.0834,-0.12059 -0.24895,-0.15037 -0.369141,-0.0664 z"
         id="path14411"
         sodipodi:nodetypes="ccccccccccccccc" />
      <path
         id="path12906"
         style="color:#000000;fill:#b01d47;fill-opacity:1;stroke-width:0.795592;stroke-linecap:round;stroke-linejoin:round;-inkscape-stroke:none"
         d="m 44.012301,250.0442 c -1.45083,0.004 -2.410775,0.59722 -3.090249,1.37563 -0.65881,-0.1471 -1.233054,-0.16533 -1.675868,0.0372 -0.486167,0.22239 -0.825302,0.63497 -1.08417,1.13481 -1.79e-4,6.7e-4 -3.55e-4,0.001 -5.29e-4,0.002 -10e-4,0.001 -0.0021,0.003 -0.0031,0.004 -1.211056,2.3383 -1.074124,6.83073 -5.802746,8.90437 -0.405201,0.14408 -0.754228,0.41104 -0.716751,0.71107 0.03623,0.26976 0.280987,0.36357 0.53795,0.38598 0.132766,-0.30759 0.419017,-0.43978 0.707967,-0.56741 4.728623,-2.07364 4.591691,-6.56606 5.802747,-8.90436 0.001,-0.001 0.0021,-0.003 0.0031,-0.004 1.74e-4,-6.7e-4 3.51e-4,-0.001 5.3e-4,-0.002 0.258868,-0.49984 0.598003,-0.91242 1.084169,-1.13481 0.442815,-0.20253 1.017059,-0.18431 1.675869,-0.0372 1.28094,-1.39864 2.164743,-1.44965 3.269567,-1.37262 v -0.25011 c -6.4e-5,-0.13747 -0.105381,-0.25199 -0.242363,-0.26355 z"
         sodipodi:nodetypes="ccccccccccccccccccc" />
      <path
         id="path6784"
         style="fill:#dc1c4b;fill-opacity:1;stroke-width:3.00696;stroke-linecap:round;stroke-linejoin:round"
         d="m 147.77148,-80.691406 c 0.36908,-0.317587 0.74185,-0.647934 1.11329,-0.990235 0.40278,-0.37539 0.42634,-1.00575 0.0527,-1.410156 -0.10098,-0.109328 -0.22509,-0.194738 -0.36328,-0.25 z"
         transform="matrix(0.26458334,0,0,0.26458334,0,280.06666)"
         sodipodi:nodetypes="ccscc" />
      <path
         id="path12914"
         style="color:#000000;fill:#349951;fill-opacity:1;stroke-width:0.795592;stroke-linecap:round;stroke-linejoin:round;-inkscape-stroke:none"
         d="m 44.012301,250.0442 c -0.99812,-0.0101 -2.011894,0.32814 -2.743766,1.02004 -0.183505,0.11191 -0.279728,0.44445 -0.529807,0.31761 -0.610968,-0.12217 -1.312395,-0.13498 -1.825771,0.27264 -0.326686,0.24202 -0.567825,0.58172 -0.752036,0.94004 -0.06779,0.19183 0.04876,0.37948 0.08386,0.56795 0.05456,0.19895 0.109112,0.39789 0.163666,0.59684 0.268391,-0.70093 0.649822,-1.44546 1.366846,-1.77255 0.528849,-0.23288 1.128278,-0.15512 1.675868,-0.0372 0.647769,-0.76775 1.598417,-1.26499 2.600076,-1.3506 0.222316,-0.0225 0.44618,-0.0298 0.669491,-0.0219 0.03292,-0.5179 -0.03847,-0.53287 -0.708427,-0.53287 z"
         sodipodi:nodetypes="cccccccccccc" />
    </g>
  </g>
</svg>
