<svg width="40" height="40" viewBox="0 0 40 40" fill="none" xmlns="http://www.w3.org/2000/svg">
<path d="M36.15 15.77C36.15 17.4 34.69 18.9 32.26 20.04C29.9538 21.059 27.5056 21.72 25 22C23.3582 22.2085 21.7049 22.3121 20.05 22.31C15.8295 22.4192 11.6338 21.6319 7.73998 20C5.30998 18.9 3.84998 17.4 3.84998 15.77C3.84998 12.15 11.08 9.21003 20.01 9.21003C22.7003 9.18704 25.3845 9.47223 28.01 10.06C32.85 11.19 36.15 13.32 36.15 15.77Z" fill="#CACCCD" stroke="black" stroke-width="0.1" stroke-miterlimit="10"/>
<path d="M28.34 13.17C28.3476 16.4234 27.1589 19.5661 25 22C23.3582 22.2085 21.7049 22.3121 20.05 22.31C15.8295 22.4192 11.6338 21.6319 7.73998 20C5.30998 18.9 3.84998 17.4 3.84998 15.77C3.84998 12.15 11.08 9.21003 20.01 9.21003C22.7003 9.18704 25.3845 9.47223 28.01 10.06C28.2473 11.0792 28.3581 12.1237 28.34 13.17Z" fill="white" stroke="black" stroke-width="0.1" stroke-miterlimit="10"/>
<path d="M34.78 18.41C34.1642 21.8815 32.3452 25.0252 29.6424 27.2891C26.9396 29.553 23.5257 30.7925 20 30.79C19.1724 30.7947 18.346 30.7277 17.53 30.59C14.4748 30.0718 11.6536 28.6243 9.45077 26.4448C7.24796 24.2652 5.7706 21.4596 5.21997 18.41C7.72997 20.72 13.4 22.33 20 22.33C21.31 22.33 22.59 22.27 23.81 22.15C28.73 21.66 32.77 20.27 34.78 18.41Z" fill="#E0E1E2" stroke="black" stroke-width="0.1" stroke-miterlimit="10"/>
<path d="M32.9 18.41C32.8765 18.998 32.6504 19.5597 32.26 20C28.3834 21.6327 24.2052 22.4267 20 22.33C15.7948 22.4258 11.6168 21.6318 7.73998 20C7.34458 19.547 7.11841 18.971 7.09998 18.37C7.09998 15.47 12.88 13.13 20.01 13.13C27.14 13.13 32.9 15.51 32.9 18.41Z" fill="#EAC289" stroke="black" stroke-width="0.1" stroke-miterlimit="10"/>
<path d="M23.82 16.82C23.82 18 21 19 17.53 19C14.06 19 11.25 18 11.25 16.79C11.25 15.58 14.07 14.58 17.53 14.58C20.99 14.58 23.82 15.6 23.82 16.82Z" fill="#F3D89A" stroke="black" stroke-width="0.1" stroke-miterlimit="10"/>
<path d="M20 23.38C15.7977 23.4884 11.6198 22.7081 7.74002 21.09C6.94789 20.7278 6.20247 20.2712 5.52002 19.73C6.27243 22.4981 7.80279 24.9924 9.92968 26.9173C12.0566 28.8421 14.6908 30.1167 17.52 30.59C20.269 28.8743 22.3584 26.281 23.45 23.23C22.35 23.33 21.2 23.38 20 23.38Z" fill="#CACCCD" stroke="black" stroke-width="0.1" stroke-miterlimit="10"/>
</svg>
