<svg width="40" height="40" viewBox="0 0 40 40" fill="none" xmlns="http://www.w3.org/2000/svg">
<path d="M8.25005 29.4C8.10039 29.4002 7.95295 29.3639 7.82051 29.2942C7.68808 29.2244 7.57464 29.1235 7.49005 29C7.34938 28.7994 7.29358 28.5513 7.33477 28.3098C7.37597 28.0682 7.51083 27.8527 7.71005 27.71C8.04005 27.47 16.0101 21.86 25.7801 23.23C34.5901 24.48 37.5901 21.45 37.6201 21.42C37.7889 21.2427 38.0203 21.1383 38.2649 21.129C38.5095 21.1196 38.7482 21.2061 38.9301 21.37C39.1081 21.5358 39.2141 21.7648 39.2253 22.0078C39.2365 22.2508 39.1521 22.4885 38.9901 22.67C38.8401 22.83 35.4201 26.46 25.5301 25.07C16.5301 23.8 8.86005 29.16 8.79005 29.22C8.63393 29.3362 8.44467 29.3993 8.25005 29.4Z" fill="#FF8006" stroke="black" stroke-width="0.1" stroke-miterlimit="10"/>
<path d="M1.69989 21.67C1.4777 21.6677 1.26368 21.5859 1.09657 21.4394C0.929461 21.293 0.820315 21.0915 0.78889 20.8715C0.757466 20.6516 0.80584 20.4276 0.925255 20.2402C1.04467 20.0528 1.22723 19.9144 1.43989 19.85C1.83989 19.73 11.3099 17.01 24.8999 19.08C33.5199 20.39 35.3399 19.2 35.6899 18.8C35.8099 18.67 35.8099 18.57 35.7899 18.53C35.6973 18.3045 35.6979 18.0515 35.7917 17.8265C35.8854 17.6015 36.0646 17.423 36.2899 17.33C36.523 17.2498 36.7774 17.2586 37.0044 17.3546C37.2314 17.4505 37.415 17.627 37.5199 17.85C37.6478 18.1932 37.6837 18.5638 37.624 18.9252C37.5644 19.2866 37.4113 19.6261 37.1799 19.91C35.8199 21.66 31.7099 21.99 24.6199 20.91C11.4699 18.91 2.05989 21.6 1.95989 21.63C1.87516 21.6537 1.78786 21.6672 1.69989 21.67Z" fill="#FF8006" stroke="black" stroke-width="0.1" stroke-miterlimit="10"/>
<path d="M1.70003 17.0599C1.47502 17.0566 1.25887 16.9717 1.09164 16.8212C0.924406 16.6706 0.817446 16.4645 0.790586 16.241C0.763726 16.0176 0.818789 15.792 0.945565 15.6061C1.07234 15.4202 1.26223 15.2865 1.48003 15.2299C2.23003 14.9999 20 10.6399 33.56 13.7799C33.6782 13.8075 33.7898 13.8581 33.8885 13.9288C33.9871 13.9995 34.0708 14.089 34.1349 14.192C34.199 14.2951 34.2421 14.4098 34.2619 14.5295C34.2816 14.6493 34.2776 14.7718 34.25 14.8899C34.2225 15.0081 34.1719 15.1197 34.1012 15.2184C34.0304 15.317 33.941 15.4008 33.8379 15.4648C33.7349 15.5289 33.6202 15.572 33.5004 15.5918C33.3807 15.6115 33.2582 15.6075 33.14 15.5799C20 12.5399 2.11003 16.9999 1.93003 16.9999C1.85632 17.0299 1.77899 17.0501 1.70003 17.0599Z" fill="#FF8006" stroke="black" stroke-width="0.1" stroke-miterlimit="10"/>
<path d="M10.78 11.7C10.6041 11.7098 10.429 11.6689 10.2757 11.5821C10.1223 11.4953 9.99711 11.3663 9.91495 11.2104C9.8328 11.0545 9.79714 10.8783 9.81221 10.7027C9.82729 10.5272 9.89247 10.3596 10 10.22C10.19 9.96003 14.89 3.86003 25.43 9.05003C25.5512 9.09607 25.6614 9.16693 25.7536 9.25806C25.8457 9.3492 25.9178 9.4586 25.9653 9.57924C26.0127 9.69988 26.0343 9.82911 26.0289 9.95861C26.0234 10.0881 25.9909 10.2151 25.9335 10.3313C25.8761 10.4475 25.795 10.5504 25.6955 10.6335C25.596 10.7165 25.4802 10.7778 25.3556 10.8135C25.2309 10.8492 25.1002 10.8584 24.9718 10.8406C24.8435 10.8227 24.7202 10.7783 24.61 10.71C15.44 6.19003 11.52 11.27 11.48 11.33C11.3977 11.4394 11.2923 11.5293 11.1713 11.5932C11.0503 11.6572 10.9167 11.6937 10.78 11.7Z" fill="#FF8006" stroke="black" stroke-width="0.1" stroke-miterlimit="10"/>
<path d="M21.21 32.28C18.4612 32.2038 15.7674 31.4919 13.34 30.2C13.1289 30.0923 12.9669 29.9082 12.887 29.6852C12.8071 29.4622 12.8153 29.2171 12.91 29C12.9632 28.8904 13.0377 28.7926 13.129 28.7121C13.2204 28.6315 13.3269 28.5699 13.4422 28.5309C13.5576 28.4918 13.6795 28.476 13.801 28.4845C13.9225 28.4929 14.0411 28.5253 14.15 28.58C23.32 33.09 27.24 28.01 27.28 27.96C27.4357 27.816 27.6361 27.7296 27.8477 27.7151C28.0593 27.7006 28.2696 27.7589 28.4435 27.8803C28.6175 28.0017 28.7447 28.1789 28.8041 28.3826C28.8634 28.5863 28.8514 28.8041 28.77 29C27.8375 30.0798 26.6735 30.9355 25.3646 31.5034C24.0557 32.0713 22.6356 32.3367 21.21 32.28Z" fill="#FF8006" stroke="black" stroke-width="0.1" stroke-miterlimit="10"/>
<path opacity="0.7" d="M8.25005 30.1599C8.10158 30.1596 7.95529 30.1241 7.82319 30.0563C7.69109 29.9885 7.57693 29.8904 7.49005 29.7699C7.34938 29.5693 7.29358 29.3213 7.33477 29.0797C7.37597 28.8382 7.51083 28.6226 7.71005 28.4799C8.00005 28.2399 16.0001 22.6199 25.7801 23.9999C34.5901 25.2399 37.5901 22.2099 37.6201 22.1799C37.7942 22.0071 38.0297 21.9102 38.2751 21.9102C38.5204 21.9102 38.7559 22.0071 38.9301 22.1799C39.0973 22.341 39.1975 22.5594 39.2105 22.7912C39.2234 23.023 39.1483 23.2512 39.0001 23.4299C38.8501 23.5899 35.4301 27.2199 25.5401 25.8299C16.5401 24.5599 8.87005 29.9299 8.80005 29.9799C8.64086 30.0975 8.44798 30.1607 8.25005 30.1599Z" fill="#DC5B00" stroke="black" stroke-width="0.1" stroke-miterlimit="10"/>
<path opacity="0.7" d="M1.69989 22.42C1.4777 22.4177 1.26368 22.336 1.09657 22.1895C0.929461 22.043 0.820315 21.8416 0.78889 21.6216C0.757466 21.4016 0.80584 21.1777 0.925255 20.9903C1.04467 20.8029 1.22723 20.6645 1.43989 20.6C1.83989 20.49 11.3099 17.76 24.8999 19.83C33.5199 21.15 35.3399 19.95 35.6899 19.56C35.8099 19.42 35.8099 19.33 35.7899 19.28C35.7428 19.1693 35.7184 19.0502 35.7182 18.9299C35.718 18.8095 35.7418 18.6904 35.7885 18.5794C35.8351 18.4685 35.9035 18.368 35.9896 18.2839C36.0757 18.1999 36.1778 18.1339 36.2899 18.09C36.5218 18.0092 36.7753 18.0165 37.0021 18.1106C37.229 18.2046 37.4133 18.3788 37.5199 18.6C37.6478 18.9432 37.6837 19.3139 37.624 19.6753C37.5644 20.0367 37.4113 20.3761 37.1799 20.66C35.8199 22.42 31.7099 22.75 24.6199 21.66C11.4699 19.66 2.05989 22.34 1.95989 22.37C1.87688 22.402 1.78884 22.4189 1.69989 22.42Z" fill="#DC5B00" stroke="black" stroke-width="0.1" stroke-miterlimit="10"/>
<path opacity="0.7" d="M1.70009 17.81C1.486 17.7932 1.28429 17.7029 1.12921 17.5544C0.974127 17.4058 0.875237 17.2082 0.849326 16.995C0.823414 16.7818 0.872078 16.5663 0.987055 16.3849C1.10203 16.2035 1.27624 16.0675 1.48009 16C2.23009 15.81 19.9901 11.41 33.5601 14.55C33.6783 14.5776 33.7899 14.6281 33.8885 14.6988C33.9872 14.7696 34.0709 14.859 34.135 14.9621C34.1991 15.0651 34.2422 15.1798 34.262 15.2996C34.2817 15.4193 34.2777 15.5418 34.2501 15.66C34.2225 15.7782 34.1719 15.8898 34.1012 15.9884C34.0305 16.087 33.9411 16.1708 33.838 16.2349C33.7349 16.2989 33.6202 16.3421 33.5005 16.3618C33.3807 16.3816 33.2583 16.3776 33.1401 16.35C20.0201 13.35 2.14009 17.75 1.93009 17.8C1.85416 17.813 1.77687 17.8164 1.70009 17.81Z" fill="#DC5B00" stroke="black" stroke-width="0.1" stroke-miterlimit="10"/>
<path opacity="0.7" d="M10.7801 12.4501C10.6092 12.4553 10.4402 12.4128 10.2921 12.3274C10.144 12.242 10.0226 12.1169 9.94157 11.9663C9.86057 11.8157 9.82313 11.6456 9.83347 11.4749C9.84381 11.3042 9.90151 11.1398 10.0001 11.0001C10.1901 10.7401 14.8901 4.64006 25.4301 9.83006C25.5513 9.8761 25.6615 9.94696 25.7537 10.0381C25.8458 10.1292 25.9179 10.2386 25.9653 10.3593C26.0128 10.4799 26.0344 10.6091 26.029 10.7386C26.0235 10.8682 25.991 10.9951 25.9336 11.1113C25.8762 11.2275 25.7951 11.3305 25.6956 11.4135C25.5961 11.4965 25.4803 11.5579 25.3557 11.5935C25.231 11.6292 25.1003 11.6384 24.9719 11.6206C24.8435 11.6028 24.7203 11.5583 24.6101 11.4901C15.4801 7.00006 11.5601 12.0001 11.5201 12.0801C11.4337 12.1947 11.3219 12.2877 11.1935 12.3519C11.0651 12.4161 10.9236 12.4497 10.7801 12.4501Z" fill="#DC5B00" stroke="black" stroke-width="0.1" stroke-miterlimit="10"/>
<path opacity="0.7" d="M21.21 33C18.4678 32.9475 15.7746 32.2631 13.34 31C13.1189 30.8922 12.9495 30.7012 12.869 30.4688C12.7884 30.2364 12.8031 29.9816 12.91 29.76C12.9633 29.6505 13.0377 29.5526 13.1291 29.4721C13.2205 29.3916 13.3269 29.33 13.4422 29.2909C13.5576 29.2519 13.6796 29.2361 13.801 29.2445C13.9225 29.2529 14.0412 29.2854 14.15 29.34C23.32 33.85 27.24 28.78 27.28 28.72C27.4316 28.535 27.6487 28.4155 27.8861 28.3864C28.1236 28.3573 28.3631 28.4208 28.5549 28.5637C28.7467 28.7066 28.8761 28.9179 28.9162 29.1538C28.9562 29.3896 28.9039 29.6318 28.77 29.83C27.8274 30.8905 26.6588 31.7258 25.3504 32.2744C24.0419 32.8231 22.627 33.071 21.21 33Z" fill="#DC5B00" stroke="black" stroke-width="0.1" stroke-miterlimit="10"/>
<path d="M3.00006 28.09C2.80533 28.09 2.61585 28.0269 2.46006 27.91C2.36112 27.8395 2.27714 27.75 2.21296 27.6468C2.14879 27.5436 2.1057 27.4287 2.08617 27.3088C2.06665 27.1888 2.07108 27.0662 2.09921 26.948C2.12734 26.8298 2.17861 26.7183 2.25006 26.62C2.62006 26.11 11.4101 14.28 31.6501 16.25C31.8941 16.2726 32.1191 16.3911 32.2757 16.5796C32.4323 16.768 32.5076 17.011 32.4851 17.255C32.4625 17.499 32.344 17.7241 32.1555 17.8807C31.967 18.0372 31.7241 18.1126 31.4801 18.09C12.3001 16.23 3.84006 27.59 3.75006 27.71C3.66482 27.829 3.55214 27.9257 3.42158 27.9918C3.29101 28.058 3.14642 28.0917 3.00006 28.09Z" fill="#FF8006" stroke="black" stroke-width="0.1" stroke-miterlimit="10"/>
<path opacity="0.7" d="M3.0001 28.84C2.80748 28.8366 2.61997 28.7775 2.4601 28.67C2.36083 28.5985 2.27663 28.5082 2.21233 28.4041C2.14803 28.3001 2.1049 28.1843 2.08539 28.0636C2.06588 27.9428 2.07039 27.8194 2.09865 27.7004C2.12692 27.5814 2.17838 27.4691 2.2501 27.37C2.6601 26.87 11.4501 15 31.6901 17C31.9341 17.0226 32.1591 17.1411 32.3157 17.3296C32.4723 17.5181 32.5476 17.761 32.5251 18.005C32.5026 18.249 32.384 18.4741 32.1955 18.6307C32.0071 18.7873 31.7641 18.8626 31.5201 18.84C12.3401 17 3.8801 28.34 3.7901 28.46C3.70107 28.5848 3.58198 28.685 3.44387 28.7514C3.30577 28.8179 3.15313 28.8483 3.0001 28.84Z" fill="#DC5B00" stroke="black" stroke-width="0.1" stroke-miterlimit="10"/>
</svg>
