<?xml version="1.0" encoding="utf-8"?>
<!-- Generator: Adobe Illustrator 16.0.0, SVG Export Plug-In . SVG Version: 6.00 Build 0)  -->
<!DOCTYPE svg PUBLIC "-//W3C//DTD SVG 1.1//EN" "http://www.w3.org/Graphics/SVG/1.1/DTD/svg11.dtd">
<svg version="1.1" id="Layer_1" xmlns="http://www.w3.org/2000/svg" xmlns:xlink="http://www.w3.org/1999/xlink" x="0px" y="0px"
	 width="128px" height="128px" viewBox="0 0 128 128" enable-background="new 0 0 128 128" xml:space="preserve">
<g>
	<g>
		<polygon fill="#B0BEC5" points="95.1,89.8 89.8,95.1 66,71.4 71.4,66 		"/>
		<path fill="#37474F" d="M89.8,97.3L63.9,71.4l7.5-7.5l25.9,25.9L89.8,97.3z M68.1,71.4L89.8,93l3.3-3.3L71.4,68.1L68.1,71.4z"/>
	</g>
	<g>
		<path fill="#37474F" d="M79,18.5C95.6,35.2,95.6,62.3,79,79c-16.7,16.7-43.7,16.7-60.4,0c-16.7-16.7-16.7-43.7,0-60.4
			C35.2,1.9,62.3,1.9,79,18.5z"/>
		<path fill="#37474F" d="M48.7,93c-11.8,0-22.9-4.6-31.3-13c-17.2-17.2-17.2-45.3,0-62.5C25.8,9.1,36.9,4.5,48.7,4.5
			S71.7,9.1,80,17.5c8.4,8.4,13,19.5,13,31.3c0,11.8-4.6,22.9-13,31.3C71.7,88.4,60.6,93,48.7,93z M48.7,7.5
			c-11,0-21.4,4.3-29.2,12.1c-16.1,16.1-16.1,42.2,0,58.3C27.4,85.7,37.7,90,48.7,90c11,0,21.4-4.3,29.2-12.1
			C85.7,70.1,90,59.8,90,48.7s-4.3-21.4-12.1-29.2C70.1,11.8,59.8,7.5,48.7,7.5z"/>
	</g>
	<g>
		<path fill="#FFAB00" d="M120,110.2c2.7,2.7,2.7,7,0,9.7l0,0c-2.7,2.7-7,2.7-9.7,0L88,97.7c-2.7-2.7-2.7-7,0-9.7l0,0
			c2.7-2.7,7-2.7,9.7,0L120,110.2z"/>
		<path fill="#37474F" d="M115.1,123.5c-2.2,0-4.3-0.9-5.9-2.5L86.9,98.7c-1.6-1.6-2.5-3.7-2.5-5.9c0-2.2,0.9-4.3,2.5-5.9
			c1.6-1.6,3.7-2.5,5.9-2.5c2.2,0,4.3,0.9,5.9,2.5l22.3,22.3c3.3,3.3,3.3,8.6,0,11.8C119.4,122.6,117.3,123.5,115.1,123.5z
			 M92.8,87.4C91.4,87.4,90,88,89,89c-1,1-1.6,2.4-1.6,3.8c0,1.4,0.6,2.8,1.6,3.8l22.3,22.3c1,1,2.4,1.6,3.8,1.6
			c1.4,0,2.8-0.6,3.8-1.6c2.1-2.1,2.1-5.5,0-7.6L96.6,89C95.6,88,94.2,87.4,92.8,87.4z"/>
	</g>
	<g>
		<g>
			<path fill="#37474F" d="M98.3,98.3c-0.5,0.5-1.4,0.5-1.9,0c-0.5-0.5-0.5-1.4,0-1.9c0.5-0.5,1.4-0.5,1.9,0
				C98.9,97,98.8,97.8,98.3,98.3z"/>
			<path fill="#37474F" d="M97.4,99.2c-0.5,0-0.9-0.2-1.3-0.5c-0.4-0.3-0.6-0.8-0.6-1.3c0-0.5,0.2-0.9,0.6-1.3
				c0.7-0.7,1.9-0.7,2.6,0c0.3,0.3,0.5,0.7,0.5,1.2c0,0.5-0.2,1-0.5,1.4C98.3,99,97.9,99.2,97.4,99.2z M97.4,96.6
				c-0.2,0-0.4,0.1-0.6,0.3c-0.2,0.2-0.3,0.4-0.3,0.6c0,0.2,0.1,0.4,0.3,0.6c0.3,0.3,0.9,0.3,1.2,0c0.2-0.2,0.2-0.4,0.2-0.6
				c0-0.2-0.1-0.4-0.2-0.5C97.8,96.7,97.6,96.6,97.4,96.6z"/>
		</g>
		<g>
			<path fill="#37474F" d="M104.9,104.9c-0.5,0.5-1.4,0.5-1.9,0c-0.5-0.5-0.5-1.4,0-1.9c0.5-0.5,1.4-0.5,1.9,0
				C105.4,103.5,105.4,104.4,104.9,104.9z"/>
			<path fill="#37474F" d="M104,105.8c-0.5,0-1-0.2-1.3-0.6c-0.7-0.7-0.7-1.8,0-2.6c0.7-0.7,1.9-0.7,2.6,0c0.7,0.7,0.7,1.9,0,2.6
				C104.9,105.6,104.5,105.8,104,105.8z M103.9,103.1c-0.2,0-0.4,0.1-0.6,0.2c-0.3,0.3-0.3,0.8,0,1.2c0.3,0.3,0.9,0.3,1.2,0
				c0.3-0.3,0.3-0.9,0-1.2C104.4,103.2,104.2,103.1,103.9,103.1z"/>
		</g>
		<g>
			<path fill="#37474F" d="M111.5,111.5c-0.5,0.5-1.4,0.5-1.9,0c-0.5-0.5-0.5-1.4,0-1.9c0.5-0.5,1.4-0.5,1.9,0
				C112,110.1,112,110.9,111.5,111.5z"/>
			<path fill="#37474F" d="M110.5,112.4c-0.5,0-1-0.2-1.3-0.5c-0.7-0.7-0.7-1.9,0-2.6c0.7-0.7,1.9-0.7,2.6,0
				c0.3,0.3,0.5,0.8,0.5,1.3c0,0.5-0.2,1-0.5,1.3C111.5,112.2,111,112.4,110.5,112.4z M110.5,109.7c-0.2,0-0.4,0.1-0.6,0.2
				c-0.3,0.3-0.3,0.8,0,1.2c0.3,0.3,0.9,0.3,1.2,0c0.2-0.2,0.3-0.4,0.3-0.6c0-0.2-0.1-0.4-0.2-0.6
				C110.9,109.8,110.7,109.7,110.5,109.7z"/>
		</g>
	</g>
	<g>
		<g>
			<path fill="#FFFFFF" d="M82.9,56.7c1.9-8.2-2-16.3-9-20.1c-3.6-7.4-10.2-13.1-18.8-15.1c-8.6-2-17.1,0.3-23.5,5.3
				c-8,0.4-15.1,5.9-17,14.1c-1.9,8.2,2,16.3,9,20.1c3.6,7.4,10.2,13.1,18.8,15.1c8.6,2,17.1-0.3,23.5-5.3
				C73.9,70.4,81,64.9,82.9,56.7z"/>
			<path fill="#37474F" d="M48.6,78.3C48.6,78.3,48.6,78.3,48.6,78.3c-2.2,0-4.4-0.3-6.6-0.8c-8.5-2-15.6-7.6-19.6-15.5
				c-7.5-4.4-11.3-13.2-9.3-21.6c1.9-8.4,9.3-14.6,17.9-15.2C38,20,47,18,55.4,20C63.9,22,71,27.6,75,35.5
				c7.5,4.4,11.3,13.2,9.3,21.5c-2,8.4-9.3,14.6-17.9,15.2C61.3,76.1,55,78.3,48.6,78.3z M48.8,22.2c-5.8,0-11.6,2-16.3,5.7
				c-0.2,0.2-0.5,0.3-0.8,0.3c-7.5,0.4-13.9,5.7-15.6,12.9c-1.7,7.3,1.7,14.9,8.3,18.5c0.3,0.1,0.5,0.4,0.6,0.7
				c3.6,7.3,10,12.5,17.8,14.3c1.9,0.5,3.9,0.7,5.9,0.7c0,0,0,0,0,0c5.8,0,11.6-2,16.3-5.7c0.2-0.2,0.5-0.3,0.9-0.3
				c7.5-0.4,13.9-5.7,15.6-12.9c1.7-7.2-1.7-14.8-8.3-18.5c-0.3-0.1-0.5-0.4-0.6-0.7c-3.5-7.3-10-12.5-17.8-14.3
				C52.8,22.4,50.8,22.2,48.8,22.2z"/>
		</g>
		<g>
			<path fill="#FFAB00" d="M60.6,51.5C59,58,52.5,62.1,46,60.6c-6.5-1.5-10.6-8-9.1-14.6c1.5-6.5,8-10.6,14.6-9.1
				C58,38.4,62.1,45,60.6,51.5z"/>
			<path fill="#37474F" d="M48.8,62.4c-1,0-2.1-0.1-3.1-0.4c-3.5-0.8-6.6-3-8.5-6.1c-1.9-3.1-2.5-6.7-1.7-10.3
				c1.5-6.2,6.9-10.6,13.3-10.6c1,0,2.1,0.1,3.1,0.4c3.6,0.8,6.6,3,8.5,6.1c1.9,3.1,2.5,6.8,1.7,10.3C60.6,58,55.1,62.4,48.8,62.4z
				 M48.7,38.1c-5,0-9.2,3.4-10.4,8.2c-0.6,2.8-0.2,5.6,1.3,8c1.5,2.4,3.9,4.1,6.6,4.7c0.8,0.2,1.6,0.3,2.4,0.3
				c5,0,9.2-3.4,10.3-8.2c0.6-2.8,0.2-5.6-1.3-8c-1.5-2.4-3.9-4.1-6.6-4.8C50.4,38.2,49.6,38.1,48.7,38.1z"/>
		</g>
		<g>
			<path fill="#FFECB3" d="M50.3,47.4c-0.7,2.8-3.5,4.6-6.3,3.9c-2.8-0.7-4.6-3.5-3.9-6.3c0.7-2.8,3.5-4.6,6.3-3.9
				C49.2,41.8,51,44.6,50.3,47.4z"/>
		</g>
		<g>
			<path fill="#FFECB3" d="M55.5,53.4c-0.3,1.1-1.3,1.7-2.4,1.5c-1.1-0.3-1.7-1.3-1.5-2.4c0.2-1,1.3-1.7,2.4-1.5
				C55.1,51.2,55.8,52.3,55.5,53.4z"/>
		</g>
	</g>
</g>
</svg>
