<svg width="40" height="40" viewBox="0 0 40 40" fill="none" xmlns="http://www.w3.org/2000/svg">
<path fill-rule="evenodd" clip-rule="evenodd" d="M27.89 16.23C24.33 17.65 15.56 23 10.3 26.57C5.44999 29.89 4.08999 28.36 3.90999 28.1C3.53242 27.2557 3.3652 26.3324 3.42268 25.4093C3.48015 24.4863 3.7606 23.5909 4.23999 22.8C8.58999 16.8 24.29 9.13995 30.86 8.79995C33.27 8.64995 35.14 9.40995 36.05 10.8C36.58 13.46 31.46 14.8 27.89 16.23Z" fill="#98DC1A" stroke="black" stroke-width="0.1" stroke-miterlimit="10"/>
<path fill-rule="evenodd" clip-rule="evenodd" d="M36.2699 14.85C33.9999 21.58 25.4099 22.7 19.2199 26C16.3599 27.51 13.5499 30.24 10.9399 30.9C9.01994 31.38 7.17994 31.9 4.93994 29.62C4.51073 29.1911 4.17084 28.6812 3.93994 28.12C4.11994 28.38 5.47994 29.91 10.3299 26.59C15.5899 23 24.3299 17.67 27.9199 16.25C31.5099 14.83 36.6099 13.48 36.0499 10.79C36.3903 11.4064 36.5869 12.0918 36.625 12.7948C36.6631 13.4979 36.5417 14.2005 36.2699 14.85Z" fill="#82B40C" stroke="black" stroke-width="0.1" stroke-miterlimit="10"/>
<path fill-rule="evenodd" clip-rule="evenodd" d="M9.73998 29.92C12.47 29.38 16.17 26.51 18.35 25.07C21.71 22.85 36.24 19.22 36 12.7C35.56 18.7 21.75 22.14 17.94 24.58C15.63 26.06 12.59 28.81 9.72998 29.92H9.73998Z" fill="#3F7C09" stroke="black" stroke-width="0.1" stroke-miterlimit="10"/>
<path fill-rule="evenodd" clip-rule="evenodd" d="M33.8599 14.52C33.9953 14.4725 34.1198 14.3985 34.2263 14.3024C34.3327 14.2062 34.419 14.0898 34.4799 13.96C34.3741 14.0965 34.232 14.2005 34.0699 14.26C33.9874 14.3049 33.8962 14.3313 33.8024 14.3375C33.7087 14.3437 33.6148 14.3295 33.5271 14.2959C33.4394 14.2623 33.36 14.2101 33.2944 14.1429C33.2288 14.0757 33.1785 13.9951 33.1471 13.9066C33.1156 13.8181 33.1037 13.7238 33.1122 13.6303C33.1207 13.5367 33.1493 13.4461 33.1961 13.3647C33.243 13.2833 33.3069 13.213 33.3835 13.1587C33.4601 13.1044 33.5476 13.0673 33.6399 13.05C33.7716 13.005 33.9113 12.988 34.0499 13C33.8105 12.9154 33.5493 12.9154 33.3099 13C33.0828 13.0634 32.8892 13.2124 32.7698 13.4158C32.6504 13.6191 32.6146 13.8608 32.6699 14.09C32.7755 14.3003 32.9584 14.4615 33.1803 14.5398C33.4022 14.6181 33.6458 14.6074 33.8599 14.51V14.52Z" fill="#3F7C09" stroke="black" stroke-width="0.1" stroke-miterlimit="10"/>
<path fill-rule="evenodd" clip-rule="evenodd" d="M29.0001 12.48C29.1386 12.4358 29.2659 12.3619 29.373 12.2635C29.4801 12.165 29.5644 12.0444 29.6201 11.91C29.5172 12.0495 29.3741 12.1542 29.2101 12.21C29.1277 12.2596 29.0353 12.2903 28.9396 12.2998C28.8439 12.3094 28.7472 12.2976 28.6566 12.2653C28.5661 12.233 28.4838 12.181 28.4157 12.113C28.3476 12.0451 28.2955 11.9629 28.2631 11.8723C28.2306 11.7818 28.2187 11.6852 28.2281 11.5894C28.2375 11.4937 28.268 11.4013 28.3175 11.3188C28.3669 11.2363 28.4341 11.1658 28.5141 11.1124C28.5941 11.059 28.6849 11.0241 28.7801 11.01C28.9146 10.9762 29.0555 10.9762 29.1901 11.01C28.9507 10.9254 28.6895 10.9254 28.4501 11.01C28.223 11.0734 28.0293 11.2224 27.9099 11.4258C27.7906 11.6291 27.7548 11.8708 27.8101 12.1C27.9156 12.3103 28.0986 12.4715 28.3204 12.5498C28.5423 12.6281 28.7859 12.6174 29.0001 12.52V12.48Z" fill="#3F7C09" stroke="black" stroke-width="0.1" stroke-miterlimit="10"/>
<path fill-rule="evenodd" clip-rule="evenodd" d="M27.5401 18.55C27.6769 18.5024 27.8025 18.4273 27.9091 18.3293C28.0158 18.2312 28.1012 18.1124 28.1601 17.98C28.0597 18.1219 27.9157 18.2272 27.7501 18.28C27.6677 18.3296 27.5753 18.3603 27.4796 18.3699C27.3839 18.3794 27.2873 18.3676 27.1967 18.3353C27.1061 18.303 27.0238 18.251 26.9557 18.183C26.8877 18.1151 26.8355 18.0329 26.8031 17.9423C26.7707 17.8518 26.7587 17.7552 26.7681 17.6595C26.7775 17.5638 26.8081 17.4713 26.8575 17.3888C26.907 17.3063 26.9741 17.2359 27.0541 17.1825C27.1341 17.1291 27.2249 17.0941 27.3201 17.08C27.4547 17.0462 27.5955 17.0462 27.7301 17.08C27.5029 16.9713 27.2455 16.9431 27.0001 17C26.7738 17.0612 26.5802 17.2083 26.4607 17.41C26.3412 17.6117 26.3051 17.8521 26.3601 18.08C26.4639 18.2921 26.6461 18.4555 26.8681 18.5357C27.0902 18.6159 27.3347 18.6067 27.5501 18.51L27.5401 18.55Z" fill="#3F7C09" stroke="black" stroke-width="0.1" stroke-miterlimit="10"/>
<path fill-rule="evenodd" clip-rule="evenodd" d="M22.1999 15.81C22.3376 15.7669 22.4642 15.6945 22.5712 15.5979C22.6782 15.5012 22.7631 15.3825 22.8199 15.25C22.7211 15.3892 22.5813 15.4941 22.4199 15.55C22.3371 15.596 22.2451 15.6232 22.1506 15.6299C22.056 15.6365 21.9612 15.6225 21.8726 15.5886C21.7841 15.5547 21.7041 15.5019 21.6381 15.4339C21.5722 15.3658 21.5219 15.2842 21.4908 15.1946C21.4597 15.1051 21.4486 15.0098 21.4582 14.9156C21.4678 14.8213 21.4979 14.7302 21.5464 14.6488C21.5949 14.5674 21.6607 14.4976 21.739 14.4442C21.8174 14.3909 21.9064 14.3553 21.9999 14.34C22.1345 14.3061 22.2754 14.3061 22.4099 14.34C22.1724 14.2454 21.9075 14.2454 21.6699 14.34C21.4444 14.3949 21.2488 14.5347 21.124 14.7304C20.9991 14.926 20.9547 15.1624 20.9999 15.39C21.1055 15.6003 21.2884 15.7615 21.5103 15.8398C21.7322 15.9181 21.9758 15.9074 22.1899 15.81H22.1999Z" fill="#3F7C09" stroke="black" stroke-width="0.1" stroke-miterlimit="10"/>
<path fill-rule="evenodd" clip-rule="evenodd" d="M20.5 22.05C20.6377 22.0068 20.7643 21.9345 20.8713 21.8378C20.9783 21.7412 21.0632 21.6225 21.12 21.49C21.0212 21.6292 20.8814 21.734 20.72 21.79C20.6379 21.8335 20.5474 21.8589 20.4546 21.8645C20.3618 21.8701 20.2689 21.8557 20.1822 21.8223C20.0954 21.7889 20.0169 21.7373 19.9517 21.671C19.8866 21.6047 19.8365 21.5252 19.8047 21.4378C19.773 21.3504 19.7603 21.2573 19.7676 21.1646C19.7749 21.072 19.802 20.9819 19.847 20.9006C19.8921 20.8193 19.954 20.7486 20.0287 20.6933C20.1034 20.638 20.1891 20.5993 20.28 20.58C20.4152 20.5516 20.5548 20.5516 20.69 20.58C20.4506 20.4953 20.1895 20.4953 19.95 20.58C19.7237 20.6411 19.5302 20.7882 19.4107 20.99C19.2911 21.1917 19.255 21.432 19.31 21.66C19.4156 21.8702 19.5985 22.0314 19.8204 22.1097C20.0423 22.188 20.2859 22.1774 20.5 22.08V22.05Z" fill="#3F7C09" stroke="black" stroke-width="0.1" stroke-miterlimit="10"/>
<path fill-rule="evenodd" clip-rule="evenodd" d="M15.1399 19.2C15.2775 19.1569 15.4042 19.0845 15.5112 18.9879C15.6182 18.8912 15.7031 18.7726 15.7599 18.64C15.6611 18.7792 15.5212 18.8841 15.3599 18.94C15.2778 18.9836 15.1873 19.009 15.0945 19.0146C15.0017 19.0201 14.9088 19.0058 14.8221 18.9724C14.7353 18.939 14.6567 18.8874 14.5916 18.8211C14.5265 18.7547 14.4764 18.6752 14.4446 18.5879C14.4129 18.5005 14.4002 18.4074 14.4075 18.3147C14.4148 18.222 14.4419 18.132 14.4869 18.0507C14.532 17.9694 14.5939 17.8987 14.6686 17.8434C14.7433 17.7881 14.829 17.7494 14.9199 17.73C15.0545 17.6962 15.1954 17.6962 15.3299 17.73C15.0923 17.6354 14.8275 17.6354 14.5899 17.73C14.3792 17.8012 14.2024 17.9479 14.0934 18.1418C13.9845 18.3357 13.9512 18.563 13.9999 18.78C14.1055 18.9903 14.2884 19.1515 14.5103 19.2298C14.7322 19.3081 14.9758 19.2974 15.1899 19.2H15.1399Z" fill="#3F7C09" stroke="black" stroke-width="0.1" stroke-miterlimit="10"/>
<path fill-rule="evenodd" clip-rule="evenodd" d="M8.53999 29.6399C8.67857 29.5957 8.80584 29.5218 8.91292 29.4234C9.02 29.3249 9.10432 29.2043 9.15999 29.0699C9.05905 29.2094 8.92023 29.317 8.75999 29.3799C8.67786 29.4235 8.58736 29.4489 8.49457 29.4545C8.40179 29.4601 8.30889 29.4457 8.22213 29.4123C8.13538 29.3789 8.0568 29.3273 7.99168 29.261C7.92657 29.1947 7.87644 29.1151 7.84467 29.0278C7.8129 28.9404 7.80024 28.8473 7.80754 28.7546C7.81484 28.662 7.84193 28.5719 7.88698 28.4906C7.93203 28.4093 7.99399 28.3386 8.06869 28.2833C8.14339 28.228 8.22908 28.1893 8.31999 28.1699C8.45036 28.1194 8.59129 28.1022 8.72999 28.1199C8.49403 28.0352 8.23594 28.0352 7.99999 28.1199C7.8788 28.1361 7.76276 28.1791 7.66036 28.2459C7.55796 28.3127 7.47179 28.4016 7.40816 28.506C7.34452 28.6103 7.30504 28.7276 7.29259 28.8493C7.28014 28.9709 7.29505 29.0938 7.33622 29.2089C7.37739 29.324 7.44377 29.4284 7.53052 29.5146C7.61727 29.6007 7.72219 29.6664 7.83759 29.7068C7.95299 29.7471 8.07595 29.7612 8.19749 29.7479C8.31902 29.7346 8.43604 29.6943 8.53999 29.6299V29.6399Z" fill="#3F7C09" stroke="black" stroke-width="0.1" stroke-miterlimit="10"/>
<path fill-rule="evenodd" clip-rule="evenodd" d="M5.72004 26.8201C5.85539 26.7726 5.97993 26.6986 6.08638 26.6024C6.19283 26.5063 6.27906 26.3899 6.34004 26.2601C6.23148 26.3937 6.09025 26.497 5.93004 26.5601C5.76005 26.635 5.56747 26.6403 5.39361 26.5749C5.21974 26.5094 5.07845 26.3785 5.00004 26.2101C4.95409 26.0298 4.98074 25.8387 5.07425 25.6779C5.16775 25.517 5.32064 25.3993 5.50004 25.3501C5.63031 25.2991 5.77134 25.2819 5.91004 25.3001C5.67063 25.2154 5.40944 25.2154 5.17004 25.3001C4.94293 25.3634 4.74929 25.5125 4.62991 25.7158C4.51053 25.9191 4.47472 26.1609 4.53004 26.3901C4.63562 26.6003 4.81854 26.7615 5.04041 26.8398C5.26228 26.9181 5.50586 26.9075 5.72004 26.8101V26.8201Z" fill="#3F7C09" stroke="black" stroke-width="0.1" stroke-miterlimit="10"/>
<path fill-rule="evenodd" clip-rule="evenodd" d="M14.6101 25.8801C14.7469 25.8324 14.8725 25.7573 14.9791 25.6593C15.0857 25.5612 15.1711 25.4424 15.2301 25.3101C15.1312 25.4493 14.9914 25.5541 14.8301 25.6101C14.748 25.6587 14.6562 25.6887 14.5612 25.6979C14.4662 25.7071 14.3704 25.6953 14.2805 25.6633C14.1906 25.6313 14.1089 25.5799 14.0411 25.5127C13.9733 25.4455 13.9211 25.3643 13.8883 25.2747C13.8555 25.1851 13.8427 25.0894 13.851 24.9943C13.8593 24.8993 13.8885 24.8072 13.9364 24.7247C13.9843 24.6422 14.0497 24.5712 14.1281 24.5168C14.2066 24.4624 14.296 24.426 14.3901 24.4101C14.5192 24.3548 14.6614 24.3375 14.8001 24.3601C14.5641 24.2753 14.306 24.2753 14.0701 24.3601C13.9489 24.3762 13.8328 24.4193 13.7304 24.486C13.628 24.5528 13.5419 24.6417 13.4782 24.7461C13.4146 24.8505 13.3751 24.9678 13.3627 25.0894C13.3502 25.211 13.3651 25.3339 13.4063 25.449C13.4475 25.5641 13.5138 25.6686 13.6006 25.7547C13.6873 25.8409 13.7923 25.9065 13.9077 25.9469C14.0231 25.9872 14.146 26.0013 14.2676 25.988C14.3891 25.9747 14.5061 25.9344 14.6101 25.8701V25.8801Z" fill="#3F7C09" stroke="black" stroke-width="0.1" stroke-miterlimit="10"/>
<path fill-rule="evenodd" clip-rule="evenodd" d="M9.19995 23.55C9.3366 23.5079 9.46265 23.4371 9.56961 23.3422C9.67656 23.2473 9.76193 23.1306 9.81995 23C9.7211 23.1392 9.58126 23.244 9.41995 23.3C9.33656 23.3387 9.24635 23.3607 9.15448 23.3646C9.06261 23.3685 8.97087 23.3542 8.8845 23.3226C8.79814 23.2911 8.71884 23.2428 8.65114 23.1805C8.58344 23.1183 8.52867 23.0434 8.48995 22.96C8.46283 22.868 8.4546 22.7716 8.46576 22.6764C8.47693 22.5812 8.50725 22.4892 8.55491 22.4061C8.60256 22.3229 8.66656 22.2502 8.74304 22.1925C8.81953 22.1347 8.90692 22.093 8.99995 22.07C9.13515 22.0416 9.27475 22.0416 9.40995 22.07C9.17054 21.9853 8.90935 21.9853 8.66995 22.07C8.44443 22.1248 8.24882 22.2647 8.12397 22.4603C7.99912 22.656 7.95469 22.8923 7.99995 23.12C8.10377 23.332 8.28594 23.4954 8.50798 23.5756C8.73003 23.6559 8.97456 23.6466 9.18995 23.55H9.19995Z" fill="#3F7C09" stroke="black" stroke-width="0.1" stroke-miterlimit="10"/>
<path fill-rule="evenodd" clip-rule="evenodd" d="M32.9999 9.59006C24.9999 9.41006 7.36994 18.8701 4.43994 24.2001C8.84994 18.5401 27.3499 9.68006 32.9999 9.59006Z" fill="#3F7C09" stroke="black" stroke-width="0.1" stroke-miterlimit="10"/>
<path fill-rule="evenodd" clip-rule="evenodd" d="M34.9299 11.24C27.9999 12.86 7.5499 25.26 6.1499 27.79C7.6599 26 27.3899 14.28 34.9299 11.24Z" fill="#3F7C09" stroke="black" stroke-width="0.1" stroke-miterlimit="10"/>
</svg>
