<?xml version="1.0" encoding="iso-8859-1"?>
<!-- Generator: Adobe Illustrator 21.1.0, SVG Export Plug-In . SVG Version: 6.00 Build 0)  -->
<svg version="1.1" id="Layer_1" xmlns="http://www.w3.org/2000/svg" xmlns:xlink="http://www.w3.org/1999/xlink" x="0px" y="0px"
	 viewBox="0 0 24 24" enable-background="new 0 0 24 24" xml:space="preserve">
<g>
	<path fill="#303C42" d="M23.9347401,12.2522497c-2.234314-3.9097023-5.956543-6.1668787-10.2297354-6.2382264
		c-1.6575928-1.4931679-4.9884644-1.9876556-5.1345215-2.0085292c-0.1748047-0.026366-0.3496094,0.0434556-0.4599609,0.1816339
		C8.0001707,4.3243299,7.9698968,4.5098696,8.0314207,4.6749024c0.2810669,0.7558913,0.6535645,1.8921394,0.7754517,2.5110731
		C7.1986566,7.8782101,5.7632928,8.7315712,4.9972405,9.3397627C3.6779048,8.3241768,0.8302485,7.0976615,0.697436,7.0410228
		C0.5197017,6.9643655,0.3146236,6.9975677,0.1700923,7.1254921C0.0245845,7.2529287-0.0340093,7.4521399,0.0197017,7.6376796
		c0.0097656,0.0346665,0.9804688,3.4500632,0.9804688,4.8626075s-0.9707032,4.8279409-0.9804688,4.862607
		c-0.0537109,0.1855392,0.0048828,0.3847504,0.1503906,0.512188c0.1445313,0.127924,0.3505859,0.1611252,0.5273438,0.0844688
		c0.1328125-0.0566387,2.9804688-1.2831535,4.2998047-2.2987404c0.3088379,0.2451687,0.7305298,0.5310459,1.2241821,0.8294964
		c-0.1259155,0.2361374-0.2212524,0.555521-0.2212524,1.0097885C6.0001702,18.7148933,7.1329827,20,8.2032957,20
		c1.3129272,0,1.8900146-0.3043098,2.6071167-1.4544735c0.9336548,0.2766628,1.859375,0.4545116,2.6897583,0.4545116
		c4.3603506,0,8.1640615-2.2787209,10.4345694-6.2517138C24.0216541,12.5945215,24.0216541,12.4060516,23.9347401,12.2522497z"/>
	<path fill="#FFCB29" d="M9.2618895,5.1533995c0.7669678,0.1680236,1.9205933,0.4837465,2.8646851,0.9850698
		c-0.7766724,0.1396432-1.5872803,0.377183-2.3820801,0.6724601C9.6276121,6.2884879,9.4344969,5.6618032,9.2618895,5.1533995z"/>
	<path fill="#F37021" d="M8.2032957,19.0000381c-0.4316411,0-1.2031255-0.7558308-1.2031255-1.4999428
		c0-0.2625027,0.0438232-0.4211864,0.0828857-0.5177422c0.8248291,0.4437714,1.773438,0.8836346,2.7468266,1.2397003
		C9.3326292,18.9542027,9.002368,19.0000381,8.2032957,19.0000381z"/>
	<linearGradient id="SVGID_1_" gradientUnits="userSpaceOnUse" x1="1.2570064" y1="12.5002871" x2="22.9210682" y2="12.5002871">
		<stop  offset="0" style="stop-color:#F37021"/>
		<stop  offset="0.1759274" style="stop-color:#F37321"/>
		<stop  offset="0.3545158" style="stop-color:#F47C22"/>
		<stop  offset="0.5343999" style="stop-color:#F68A23"/>
		<stop  offset="0.7151504" style="stop-color:#F99E24"/>
		<stop  offset="0.8949184" style="stop-color:#FDB927"/>
		<stop  offset="1" style="stop-color:#FFCB29"/>
	</linearGradient>
	<path fill="url(#SVGID_1_)" d="M13.5001707,18.0000763c-2.9101563,0-7.2841802-2.4911156-8.1464844-3.3533869
		c-0.0976563-0.0976524-0.2255859-0.1464796-0.3535156-0.1464796s-0.2558594,0.0488272-0.3535156,0.1464796
		c-0.5761719,0.5756617-2.2119138,1.4125433-3.3896482,1.9637918c0.3027344-1.1757364,0.7431641-3.0682421,0.7431641-4.1101942
		S1.5597408,9.5658283,1.2570064,8.3900919c1.1777344,0.5512486,2.8134763,1.3881311,3.3896482,1.9637928
		c0.1953125,0.1953049,0.5117188,0.1953049,0.7070313,0c0.8623047-0.8622723,5.2363286-3.3533878,8.1464844-3.3533878
		c3.9003897,0,7.3183584,2.000412,9.4208975,5.4997902C20.8185291,15.9996643,17.4005604,18.0000763,13.5001707,18.0000763z"/>
	<path opacity="0.1" fill="#010101" d="M13.5001707,16.9380493c-2.9101563,0-7.2841802-2.0100708-8.1464844-2.7058716
		c-0.0976563-0.0787964-0.2255859-0.1181641-0.3535156-0.1181641s-0.2558594,0.0393677-0.3535156,0.1181641
		c-0.5423584,0.4372559-2.0191038,1.0588379-3.1734006,1.5015259c-0.074585,0.3151245-0.1489258,0.6152954-0.2162476,0.87677
		c1.1777344-0.5512695,2.8134763-1.3881226,3.3896482-1.9638062c0.0976563-0.0976563,0.2255859-0.1464844,0.3535156-0.1464844
		s0.2558594,0.0488281,0.3535156,0.1464844c0.8623047,0.8623047,5.2363286,3.3533936,8.1464844,3.3533936
		c3.9003897,0,7.3183584-2.0004272,9.4208975-5.4998169C20.8185291,15.3239136,17.4005604,16.9380493,13.5001707,16.9380493z"/>
	<path opacity="0.2" fill="#FFFFFF" d="M13.5001707,7.0004883c-2.9101563,0-7.2841802,2.4910889-8.1464844,3.3533936
		c-0.1953125,0.1953125-0.5117188,0.1953125-0.7070313,0C4.0704827,9.7781982,2.4347408,8.9413452,1.2570064,8.3900757
		c0.0673218,0.2614746,0.1416626,0.5616455,0.2162476,0.87677c1.1542969,0.442688,2.6310422,1.06427,3.1734006,1.5014648
		c0.1953125,0.1575928,0.5117188,0.1575928,0.7070313,0C6.2159905,10.0725708,10.5900145,8.0625,13.5001707,8.0625
		c3.9003897,0,7.3183584,1.6141357,9.4208975,4.4377441C20.8185291,9.0009155,17.4005604,7.0004883,13.5001707,7.0004883z"/>
	<circle fill="#303C42" cx="19.0001698" cy="12" r="1"/>
	<path fill="#303C42" d="M14.5001707,13.5c0-1.3256836,0.9072266-2.7094727,0.9160156-2.7231445
		c0.1523438-0.2299805,0.0908203-0.5400391-0.1396484-0.6928711c-0.2275391-0.1518555-0.5390625-0.0913086-0.6923828,0.1386719
		C14.5402098,10.2890625,13.5001707,11.8671875,13.5001707,13.5s1.0400391,3.2109375,1.0839844,3.2773438
		C14.6808348,16.921875,14.8390379,17,15.0001707,17c0.0957031,0,0.1923828-0.0273438,0.2773438-0.0839844
		c0.2294922-0.1533203,0.2919922-0.4633789,0.1386719-0.6933594C15.4073973,16.2089844,14.5001707,14.8330078,14.5001707,13.5z"/>
	<linearGradient id="SVGID_2_" gradientUnits="userSpaceOnUse" x1="-0.2916476" y1="8.0152264" x2="21.4220295" y2="18.14048">
		<stop  offset="0" style="stop-color:#FFFFFF;stop-opacity:0.2"/>
		<stop  offset="1" style="stop-color:#FFFFFF;stop-opacity:0"/>
	</linearGradient>
	<path fill="url(#SVGID_2_)" d="M23.9347401,12.2522497c-2.234314-3.9097023-5.956543-6.1668787-10.2297354-6.2382264
		c-1.6575928-1.4931679-4.9884644-1.9876556-5.1345215-2.0085292c-0.1748047-0.026366-0.3496094,0.0434556-0.4599609,0.1816339
		C8.0001707,4.3243299,7.9698968,4.5098696,8.0314207,4.6749024c0.2810669,0.7558913,0.6535645,1.8921394,0.7754517,2.5110731
		C7.1986566,7.8782101,5.7632928,8.7315712,4.9972405,9.3397627C3.6779048,8.3241768,0.8302485,7.0976615,0.697436,7.0410228
		C0.5197017,6.9643655,0.3146236,6.9975677,0.1700923,7.1254921C0.0245845,7.2529287-0.0340093,7.4521399,0.0197017,7.6376796
		c0.0097656,0.0346665,0.9804688,3.4500632,0.9804688,4.8626075s-0.9707032,4.8279409-0.9804688,4.862607
		c-0.0537109,0.1855392,0.0048828,0.3847504,0.1503906,0.512188c0.1445313,0.127924,0.3505859,0.1611252,0.5273438,0.0844688
		c0.1328125-0.0566387,2.9804688-1.2831535,4.2998047-2.2987404c0.3088379,0.2451687,0.7305298,0.5310459,1.2241821,0.8294964
		c-0.1259155,0.2361374-0.2212524,0.555521-0.2212524,1.0097885C6.0001702,18.7148933,7.1329827,20,8.2032957,20
		c1.3129272,0,1.8900146-0.3043098,2.6071167-1.4544735c0.9336548,0.2766628,1.859375,0.4545116,2.6897583,0.4545116
		c4.3603506,0,8.1640615-2.2787209,10.4345694-6.2517138C24.0216541,12.5945215,24.0216541,12.4060516,23.9347401,12.2522497z"/>
</g>
<g>
</g>
<g>
</g>
<g>
</g>
<g>
</g>
<g>
</g>
<g>
</g>
<g>
</g>
<g>
</g>
<g>
</g>
<g>
</g>
<g>
</g>
<g>
</g>
<g>
</g>
<g>
</g>
<g>
</g>
</svg>
