<?xml version="1.0" encoding="UTF-8" standalone="no"?>
<svg
   xmlns:dc="http://purl.org/dc/elements/1.1/"
   xmlns:cc="http://creativecommons.org/ns#"
   xmlns:rdf="http://www.w3.org/1999/02/22-rdf-syntax-ns#"
   xmlns:svg="http://www.w3.org/2000/svg"
   xmlns="http://www.w3.org/2000/svg"
   xmlns:sodipodi="http://sodipodi.sourceforge.net/DTD/sodipodi-0.dtd"
   xmlns:inkscape="http://www.inkscape.org/namespaces/inkscape"
   width="64pt"
   height="64pt"
   viewBox="0 0 22.577778 22.577778"
   version="1.1"
   id="svg831"
   inkscape:version="1.0 (4035a4fb49, 2020-05-01)"
   sodipodi:docname="25 - Mushrooms.svg"
   inkscape:export-filename="E:\Project\27-3-2022\4 - Icon-Icons\016 - Vegetables\Send\4 - Filledline\25 - Mushrooms.png"
   inkscape:export-xdpi="576"
   inkscape:export-ydpi="576">
  <defs
     id="defs825">
    <pattern
       id="EMFhbasepattern"
       patternUnits="userSpaceOnUse"
       width="6"
       height="6"
       x="0"
       y="0" />
    <pattern
       id="EMFhbasepattern-9"
       patternUnits="userSpaceOnUse"
       width="6"
       height="6"
       x="0"
       y="0" />
    <pattern
       id="EMFhbasepattern-0"
       patternUnits="userSpaceOnUse"
       width="6"
       height="6"
       x="0"
       y="0" />
    <pattern
       id="EMFhbasepattern-7"
       patternUnits="userSpaceOnUse"
       width="6"
       height="6"
       x="0"
       y="0" />
    <pattern
       id="EMFhbasepattern-2"
       patternUnits="userSpaceOnUse"
       width="6"
       height="6"
       x="0"
       y="0" />
    <pattern
       id="EMFhbasepattern-98"
       patternUnits="userSpaceOnUse"
       width="6"
       height="6"
       x="0"
       y="0" />
    <pattern
       id="EMFhbasepattern-6"
       patternUnits="userSpaceOnUse"
       width="6"
       height="6"
       x="0"
       y="0" />
    <pattern
       id="EMFhbasepattern-01"
       patternUnits="userSpaceOnUse"
       width="6"
       height="6"
       x="0"
       y="0" />
    <pattern
       id="EMFhbasepattern-07"
       patternUnits="userSpaceOnUse"
       width="6"
       height="6"
       x="0"
       y="0" />
    <pattern
       id="EMFhbasepattern-8"
       patternUnits="userSpaceOnUse"
       width="6"
       height="6"
       x="0"
       y="0" />
    <pattern
       id="EMFhbasepattern-4"
       patternUnits="userSpaceOnUse"
       width="6"
       height="6"
       x="0"
       y="0" />
    <pattern
       id="EMFhbasepattern-40"
       patternUnits="userSpaceOnUse"
       width="6"
       height="6"
       x="0"
       y="0" />
    <pattern
       id="EMFhbasepattern-08"
       patternUnits="userSpaceOnUse"
       width="6"
       height="6"
       x="0"
       y="0" />
    <pattern
       id="EMFhbasepattern-04"
       patternUnits="userSpaceOnUse"
       width="6"
       height="6"
       x="0"
       y="0" />
    <pattern
       id="EMFhbasepattern-014"
       patternUnits="userSpaceOnUse"
       width="6"
       height="6"
       x="0"
       y="0" />
    <pattern
       id="EMFhbasepattern-27"
       patternUnits="userSpaceOnUse"
       width="6"
       height="6"
       x="0"
       y="0" />
    <pattern
       id="EMFhbasepattern-09"
       patternUnits="userSpaceOnUse"
       width="6"
       height="6"
       x="0"
       y="0" />
    <pattern
       id="EMFhbasepattern-5"
       patternUnits="userSpaceOnUse"
       width="6"
       height="6"
       x="0"
       y="0" />
    <pattern
       id="EMFhbasepattern-018"
       patternUnits="userSpaceOnUse"
       width="6"
       height="6"
       x="0"
       y="0" />
  </defs>
  <sodipodi:namedview
     id="base"
     pagecolor="#ffffff"
     bordercolor="#666666"
     borderopacity="1.0"
     inkscape:pageopacity="0.0"
     inkscape:pageshadow="2"
     inkscape:zoom="4.989546"
     inkscape:cx="42.666667"
     inkscape:cy="42.666667"
     inkscape:document-units="pt"
     inkscape:current-layer="layer1"
     showgrid="false"
     units="pt"
     inkscape:window-width="1366"
     inkscape:window-height="716"
     inkscape:window-x="-8"
     inkscape:window-y="-8"
     inkscape:window-maximized="1"
     inkscape:pagecheckerboard="true"
     inkscape:showpageshadow="false"
     inkscape:object-paths="true"
     inkscape:snap-intersection-paths="true"
     inkscape:snap-smooth-nodes="true"
     inkscape:snap-midpoints="true"
     showguides="false"
     inkscape:snap-bbox="true"
     inkscape:bbox-nodes="true"
     inkscape:snap-nodes="false"
     inkscape:snap-global="true"
     inkscape:document-rotation="0">
    <inkscape:grid
       type="xygrid"
       id="grid1378" />
    <sodipodi:guide
       position="0.97013831,21.607643"
       orientation="78.000048,0"
       id="guide1380"
       inkscape:locked="false" />
    <sodipodi:guide
       position="0.97013831,0.97013129"
       orientation="0,78.000005"
       id="guide1382"
       inkscape:locked="false" />
    <sodipodi:guide
       position="21.607639,0.97013129"
       orientation="-78.000048,0"
       id="guide1384"
       inkscape:locked="false" />
    <sodipodi:guide
       position="21.607639,21.607643"
       orientation="0,-78.000005"
       id="guide1386"
       inkscape:locked="false" />
  </sodipodi:namedview>
  <metadata
     id="metadata828">
    <rdf:RDF>
      <cc:Work
         rdf:about="">
        <dc:format>image/svg+xml</dc:format>
        <dc:type
           rdf:resource="http://purl.org/dc/dcmitype/StillImage" />
        <dc:title></dc:title>
      </cc:Work>
    </rdf:RDF>
  </metadata>
  <g
     inkscape:label="Icon"
     inkscape:groupmode="layer"
     id="layer1"
     transform="translate(0,-274.42223)">
    <g
       transform="matrix(1.2580842,0,0,1.2580842,77.386799,-192.4139)"
       style="display:inline;stroke-width:0.794859"
       id="g407">
      <g
         id="g1846"
         style="display:inline;stroke-width:0.794859">
        <path
           id="path1901"
           d="m -56.673828,377.97461 a 0.26460996,0.26460996 0 0 0 -0.25586,0.26367 v 1.41016 c -0.05953,1.10804 -0.252568,2.20499 -0.578124,3.26758 -0.05824,0.19148 -0.08984,0.39406 -0.08984,0.60351 0,1.14392 0.934159,2.07813 2.078125,2.07813 1.144185,0 2.078125,-0.93421 2.078125,-2.07813 0,-0.20969 -0.03221,-0.41254 -0.09375,-0.60547 l 0.002,0.002 c -0.397143,-1.29618 -0.599358,-2.644 -0.599609,-4 a 0.26460996,0.26460996 0 0 0 -0.189454,-0.25391 l -2.267578,-0.67773 a 0.26460996,0.26460996 0 0 0 -0.08398,-0.01 z"
           style="color:#000000;font-style:normal;font-variant:normal;font-weight:normal;font-stretch:normal;font-size:medium;line-height:normal;font-family:sans-serif;font-variant-ligatures:normal;font-variant-position:normal;font-variant-caps:normal;font-variant-numeric:normal;font-variant-alternates:normal;font-variant-east-asian:normal;font-feature-settings:normal;font-variation-settings:normal;text-indent:0;text-align:start;text-decoration:none;text-decoration-line:none;text-decoration-style:solid;text-decoration-color:#000000;letter-spacing:normal;word-spacing:normal;text-transform:none;writing-mode:lr-tb;direction:ltr;text-orientation:mixed;dominant-baseline:auto;baseline-shift:baseline;text-anchor:start;white-space:normal;shape-padding:0;shape-margin:0;inline-size:0;clip-rule:evenodd;display:inline;overflow:visible;visibility:visible;isolation:auto;mix-blend-mode:normal;color-interpolation:sRGB;color-interpolation-filters:linearRGB;solid-color:#000000;solid-opacity:1;vector-effect:none;fill:#ebc8b6;fill-opacity:1;fill-rule:evenodd;stroke:none;stroke-width:0.420613px;stroke-linecap:round;stroke-linejoin:round;stroke-miterlimit:1.5;stroke-dasharray:none;stroke-dashoffset:0;stroke-opacity:1;color-rendering:auto;image-rendering:auto;shape-rendering:auto;text-rendering:auto;enable-background:accumulate;stop-color:#000000" />
        <path
           id="path1787"
           style="color:#000000;font-style:normal;font-variant:normal;font-weight:normal;font-stretch:normal;font-size:medium;line-height:normal;font-family:sans-serif;font-variant-ligatures:normal;font-variant-position:normal;font-variant-caps:normal;font-variant-numeric:normal;font-variant-alternates:normal;font-variant-east-asian:normal;font-feature-settings:normal;font-variation-settings:normal;text-indent:0;text-align:start;text-decoration:none;text-decoration-line:none;text-decoration-style:solid;text-decoration-color:#000000;letter-spacing:normal;word-spacing:normal;text-transform:none;writing-mode:lr-tb;direction:ltr;text-orientation:mixed;dominant-baseline:auto;baseline-shift:baseline;text-anchor:start;white-space:normal;shape-padding:0;shape-margin:0;inline-size:0;clip-rule:evenodd;display:inline;overflow:visible;visibility:visible;isolation:auto;mix-blend-mode:normal;color-interpolation:sRGB;color-interpolation-filters:linearRGB;solid-color:#000000;solid-opacity:1;vector-effect:none;fill:#bd887f;fill-opacity:1;fill-rule:evenodd;stroke:none;stroke-width:0.420613px;stroke-linecap:round;stroke-linejoin:round;stroke-miterlimit:1.5;stroke-dasharray:none;stroke-dashoffset:0;stroke-opacity:1;color-rendering:auto;image-rendering:auto;shape-rendering:auto;text-rendering:auto;enable-background:accumulate;stop-color:#000000"
           d="m -56.674061,377.97438 a 0.26460996,0.26460996 0 0 0 -0.255799,0.26407 v 1.41025 c -0.0064,0.11907 -0.02048,0.23726 -0.02997,0.35605 0.450797,-0.0776 0.93331,-0.11369 1.440222,-0.11369 0.503637,0 0.983163,0.036 1.431438,0.11265 -0.02895,-0.36144 -0.04438,-0.72432 -0.04444,-1.08778 a 0.26460996,0.26460996 0 0 0 -0.189653,-0.25374 l -2.267561,-0.67799 a 0.26460996,0.26460996 0 0 0 -0.08372,-0.01 z" />
        <path
           id="path1907"
           d="m -55.523438,373.17383 c -1.333964,0.0169 -2.635386,0.46316 -3.609374,1.33008 -0.973989,0.86691 -1.6081,2.16002 -1.607422,3.80664 a 0.26460996,0.26460996 0 0 0 0,0.006 c 0.01633,0.6031 0.312918,1.10485 0.779296,1.36132 0.466223,0.25618 1.0345,0.246 1.492188,-0.0254 l -0.002,0.002 c 0.78599,-0.45658 1.811707,-0.62696 2.951172,-0.62696 1.139464,0 2.164856,0.17104 2.951172,0.62696 0.174288,0.10299 0.364154,0.16676 0.558593,0.19336 a 0.26460996,0.26460996 0 0 0 0.0918,-0.004 l 1.550781,-0.32422 a 0.26460996,0.26460996 0 0 0 0.208985,-0.29101 l -0.246094,-2.01563 a 0.26460996,0.26460996 0 0 0 -0.0039,-0.0234 c -0.495228,-2.29717 -2.601562,-4.01562 -5.111328,-4.01562 a 0.26460996,0.26460996 0 0 0 -0.0039,0 z"
           style="color:#000000;font-style:normal;font-variant:normal;font-weight:normal;font-stretch:normal;font-size:medium;line-height:normal;font-family:sans-serif;font-variant-ligatures:normal;font-variant-position:normal;font-variant-caps:normal;font-variant-numeric:normal;font-variant-alternates:normal;font-variant-east-asian:normal;font-feature-settings:normal;font-variation-settings:normal;text-indent:0;text-align:start;text-decoration:none;text-decoration-line:none;text-decoration-style:solid;text-decoration-color:#000000;letter-spacing:normal;word-spacing:normal;text-transform:none;writing-mode:lr-tb;direction:ltr;text-orientation:mixed;dominant-baseline:auto;baseline-shift:baseline;text-anchor:start;white-space:normal;shape-padding:0;shape-margin:0;inline-size:0;clip-rule:evenodd;display:inline;overflow:visible;visibility:visible;isolation:auto;mix-blend-mode:normal;color-interpolation:sRGB;color-interpolation-filters:linearRGB;solid-color:#000000;solid-opacity:1;vector-effect:none;fill:#9a605a;fill-opacity:1;fill-rule:evenodd;stroke:none;stroke-width:0.420613px;stroke-linecap:round;stroke-linejoin:round;stroke-miterlimit:1.5;stroke-dasharray:none;stroke-dashoffset:0;stroke-opacity:1;color-rendering:auto;image-rendering:auto;shape-rendering:auto;text-rendering:auto;enable-background:accumulate;stop-color:#000000" />
        <path
           id="path1774"
           style="color:#000000;font-style:normal;font-variant:normal;font-weight:normal;font-stretch:normal;font-size:medium;line-height:normal;font-family:sans-serif;font-variant-ligatures:normal;font-variant-position:normal;font-variant-caps:normal;font-variant-numeric:normal;font-variant-alternates:normal;font-variant-east-asian:normal;font-feature-settings:normal;font-variation-settings:normal;text-indent:0;text-align:start;text-decoration:none;text-decoration-line:none;text-decoration-style:solid;text-decoration-color:#000000;letter-spacing:normal;word-spacing:normal;text-transform:none;writing-mode:lr-tb;direction:ltr;text-orientation:mixed;dominant-baseline:auto;baseline-shift:baseline;text-anchor:start;white-space:normal;shape-padding:0;shape-margin:0;inline-size:0;clip-rule:evenodd;display:inline;overflow:visible;visibility:visible;isolation:auto;mix-blend-mode:normal;color-interpolation:sRGB;color-interpolation-filters:linearRGB;solid-color:#000000;solid-opacity:1;vector-effect:none;fill:#66342d;fill-opacity:1;fill-rule:evenodd;stroke:none;stroke-width:0.420613px;stroke-linecap:round;stroke-linejoin:round;stroke-miterlimit:1.5;stroke-dasharray:none;stroke-dashoffset:0;stroke-opacity:1;color-rendering:auto;image-rendering:auto;shape-rendering:auto;text-rendering:auto;enable-background:accumulate;stop-color:#000000"
           d="m -50.444467,377.05196 c -0.762061,0.28413 -1.461257,0.76061 -2.010731,1.42678 -0.03779,0.0457 -0.0651,0.0837 -0.08992,0.11524 a 0.71086548,0.71086548 0 0 0 -0.0078,0.008 c -7.94e-4,8e-4 -0.0013,0.003 -0.0021,0.004 a 0.71086548,0.71086548 0 0 0 -0.0078,0.008 c -0.197265,0.25442 -0.32226,0.5491 -0.378788,0.85576 0.12895,0.0562 0.25459,0.11629 0.373105,0.18501 0.174286,0.10299 0.364183,0.16667 0.55862,0.19327 a 0.26460996,0.26460996 0 0 0 0.09199,-0.004 l 1.550294,-0.32453 a 0.26460996,0.26460996 0 0 0 0.209288,-0.29093 l -0.24598,-2.01539 a 0.26460996,0.26460996 0 0 0 -0.0041,-0.0238 c -0.01003,-0.0466 -0.02482,-0.0914 -0.03617,-0.13746 z" />
        <path
           id="path1781"
           style="color:#000000;font-style:normal;font-variant:normal;font-weight:normal;font-stretch:normal;font-size:medium;line-height:normal;font-family:sans-serif;font-variant-ligatures:normal;font-variant-position:normal;font-variant-caps:normal;font-variant-numeric:normal;font-variant-alternates:normal;font-variant-east-asian:normal;font-feature-settings:normal;font-variation-settings:normal;text-indent:0;text-align:start;text-decoration:none;text-decoration-line:none;text-decoration-style:solid;text-decoration-color:#000000;letter-spacing:normal;word-spacing:normal;text-transform:none;writing-mode:lr-tb;direction:ltr;text-orientation:mixed;dominant-baseline:auto;baseline-shift:baseline;text-anchor:start;white-space:normal;shape-padding:0;shape-margin:0;inline-size:0;clip-rule:evenodd;display:inline;overflow:visible;visibility:visible;isolation:auto;mix-blend-mode:normal;color-interpolation:sRGB;color-interpolation-filters:linearRGB;solid-color:#000000;solid-opacity:1;vector-effect:none;fill:#66342d;fill-opacity:1;fill-rule:evenodd;stroke:none;stroke-width:0.420613px;stroke-linecap:round;stroke-linejoin:round;stroke-miterlimit:1.5;stroke-dasharray:none;stroke-dashoffset:0;stroke-opacity:1;color-rendering:auto;image-rendering:auto;shape-rendering:auto;text-rendering:auto;enable-background:accumulate;stop-color:#000000"
           d="m -55.523227,373.17364 c -1.333965,0.0169 -2.635612,0.46323 -3.609599,1.33015 -0.569524,0.50691 -1.021517,1.16076 -1.299663,1.94459 0.221883,-0.33157 0.48064,-0.62826 0.770496,-0.88626 0.973987,-0.86691 2.275634,-1.31325 3.6096,-1.33015 v 5.3e-4 a 0.26460996,0.26460996 0 0 1 0.0036,0 c 2.509767,0 4.616088,1.71809 5.111317,4.01526 a 0.26460996,0.26460996 0 0 1 0.0041,0.0238 l 0.162782,1.33221 0.403077,-0.0842 a 0.26460996,0.26460996 0 0 0 0.209288,-0.29093 l -0.24598,-2.01539 a 0.26460996,0.26460996 0 0 0 -0.0041,-0.0238 c -0.495228,-2.29717 -2.60155,-4.01526 -5.111316,-4.01526 a 0.26460996,0.26460996 0 0 0 -0.0036,0 z" />
        <path
           id="path1913"
           d="m -49.049735,377.61543 c -1.046899,0.0822 -2.04806,0.56079 -2.756735,1.41997 -0.03096,0.0375 -0.06052,0.0757 -0.08887,0.11156 a 0.2561614,0.2561614 0 0 0 -0.0019,0.002 c -0.267529,0.34504 -0.332958,0.80645 -0.172059,1.21198 0.161069,0.40517 0.52423,0.69616 0.954836,0.76387 0.151292,0.0253 0.304453,0.0195 0.459455,0.008 0.15298,0.009 0.285386,0.10521 0.342229,0.24769 0.05687,0.1427 0.02768,0.30396 -0.07752,0.41596 a 0.2561614,0.2561614 0 0 0 -0.0019,0 c -0.609807,0.65665 -1.31047,1.326 -1.90211,1.71682 -0.142217,0.0943 -0.271989,0.20959 -0.385716,0.34791 -0.620439,0.75221 -0.514188,1.87514 0.238236,2.4958 0.752268,0.6205 1.875354,0.51211 2.49581,-0.24013 0.113041,-0.1372 0.202302,-0.2885 0.266598,-0.44811 l 0.0019,-0.002 c 0.284332,-0.68643 0.770271,-1.57275 1.274376,-2.33509 0.08425,-0.12432 0.231194,-0.19012 0.380043,-0.16828 0.148506,0.0219 0.270621,0.12684 0.315758,0.27038 0.04205,0.21944 0.07978,0.43398 0.149371,0.62206 0.148127,0.41032 0.503416,0.71132 0.932146,0.79224 0.428639,0.0813 0.86772,-0.0708 1.155258,-0.39896 0.03114,-0.035 0.06317,-0.0715 0.09454,-0.10966 0.650224,-0.78848 0.941135,-1.76062 0.892441,-2.72081 -0.05743,-1.13244 -0.585536,-2.25084 -1.542864,-3.04036 -0.884399,-0.72933 -1.976434,-1.04457 -3.023333,-0.9624 z"
           style="color:#000000;font-style:normal;font-variant:normal;font-weight:normal;font-stretch:normal;font-size:medium;line-height:normal;font-family:sans-serif;font-variant-ligatures:normal;font-variant-position:normal;font-variant-caps:normal;font-variant-numeric:normal;font-variant-alternates:normal;font-variant-east-asian:normal;font-feature-settings:normal;font-variation-settings:normal;text-indent:0;text-align:start;text-decoration:none;text-decoration-line:none;text-decoration-style:solid;text-decoration-color:#000000;letter-spacing:normal;word-spacing:normal;text-transform:none;writing-mode:lr-tb;direction:ltr;text-orientation:mixed;dominant-baseline:auto;baseline-shift:baseline;text-anchor:start;white-space:normal;shape-padding:0;shape-margin:0;inline-size:0;clip-rule:evenodd;display:inline;overflow:visible;visibility:visible;isolation:auto;mix-blend-mode:normal;color-interpolation:sRGB;color-interpolation-filters:linearRGB;solid-color:#000000;solid-opacity:1;vector-effect:none;fill:#bd887f;fill-opacity:1;fill-rule:evenodd;stroke:none;stroke-width:0.420613px;stroke-linecap:round;stroke-linejoin:round;stroke-miterlimit:1.5;stroke-dasharray:none;stroke-dashoffset:0;stroke-opacity:1;color-rendering:auto;image-rendering:auto;shape-rendering:auto;text-rendering:auto;enable-background:accumulate;stop-color:#000000" />
        <path
           style="color:#000000;font-style:normal;font-variant:normal;font-weight:normal;font-stretch:normal;font-size:medium;line-height:normal;font-family:sans-serif;font-variant-ligatures:normal;font-variant-position:normal;font-variant-caps:normal;font-variant-numeric:normal;font-variant-alternates:normal;font-variant-east-asian:normal;font-feature-settings:normal;font-variation-settings:normal;text-indent:0;text-align:start;text-decoration:none;text-decoration-line:none;text-decoration-style:solid;text-decoration-color:#000000;letter-spacing:normal;word-spacing:normal;text-transform:none;writing-mode:lr-tb;direction:ltr;text-orientation:mixed;dominant-baseline:auto;baseline-shift:baseline;text-anchor:start;white-space:normal;shape-padding:0;shape-margin:0;inline-size:0;clip-rule:evenodd;display:inline;overflow:visible;visibility:visible;isolation:auto;mix-blend-mode:normal;color-interpolation:sRGB;color-interpolation-filters:linearRGB;solid-color:#000000;solid-opacity:1;vector-effect:none;fill:#d0ad9b;fill-opacity:1;fill-rule:evenodd;stroke:none;stroke-width:0.420613px;stroke-linecap:round;stroke-linejoin:round;stroke-miterlimit:1.5;stroke-dasharray:none;stroke-dashoffset:0;stroke-opacity:1;color-rendering:auto;image-rendering:auto;shape-rendering:auto;text-rendering:auto;enable-background:accumulate;stop-color:#000000"
           d="m -58.662109,376.67969 c -0.425839,0 -0.775398,0.3515 -0.775391,0.77734 10e-7,0.42583 0.349558,0.77734 0.775391,0.77735 0.425833,0 0.777342,-0.35152 0.777343,-0.77735 7e-6,-0.42584 -0.351504,-0.77734 -0.777343,-0.77734 z"
           id="path1748" />
        <path
           style="color:#000000;font-style:normal;font-variant:normal;font-weight:normal;font-stretch:normal;font-size:medium;line-height:normal;font-family:sans-serif;font-variant-ligatures:normal;font-variant-position:normal;font-variant-caps:normal;font-variant-numeric:normal;font-variant-alternates:normal;font-variant-east-asian:normal;font-feature-settings:normal;font-variation-settings:normal;text-indent:0;text-align:start;text-decoration:none;text-decoration-line:none;text-decoration-style:solid;text-decoration-color:#000000;letter-spacing:normal;word-spacing:normal;text-transform:none;writing-mode:lr-tb;direction:ltr;text-orientation:mixed;dominant-baseline:auto;baseline-shift:baseline;text-anchor:start;white-space:normal;shape-padding:0;shape-margin:0;inline-size:0;clip-rule:evenodd;display:inline;overflow:visible;visibility:visible;isolation:auto;mix-blend-mode:normal;color-interpolation:sRGB;color-interpolation-filters:linearRGB;solid-color:#000000;solid-opacity:1;vector-effect:none;fill:#d0ad9b;fill-opacity:1;fill-rule:evenodd;stroke:none;stroke-width:0.420613px;stroke-linecap:round;stroke-linejoin:round;stroke-miterlimit:1.5;stroke-dasharray:none;stroke-dashoffset:0;stroke-opacity:1;color-rendering:auto;image-rendering:auto;shape-rendering:auto;text-rendering:auto;enable-background:accumulate;stop-color:#000000"
           d="m -56.083984,376.39453 c -0.425835,0 -0.777343,0.35151 -0.777344,0.77735 -8e-6,0.42584 0.351507,0.77734 0.777344,0.77734 0.425836,0 0.777351,-0.3515 0.777343,-0.77734 -10e-7,-0.42584 -0.351509,-0.77735 -0.777343,-0.77735 z"
           id="path1742" />
        <path
           style="color:#000000;font-style:normal;font-variant:normal;font-weight:normal;font-stretch:normal;font-size:medium;line-height:normal;font-family:sans-serif;font-variant-ligatures:normal;font-variant-position:normal;font-variant-caps:normal;font-variant-numeric:normal;font-variant-alternates:normal;font-variant-east-asian:normal;font-feature-settings:normal;font-variation-settings:normal;text-indent:0;text-align:start;text-decoration:none;text-decoration-line:none;text-decoration-style:solid;text-decoration-color:#000000;letter-spacing:normal;word-spacing:normal;text-transform:none;writing-mode:lr-tb;direction:ltr;text-orientation:mixed;dominant-baseline:auto;baseline-shift:baseline;text-anchor:start;white-space:normal;shape-padding:0;shape-margin:0;inline-size:0;clip-rule:evenodd;display:inline;overflow:visible;visibility:visible;isolation:auto;mix-blend-mode:normal;color-interpolation:sRGB;color-interpolation-filters:linearRGB;solid-color:#000000;solid-opacity:1;vector-effect:none;fill:#d0ad9b;fill-opacity:1;fill-rule:evenodd;stroke:none;stroke-width:0.420613px;stroke-linecap:round;stroke-linejoin:round;stroke-miterlimit:1.5;stroke-dasharray:none;stroke-dashoffset:0;stroke-opacity:1;color-rendering:auto;image-rendering:auto;shape-rendering:auto;text-rendering:auto;enable-background:accumulate;stop-color:#000000"
           d="m -57.636719,374.90234 c -0.425838,0 -0.777351,0.35151 -0.777343,0.77735 1e-6,0.42583 0.35151,0.77539 0.777343,0.77539 0.425834,0 0.777343,-0.34956 0.777344,-0.77539 7e-6,-0.42584 -0.351505,-0.77735 -0.777344,-0.77735 z"
           id="path1736" />
        <path
           id="path1802"
           style="color:#000000;font-style:normal;font-variant:normal;font-weight:normal;font-stretch:normal;font-size:medium;line-height:normal;font-family:sans-serif;font-variant-ligatures:normal;font-variant-position:normal;font-variant-caps:normal;font-variant-numeric:normal;font-variant-alternates:normal;font-variant-east-asian:normal;font-feature-settings:normal;font-variation-settings:normal;text-indent:0;text-align:start;text-decoration:none;text-decoration-line:none;text-decoration-style:solid;text-decoration-color:#000000;letter-spacing:normal;word-spacing:normal;text-transform:none;writing-mode:lr-tb;direction:ltr;text-orientation:mixed;dominant-baseline:auto;baseline-shift:baseline;text-anchor:start;white-space:normal;shape-padding:0;shape-margin:0;inline-size:0;clip-rule:evenodd;display:inline;overflow:visible;visibility:visible;isolation:auto;mix-blend-mode:normal;color-interpolation:sRGB;color-interpolation-filters:linearRGB;solid-color:#000000;solid-opacity:1;vector-effect:none;fill:#9a605a;fill-opacity:1;fill-rule:evenodd;stroke:none;stroke-width:0.420613px;stroke-linecap:round;stroke-linejoin:round;stroke-miterlimit:1.5;stroke-dasharray:none;stroke-dashoffset:0;stroke-opacity:1;color-rendering:auto;image-rendering:auto;shape-rendering:auto;text-rendering:auto;enable-background:accumulate;stop-color:#000000"
           d="m -45.248336,384.42019 c 0.6604,-0.79905 0.955895,-1.78384 0.906438,-2.7569 -0.05832,-1.14762 -0.59465,-2.28126 -1.56696,-3.08137 -0.785961,-0.64671 -1.733146,-0.97211 -2.670037,-0.98757 h -1.1e-5 c -0.133842,-0.002 -0.267467,0.002 -0.400378,0.0122 -0.717889,0.0562 -1.41212,0.29982 -2.010528,0.71736 0.314215,-0.10317 0.639201,-0.17231 0.969951,-0.19822 1.063282,-0.0833 2.172173,0.23629 3.070415,0.9754 0.972311,0.80011 1.508637,1.93375 1.566962,3.08137 0.04946,0.97306 -0.24604,1.95785 -0.90644,2.7569 z"
           sodipodi:nodetypes="cscssccccscc" />
        <path
           id="path1829"
           style="fill:#9a605a;fill-opacity:1;stroke:none;stroke-width:1.58972;stroke-linecap:round;stroke-linejoin:round;stroke-miterlimit:1.5;stroke-opacity:0;paint-order:markers fill stroke;stop-color:#000000"
           d="m -182.30078,388.62891 c -0.71917,-0.0377 -1.65379,0.34519 -2.84961,1.54101 -3.82664,3.82666 -6.91667,9.27259 -11.33203,9.86133 -1.21509,0.16201 -2.26916,0.62884 -3.16602,1.21484 0.28882,0.35961 0.61724,0.69555 0.98633,1 2.93699,2.42253 7.32177,1.99939 9.74414,-0.9375 0.44133,-0.53567 0.78999,-1.12687 1.04102,-1.75 l 0.008,-0.006 c 1.11008,-2.67995 3.00649,-6.14084 4.97461,-9.11718 0.32893,-0.48537 0.90324,-0.74347 1.48437,-0.65821 0.5798,0.0854 1.0562,0.49625 1.23243,1.05664 0,0 -0.54088,-2.12206 -2.12305,-2.20507 z"
           transform="matrix(0.26458334,0,0,0.26458334,0,280.06666)" />
      </g>
      <path
         transform="matrix(0.26458334,0,0,0.26458334,0,280.06666)"
         d="m -209.85156,351.90039 c -5.04176,0.0639 -9.96137,1.7508 -13.64258,5.02734 -3.68122,3.27651 -6.07874,8.16523 -6.07617,14.38868 -9e-5,0.008 -9e-5,0.0139 0,0.0215 0.0617,2.27943 1.18457,4.1752 2.94726,5.14453 1.76211,0.96824 3.90883,0.93006 5.63867,-0.0957 l -0.008,0.008 c 2.97067,-1.72566 6.84766,-2.36914 11.1543,-2.36914 1.11599,0 2.20208,0.0444 3.25195,0.13867 0.0547,5.13381 0.83934,10.23061 2.34375,15.14063 -4e-5,0.004 -4e-5,0.0118 0,0.0156 0.16812,0.52698 0.25781,1.09025 0.25781,1.6836 0,3.2409 -2.61167,5.86132 -5.85351,5.86132 -3.24073,0 -5.85352,-2.62042 -5.85352,-5.86132 0,-0.59426 0.0869,-1.16291 0.25,-1.69922 1.27811,-4.17162 2.04167,-8.47797 2.27539,-12.82813 0.0272,-0.54996 -0.39547,-1.01916 -0.94531,-1.04883 -0.55277,-0.0302 -1.02702,0.39245 -1.05664,0.94532 -0.22499,4.18786 -0.95314,8.33352 -2.18359,12.34961 -0.22012,0.7237 -0.33985,1.48962 -0.33985,2.28125 0,4.32347 3.52987,7.85351 7.85352,7.85351 4.32448,0 7.85547,-3.53004 7.85547,-7.85351 0,-0.79253 -0.12288,-1.55988 -0.35547,-2.28907 l 0.008,0.008 c -1.42073,-4.63695 -2.17189,-9.44951 -2.25,-14.29688 2.19926,0.36185 4.19885,0.98443 5.89649,1.96875 0.36525,0.21584 0.75016,0.38181 1.14453,0.50781 -0.0216,0.65167 0.084,1.31052 0.33203,1.93555 0.62884,1.58185 2.0454,2.71808 3.72656,2.98242 1.29389,0.0302 2.32267,0.0706 3.13086,0.9961 0.22201,0.5571 0.10799,1.1877 -0.30273,1.625 -2.80101,2.76461 -6.29757,5.38188 -8.93946,8.06054 -2.4223,2.93677 -2.00791,7.32098 0.92969,9.74414 2.93699,2.42253 7.32177,1.99939 9.74414,-0.9375 0.44133,-0.53567 0.79012,-1.12699 1.04492,-1.7539 1.40265,-2.63562 3.32814,-6.08985 4.97852,-9.11914 0.32893,-0.48537 0.90324,-0.74347 1.48437,-0.65821 0.5798,0.0854 1.0562,0.49625 1.23243,1.05664 0.16418,0.85675 0.31228,1.69341 0.58398,2.42774 0.57832,1.60195 1.96483,2.77786 3.63867,3.09375 2.2212,0.034 3.65092,-0.6172 4.87891,-1.98633 2.53859,-3.07839 3.67448,-6.87233 3.48437,-10.62109 -0.2242,-4.42126 -2.28585,-8.78867 -6.02343,-11.8711 -3.45286,-2.84746 -7.71555,-4.07828 -11.80274,-3.75781 -4.20811,0.28006 -8.53703,2.93043 -11.11719,5.98633 -0.20612,0.26585 -0.37363,0.55354 -0.51757,0.84961 -0.21221,-0.0773 -0.42052,-0.16937 -0.61915,-0.28711 -0.003,-0.003 -0.005,-0.004 -0.008,-0.008 -3.43111,-1.9894 -7.65586,-2.63477 -12.1582,-2.63477 -4.50235,0 -8.7278,0.64986 -12.1582,2.64258 h -0.008 c -1.12325,0.66599 -2.51496,0.68792 -3.66015,0.0586 -1.14273,-0.62842 -1.86427,-1.75064 -1.91211,-3.43359 -8e-5,-0.003 7e-5,-0.002 0,-0.006 0.004,-5.70372 2.14138,-9.95778 5.41015,-12.86719 3.27168,-2.91201 7.71948,-4.4576 12.32813,-4.51758 8.57355,0 15.70063,5.85806 17.36914,13.59766 0.11596,0.54036 0.64921,0.88406 1.18945,0.76758 0.53737,-0.11943 0.87664,-0.65155 0.75977,-1.18946 -1.87173,-8.68221 -9.83263,-15.17578 -19.31836,-15.17578 -0.005,-3e-5 -0.0107,-3e-5 -0.0156,0 z m -7.98828,6.5332 c -1.60947,0 -2.93753,1.32998 -2.9375,2.93946 0,1.60943 1.32805,2.92968 2.9375,2.92968 1.60945,0 2.93749,-1.32025 2.9375,-2.92968 2e-5,-1.60948 -1.32803,-2.93946 -2.9375,-2.93946 z m 0,2 c 0.52857,0 0.9375,0.41085 0.9375,0.93946 0,0.52856 -0.40893,0.92968 -0.9375,0.92968 -0.52857,0 -0.9375,-0.40112 -0.9375,-0.92968 -1e-5,-0.52861 0.40892,-0.93946 0.9375,-0.93946 z m 5.86914,3.64063 c -1.60946,0 -2.9375,1.32802 -2.9375,2.9375 -3e-5,1.60947 1.32803,2.9375 2.9375,2.9375 1.60946,0 2.93753,-1.32803 2.9375,-2.9375 -1e-5,-1.60948 -1.32805,-2.9375 -2.9375,-2.9375 z m -9.74414,1.07812 c -1.60947,0 -2.93167,1.32803 -2.93164,2.9375 0,1.60944 1.32219,2.93747 2.93164,2.9375 1.60944,0 2.93749,-1.32806 2.9375,-2.9375 2e-5,-1.60947 -1.32803,-2.9375 -2.9375,-2.9375 z m 9.74414,0.92188 c 0.52856,0 0.9375,0.40893 0.9375,0.9375 1e-5,0.52857 -0.40892,0.9375 -0.9375,0.9375 -0.52859,0 -0.93751,-0.40893 -0.9375,-0.9375 0,-0.52857 0.40893,-0.9375 0.9375,-0.9375 z m -9.73633,1.07812 c 0.52858,0 0.92969,0.40894 0.92969,0.9375 -1e-5,0.52857 -0.40112,0.9375 -0.92969,0.9375 -0.52857,0 -0.9375,-0.40893 -0.9375,-0.9375 -1e-5,-0.52856 0.40892,-0.9375 0.9375,-0.9375 z m 37.81055,2.9043 c 3.14904,0.0555 6.33529,1.16255 9.0039,3.36328 3.30145,2.7227 5.10457,6.55251 5.30078,10.42188 0.16638,3.28078 -0.8142,6.57646 -3.02539,9.25781 -0.70737,0.90561 -2.01134,1.29101 -2.96875,1.29101 -0.98182,-0.18519 -1.78584,-0.86911 -2.125,-1.80859 l -0.5625,-2.34765 c -0.40446,-1.28618 -1.51508,-2.23853 -2.84961,-2.43555 -1.33513,-0.19578 -2.66687,0.39671 -3.42383,1.51367 l -5.17968,9.49023 c -0.1756,0.43223 -0.41925,0.84501 -0.73438,1.22852 -1.73339,2.10157 -4.82241,2.40517 -6.92383,0.67187 -2.10274,-1.73453 -2.24713,-4.63276 -0.51367,-6.73437 2.47097,-2.99826 6.2639,-5.55242 8.69922,-8.16211 0.97215,-0.97213 1.14966,-2.63349 0.47656,-3.95508 -1.44299,-1.70029 -2.66373,-1.88787 -4.43554,-2.00976 -0.99111,-0.15383 -1.82028,-0.81356 -2.18946,-1.74219 -0.36865,-0.92916 -0.22175,-1.97777 0.39063,-2.76758 2.67956,-2.87361 6.45237,-4.93209 9.71484,-5.23437 0.44672,-0.0348 0.89584,-0.0489 1.34571,-0.041 z"
         style="color:#000000;font-style:normal;font-variant:normal;font-weight:normal;font-stretch:normal;font-size:medium;line-height:normal;font-family:sans-serif;font-variant-ligatures:normal;font-variant-position:normal;font-variant-caps:normal;font-variant-numeric:normal;font-variant-alternates:normal;font-variant-east-asian:normal;font-feature-settings:normal;font-variation-settings:normal;text-indent:0;text-align:start;text-decoration:none;text-decoration-line:none;text-decoration-style:solid;text-decoration-color:#000000;letter-spacing:normal;word-spacing:normal;text-transform:none;writing-mode:lr-tb;direction:ltr;text-orientation:mixed;dominant-baseline:auto;baseline-shift:baseline;text-anchor:start;white-space:normal;shape-padding:0;shape-margin:0;inline-size:0;clip-rule:evenodd;display:inline;overflow:visible;visibility:visible;opacity:1;isolation:auto;mix-blend-mode:normal;color-interpolation:sRGB;color-interpolation-filters:linearRGB;solid-color:#000000;solid-opacity:1;vector-effect:none;fill:#000000;fill-opacity:1;fill-rule:evenodd;stroke:none;stroke-width:1.58972px;stroke-linecap:round;stroke-linejoin:round;stroke-miterlimit:1.5;stroke-dasharray:none;stroke-dashoffset:0;stroke-opacity:1;color-rendering:auto;image-rendering:auto;shape-rendering:auto;text-rendering:auto;enable-background:accumulate;stop-color:#000000;stop-opacity:1"
         id="path1322" />
    </g>
  </g>
</svg>
