<svg width="40" height="40" viewBox="0 0 40 40" fill="none" xmlns="http://www.w3.org/2000/svg">
<path d="M30.3101 15C29.3901 15.93 25.3101 21 24.3101 21.85L25.6301 22.75C27.0301 21.32 31.5201 15.65 32.9801 14.29C33.2572 14.0223 33.5476 13.7687 33.8501 13.53C34.0601 13.19 34.2801 12.62 34.0401 12.28C33.7194 11.9497 33.3303 11.6937 32.9001 11.53C32.8124 11.4697 32.7134 11.428 32.609 11.4074C32.5047 11.3869 32.3972 11.3878 32.2932 11.4103C32.1893 11.4328 32.091 11.4763 32.0045 11.5382C31.9179 11.6 31.845 11.6789 31.7901 11.77C31.5631 12.0774 31.3781 12.4137 31.2401 12.77C31.2347 12.7964 31.2347 12.8236 31.2401 12.85C31.7901 13.81 30.9301 14.38 30.3101 15Z" fill="#F5B83B"/>
<path d="M23.3101 5.30996C23.1124 5.65748 22.8919 5.99154 22.6501 6.30996C22.8623 6.44443 23.0162 6.65385 23.081 6.89658C23.1459 7.13932 23.117 7.39757 23.0001 7.61996C22.3101 9.31996 18.2201 15.13 17.4001 16.77C17.3891 16.8024 17.3681 16.8304 17.3401 16.85L17.8601 17.24C19.0401 15.7 23.3501 9.97996 24.5301 8.43996C24.8101 8.05996 25.0301 7.62996 25.5301 7.56996C25.7436 7.55712 25.9568 7.5984 26.1501 7.68996C26.5101 7.13996 26.9201 6.60996 26.3101 6.04996C25.8775 5.70333 25.4039 5.41114 24.9001 5.17996C24.2901 4.84996 23.7601 4.58996 23.3101 5.30996Z" fill="#F5B83B"/>
<path d="M27.7301 10.72C27.3801 11.29 27.0001 11.85 26.6101 12.39C26.875 12.5853 27.1256 12.7992 27.3601 13.03C27.9101 12.54 28.4501 12.03 29.0001 11.56C29.1701 11.41 29.4001 11.15 29.6501 11.15C29.9654 10.812 30.2593 10.4547 30.5301 10.08C30.7201 9.78003 30.7701 9.69003 30.5301 9.38003C30.3775 9.18604 30.1952 9.01731 29.9901 8.88003C29.626 8.54795 29.192 8.3019 28.7201 8.16003C28.3101 8.16003 28.0201 8.79003 27.8101 9.16003C27.8904 9.28259 27.9574 9.41332 28.0101 9.55003C28.2001 10 28.0001 10.33 27.7301 10.72Z" fill="#F5B83B"/>
<path d="M14.56 14.7101C14.93 13.9201 18.42 8.94005 18.8 8.14005C19.1469 7.27579 19.5477 6.43414 20 5.62005C20.41 4.99005 20.89 5.13005 21.41 5.44005C21.66 4.93005 22.11 4.33005 21.69 3.76005C21.366 3.48594 20.9973 3.26947 20.6 3.12005C20.3632 2.9989 20.0983 2.94336 19.8327 2.95918C19.5672 2.97501 19.3108 3.06163 19.09 3.21005C18.8159 3.53588 18.5964 3.90398 18.44 4.30005C17.5 5.85005 13.44 11.5901 12.58 13.1501L12.52 13.2101C13.2 13.7001 13.88 14.2001 14.56 14.7101Z" fill="#F5B83B"/>
<path d="M26.14 8.22997C26.008 8.1582 25.8602 8.12061 25.71 8.12061C25.5598 8.12061 25.412 8.1582 25.28 8.22997C25.05 8.35997 24.83 8.80997 24.68 9.01997C24.31 9.48997 23.95 10.02 23.59 10.44C22.85 11.44 18.99 16.54 18.26 17.51C19.06 18.1 19.87 18.69 20.69 19.27C21.56 18.27 25.51 13.14 26.26 12.08C26.6866 11.576 27.0555 11.0259 27.36 10.44C27.68 9.59997 27.36 9.17997 26.72 8.62997C26.5597 8.47467 26.3778 8.34332 26.18 8.23997L26.14 8.22997Z" fill="#FFB000"/>
<path d="M22.4601 20.52C22.9401 20.03 26.5501 15.38 27.0201 14.88C27.4901 14.38 27.5901 14.06 27.2201 13.58C26.9589 13.277 26.6636 13.0052 26.3401 12.77C25.6701 13.67 21.8201 18.72 21.0601 19.55L22.4401 20.55L22.4601 20.52Z" fill="#F5B83B"/>
<path d="M31.87 16.0901C31 17.0001 27 22.1101 26 23.0001C26.64 23.4001 27.41 23.8401 28.07 24.3501C29.22 23.3501 33.45 18.1401 34.49 17.0401C34.9801 16.6108 35.4166 16.124 35.79 15.5901C35.9473 15.2699 35.9726 14.9008 35.8603 14.5623C35.7481 14.2237 35.5074 13.9428 35.19 13.7801C34.08 13.3101 32.55 15.4101 31.87 16.0901Z" fill="#FFB000"/>
<path d="M29.2901 11.93C28.6757 12.327 28.1259 12.816 27.6601 13.38C27.7723 13.5181 27.8521 13.6797 27.8937 13.8527C27.9352 14.0258 27.9374 14.206 27.9001 14.38C27.746 14.7728 27.4907 15.1178 27.1601 15.38C26.7601 15.8 23.2301 20.38 22.8201 20.8L23.9401 21.59C24.5401 21.07 28.2501 16.36 28.8301 15.82C29.4972 15.2869 30.0982 14.6759 30.6201 14C31.0001 13.39 30.3701 11.48 29.2901 11.93Z" fill="#FFB000"/>
<path d="M20.1599 6.33006C19.8855 6.78599 19.6576 7.26843 19.4799 7.77006C18.9999 8.79006 15.4099 14.0001 14.9299 15.0001L15.9299 15.7401C16.2899 16.0301 16.6599 16.3001 17.0299 16.5801C17.5599 15.5201 21.2099 10.2901 21.7399 9.23006L22.4399 7.81006C22.7499 7.18006 22.6799 6.93006 22.1199 6.47006C21.5599 6.01006 20.7899 5.56006 20.1599 6.33006Z" fill="#FFB000"/>
<path d="M28.28 26.87C28.35 26.77 28.67 26.42 28.69 26.24C28.77 25.65 28.16 25.33 27.78 25.02C27.2782 24.6112 26.7541 24.2306 26.21 23.88C22.48 21.39 18.82 18.78 15.27 16.04C14.27 15.27 13.27 14.52 12.27 13.8C11.75 13.44 11.27 12.9 10.73 13.52C10.4078 13.9475 10.1297 14.4065 9.9 14.89C8.65 17 7.43 19 6.37 21.19C5.89 22.19 5.44 23.19 5.03 24.19C4.62 25.19 3.67 26.81 4.12 27.94C4.57 29.07 6.2 29.75 7.12 30.38L9.6 32.1C11.39 33.35 13.21 34.64 14.93 35.98C15.3393 36.364 15.8089 36.6782 16.32 36.91C17.0257 37.0842 17.7696 37.0137 18.43 36.71C19.3383 36.21 20.1346 35.5293 20.77 34.71C22.37 33.08 24.1 31.56 25.67 29.9C26.6036 28.9466 27.4754 27.9346 28.28 26.87ZM12 15.74C11.4276 16.1457 10.8892 16.5971 10.39 17.09C10.17 17.29 9.89 16.92 10.1 16.72C10.6007 16.2279 11.1427 15.7795 11.72 15.38C11.92 15.21 12.21 15.58 12 15.74ZM12.22 17.47C11.89 17.57 11.61 17.78 11.29 17.88C10.97 17.98 10.82 17.54 11.11 17.45C11.4 17.36 11.71 17.14 12.04 17.04C12.37 16.94 12.46 17.38 12.18 17.47H12.22ZM17.6 31.29C16.7137 31.288 15.8415 31.0682 15.06 30.65C14.0122 30.1709 13.0362 29.5482 12.16 28.8C11.2915 28.2207 10.5553 27.4641 10 26.58C9.51577 25.8549 9.23912 25.0111 9.2 24.14C9.23066 23.5445 9.39818 22.9641 9.68954 22.4438C9.9809 21.9235 10.3883 21.4774 10.88 21.14C12.94 19.64 15.95 21.14 17.73 22.45C19.63 23.93 22.29 27.19 20.41 29.66C20.0795 30.111 19.6592 30.4886 19.1756 30.7691C18.692 31.0497 18.1555 31.227 17.6 31.29Z" fill="#FF001F"/>
<path d="M20.1499 26.13C19.5569 24.8108 18.6211 23.6747 17.4399 22.84C16.2688 21.9342 14.8968 21.3236 13.4399 21.06C12.6255 20.9359 11.7943 21.1248 11.1134 21.5886C10.4326 22.0524 9.95254 22.7567 9.76989 23.56C9.26989 25.95 11.4399 27.61 13.0699 28.91C14.5299 30.08 16.8599 31.4 18.7399 30.51C20.6199 29.62 20.7999 27.83 20.1499 26.13Z" fill="#FFB000"/>
<path d="M29.2501 25.57C29.0388 25.2311 28.7756 24.9274 28.4701 24.67C29.9301 23.42 34.4701 17.91 35.6901 16.48C36.0601 16.06 36.6901 15.56 36.6301 14.94C36.5701 14.32 36.0701 13.99 35.7301 13.65C35.3901 13.31 35.2001 12.97 34.7301 13.09H34.6101C34.7267 12.8513 34.7685 12.5829 34.7301 12.32C34.5901 11.79 33.6501 11.32 33.2101 11.13C33.0089 10.9891 32.7729 10.9061 32.5277 10.8902C32.2826 10.8744 32.0378 10.9262 31.8201 11.04C31.4438 11.3912 31.1618 11.8314 31.0001 12.32C30.7707 11.9414 30.4801 11.6035 30.1401 11.32C30.3901 11.03 30.6301 10.73 30.8701 10.44C31.1101 10.15 31.2901 10 31.3001 9.72004C31.3001 9.20004 30.6201 8.72004 30.2501 8.43004C29.8801 8.14004 29.0701 7.55004 28.5501 7.64004C28.0301 7.73004 27.8101 8.34004 27.5501 8.76004C27.3498 8.54658 27.136 8.34616 26.9101 8.16004L26.5701 7.90004C26.8801 7.43004 27.3301 6.80004 27.2001 6.32004C27.0701 5.84004 26.0001 5.27004 25.5201 5.00004C25.0401 4.73004 24.2601 4.16004 23.6701 4.27004C23.5583 4.29173 23.452 4.33566 23.3575 4.39922C23.2631 4.46278 23.1823 4.54467 23.1201 4.64004C22.7901 5.07004 22.6101 5.57004 22.2701 6.02004L21.7701 5.70004C21.9401 5.33004 22.5601 4.47004 22.4701 4.02004C22.3801 3.57004 22.1601 3.58004 21.9201 3.42004C21.2591 2.83283 20.4222 2.48118 19.5401 2.42004C18.5401 2.54004 18.1401 3.87004 17.7101 4.58004C16.8901 5.96004 12.9601 11.52 12.1601 12.91C12.1524 12.9429 12.1524 12.9772 12.1601 13.01C11.6501 12.66 11.0801 12.35 10.5401 12.82C10.1991 13.1707 9.9095 13.568 9.6801 14L8.3901 16.21C7.7601 17.29 7.1401 18.38 6.5601 19.48C5.89344 20.8134 5.25344 22.1467 4.6401 23.48C4.1401 24.66 3.3201 26.09 3.3701 27.4C3.4201 28.71 4.5301 29.33 5.4901 30L9.2301 32.59C11.1301 33.93 13.0301 35.31 14.8701 36.73C15.2048 37.045 15.6024 37.2854 16.0368 37.4353C16.4712 37.5853 16.9324 37.6414 17.3901 37.6C18.3122 37.5044 19.1803 37.1194 19.8701 36.5C21.7701 34.76 23.6001 32.88 25.4101 31.05C26.4101 30.05 27.3101 29.05 28.1801 27.99C28.6401 27.42 29.7401 26.41 29.2501 25.57ZM18.4301 36.71C17.7697 37.0137 17.0258 37.0842 16.3201 36.91C15.8104 36.6842 15.3409 36.3769 14.9301 36C13.2101 34.66 11.3901 33.37 9.6001 32.12L7.1001 30.36C6.2001 29.73 4.5301 28.96 4.1001 27.92C3.6701 26.88 4.5801 25.22 5.0101 24.17C5.4401 23.12 5.8701 22.17 6.3501 21.17C7.4301 19 8.6501 17 9.8901 14.89C10.1198 14.4065 10.3979 13.9475 10.7201 13.52C11.3001 12.9 11.7201 13.44 12.2601 13.8C13.2601 14.52 14.2601 15.27 15.2601 16.04C18.8101 18.78 22.4701 21.39 26.2001 23.88C26.7471 24.2238 27.2746 24.5977 27.7801 25C28.1601 25.31 28.7801 25.63 28.6901 26.22C28.6901 26.4 28.3501 26.75 28.2801 26.85C27.4745 27.9043 26.6027 28.9063 25.6701 29.85C24.1001 31.51 22.3701 33.03 20.7701 34.66C20.1398 35.4974 19.3431 36.1954 18.4301 36.71ZM12.5601 13.15C13.4501 11.59 17.4801 5.85004 18.4201 4.30004C18.5764 3.90397 18.796 3.53587 19.0701 3.21004C19.2908 3.06162 19.5473 2.975 19.8128 2.95917C20.0784 2.94335 20.3433 2.99889 20.5801 3.12004C20.9774 3.26946 21.3461 3.48593 21.6701 3.76004C22.0901 4.33004 21.6701 4.93004 21.3901 5.44004C20.8701 5.13004 20.3901 4.99004 19.9801 5.62004C19.5346 6.43463 19.1405 7.27627 18.8001 8.14004C18.4201 8.94004 14.9301 13.92 14.5601 14.71C13.8801 14.2 13.2001 13.71 12.5001 13.21L12.5601 13.15ZM26.3201 6.05004C26.9301 6.61004 26.5201 7.14004 26.1601 7.69004C25.9668 7.59848 25.7536 7.5572 25.5401 7.57004C25.0501 7.63004 24.8301 8.06004 24.5401 8.44004C23.3601 9.98004 19.0501 15.7 17.8701 17.24L17.3501 16.85C17.3781 16.8305 17.3992 16.8024 17.4101 16.77C18.2301 15.13 22.3201 9.32004 23.0101 7.62004C23.1373 7.39136 23.1699 7.12191 23.1007 6.86951C23.0315 6.61712 22.8662 6.4019 22.6401 6.27004C22.8819 5.95162 23.1024 5.61756 23.3001 5.27004C23.7501 4.55004 24.3001 4.81004 24.9001 5.14004C25.4095 5.383 25.8866 5.68871 26.3201 6.05004ZM28.7601 8.16004C29.2213 8.30596 29.6447 8.5518 30.0001 8.88004C30.2052 9.01732 30.3875 9.18605 30.5401 9.38004C30.7401 9.69004 30.6901 9.78004 30.5401 10.08C30.2693 10.4547 29.9754 10.812 29.6601 11.15C29.4101 11.15 29.1801 11.41 29.0101 11.56C28.4601 12.04 27.9201 12.56 27.3701 13.03C27.1356 12.7992 26.885 12.5853 26.6201 12.39C27.0101 11.85 27.3901 11.29 27.7401 10.72C27.9801 10.33 28.2101 10.02 28.0601 9.55004C28.0074 9.41333 27.9404 9.2826 27.8601 9.16004C28.0601 8.79004 28.3501 8.16004 28.7601 8.16004ZM31.2601 12.8C31.3982 12.4438 31.5832 12.1075 31.8101 11.8C31.865 11.7089 31.938 11.63 32.0245 11.5682C32.111 11.5063 32.2093 11.4628 32.3133 11.4403C32.4172 11.4179 32.5247 11.4169 32.6291 11.4375C32.7334 11.4581 32.8325 11.4998 32.9201 11.56C33.3503 11.7237 33.7395 11.9798 34.0601 12.31C34.3001 12.65 34.0601 13.22 33.8701 13.56C33.5676 13.7987 33.2772 14.0523 33.0001 14.32C31.5401 15.68 27.0501 21.32 25.6501 22.78L24.3301 21.88C25.3301 21.03 29.3901 15.96 30.3301 15.03C30.9501 14.39 31.8101 13.82 31.3301 12.9C31.3247 12.8736 31.3247 12.8464 31.3301 12.82L31.2601 12.8ZM35.8301 15.61C35.4567 16.144 35.0202 16.6308 34.5301 17.06C33.5301 18.16 29.2601 23.38 28.1101 24.37C27.4501 23.86 26.6801 23.42 26.0401 23.02C26.9501 22.11 30.9701 17.02 31.8701 16.09C32.5501 15.41 34.0801 13.31 35.2301 13.8C35.5475 13.9628 35.7882 14.2437 35.9005 14.5823C36.0127 14.9208 35.9874 15.2899 35.8301 15.61ZM22.0901 6.47004C22.6501 6.93004 22.7201 7.18004 22.4101 7.81004L21.7101 9.23004C21.1801 10.29 17.5301 15.52 17.0001 16.58C16.6301 16.3 16.2601 16.03 15.9001 15.74L14.9001 15C15.3801 14 18.9801 8.79004 19.4501 7.77004C19.6278 7.26842 19.8556 6.78598 20.1301 6.33004C20.7901 5.56004 21.4501 5.94004 22.0901 6.47004ZM26.3401 12.77C26.6637 13.0052 26.959 13.277 27.2201 13.58C27.5901 14.06 27.3801 14.5 27.0201 14.88C26.6601 15.26 22.9401 20 22.4601 20.52L21.0801 19.52C21.8201 18.72 25.6701 13.67 26.3401 12.77ZM30.6201 14C30.1026 14.6643 29.5085 15.2651 28.8501 15.79C28.2701 16.33 24.5601 21.04 23.9601 21.56L22.8401 20.77C23.2501 20.36 26.7801 15.77 27.1801 15.35C27.5107 15.0879 27.766 14.7429 27.9201 14.35C27.9574 14.176 27.9552 13.9958 27.9137 13.8228C27.8722 13.6497 27.7923 13.4882 27.6801 13.35C28.146 12.7861 28.6957 12.297 29.3101 11.9C30.3701 11.48 31.0001 13.39 30.6201 14ZM26.7201 8.62004C27.3201 9.17004 27.7201 9.62004 27.3601 10.43C27.0556 11.016 26.6867 11.566 26.2601 12.07C25.5101 13.13 21.5601 18.3 20.6901 19.26C19.8701 18.68 19.0601 18.09 18.2601 17.5C18.9901 16.5 22.8501 11.39 23.5901 10.43C24.0001 10 24.3101 9.50004 24.6801 9.00004C24.8301 8.79004 25.0501 8.34004 25.2801 8.21004C25.4121 8.13827 25.5599 8.10068 25.7101 8.10068C25.8603 8.10068 26.0081 8.13827 26.1401 8.21004C26.3547 8.32223 26.5504 8.46732 26.7201 8.64004V8.62004Z" fill="#320001"/>
<path d="M11.6801 15.38C11.1027 15.7795 10.5607 16.2278 10.0601 16.72C9.85006 16.92 10.1301 17.29 10.3501 17.09C10.862 16.5954 11.4139 16.1438 12.0001 15.74C12.2101 15.58 11.9201 15.21 11.6801 15.38Z" fill="#320001"/>
<path d="M12 17C11.67 17.1 11.39 17.31 11.07 17.41C10.75 17.51 10.96 17.93 11.25 17.84C11.54 17.75 11.85 17.53 12.18 17.43C12.51 17.33 12.28 17 12 17Z" fill="#320001"/>
<path d="M17.7199 22.47C15.9399 21.14 12.9299 19.66 10.8699 21.16C10.3782 21.4973 9.97085 21.9434 9.67949 22.4637C9.38812 22.984 9.22061 23.5644 9.18994 24.16C9.22907 25.031 9.50572 25.8748 9.98994 26.6C10.5482 27.4851 11.2878 28.2417 12.1599 28.82C13.0361 29.5681 14.0121 30.1908 15.0599 30.67C15.8414 31.0881 16.7136 31.3079 17.5999 31.31C18.1521 31.248 18.6857 31.0731 19.1674 30.7962C19.6491 30.5192 20.0686 30.146 20.3999 29.7C22.2799 27.21 19.6199 24 17.7199 22.47ZM18.7199 30.47C16.8399 31.36 14.5099 30.04 13.0499 28.87C11.4199 27.57 9.24994 25.87 9.74994 23.52C9.93259 22.7166 10.4126 22.0123 11.0935 21.5485C11.7743 21.0847 12.6055 20.8958 13.4199 21.02C14.8769 21.2835 16.2489 21.8941 17.4199 22.8C18.6011 23.6347 19.5369 24.7708 20.1299 26.09C20.7999 27.83 20.4999 29.66 18.7099 30.51L18.7199 30.47Z" fill="#320001"/>
</svg>
