<?xml version="1.0" encoding="iso-8859-1"?>
<!-- Generator: Adobe Illustrator 21.1.0, SVG Export Plug-In . SVG Version: 6.00 Build 0)  -->
<svg version="1.1" id="Layer_1" xmlns="http://www.w3.org/2000/svg" xmlns:xlink="http://www.w3.org/1999/xlink" x="0px" y="0px"
	 viewBox="0 0 24 24" enable-background="new 0 0 24 24" xml:space="preserve">
<g>
	<path fill="#303C42" d="M23,6.5c0-0.5986328,0.1835938-0.8740234,0.4160156-1.2226563C23.6757813,4.887207,24,4.4013672,24,3.5
		C24,3.2236328,23.7763672,3,23.5,3c-0.8505859,0-1.3056641,0.3300781-1.6708984,0.5952148
		C21.5058594,3.8300781,21.2724609,4,20.7460938,4s-0.7607422-0.1699219-1.0839844-0.4047852
		C19.296875,3.3300781,18.8417969,3,17.9912109,3c-0.8496094,0-1.3046875,0.3300781-1.6689453,0.5957031
		C15.9990234,3.8305664,15.7666016,4,15.2412109,4c-0.5244141,0-0.7568359-0.1694336-1.0800781-0.4042969
		C13.796875,3.3305664,13.3427734,3,12.4921875,3c-0.8496094,0-1.3037109,0.3300781-1.6679688,0.5957031
		C10.5009766,3.8305664,10.2685547,4,9.7431641,4C9.2197266,4,8.9873047,3.8305664,8.6660156,3.5961914
		C8.3007813,3.3305664,7.8476563,3,6.9980469,3C6.1474609,3,5.6933594,3.3305664,5.3291016,3.5957031
		C5.0058594,3.8305664,4.7734375,4,4.2490234,4C3.7236328,4,3.4912109,3.8305664,3.1679688,3.5957031
		C2.8037109,3.3300781,2.3496094,3,1.5,3C1.2236328,3,1,3.2236328,1,3.5c0,0.5986328-0.1835938,0.8740234-0.4160156,1.2226563
		C0.3242188,5.112793,0,5.5986328,0,6.5s0.3242188,1.387207,0.5839844,1.7773438C0.8164063,8.6259766,1,8.9013672,1,9.5
		C1,9.7763672,1.2236328,10,1.5,10c0.5244141,0,0.7568359,0.1694336,1.0800781,0.4042969
		C2.9443359,10.6694336,3.3984375,11,4.2490234,11c0.8496094,0,1.3037109-0.3300781,1.6679688-0.5957031
		C6.2402344,10.1694336,6.4726563,10,6.9980469,10c0.5234375,0,0.7568359,0.1694336,1.0791016,0.4042969
		C8.4414063,10.6694336,8.8945313,11,9.7431641,11c0.8505859,0,1.3046875-0.3305664,1.6689453-0.5957031
		C11.7353516,10.1694336,11.9677734,10,12.4921875,10c0.5253906,0,0.7578125,0.1694336,1.0810547,0.4042969
		C13.9374876,10.6699219,14.3916016,11,15.2412109,11s1.3037109-0.3300781,1.6689453-0.5957031
		C17.2333984,10.1694336,17.4658203,10,17.9912109,10c0.5263672,0,0.7597656,0.1694336,1.0830078,0.4042969
		C19.4394531,10.6699219,19.8945313,11,20.7460938,11c0.8505859,0,1.3056641-0.3300781,1.6708984-0.5952148
		C22.7402344,10.1699219,22.9736328,10,23.5,10c0.2763672,0,0.5-0.2236328,0.5-0.5
		c0-0.9013672-0.3242188-1.387207-0.5839844-1.7773438C23.1835938,7.3740234,23,7.0986328,23,6.5z"/>
	<path fill="#E53A35" d="M1.4160156,5.2773438c0.2011719-0.3012695,0.4394531-0.6591797,0.5380859-1.2211914
		c0.2412109,0.0683594,0.4140625,0.1943359,0.6259766,0.3481445C2.9443359,4.6694336,3.3984375,5,4.2490234,5
		c0.8496094,0,1.3037109-0.3300781,1.6679688-0.5957031C6.2402344,4.1694336,6.4726563,4,6.9980469,4
		c0.5234375,0,0.7568359,0.1694336,1.0791016,0.4042969C8.4414063,4.6694336,8.8945313,5,9.7431641,5
		c0.8505859,0,1.3046875-0.3305664,1.6689453-0.5957031C11.7353516,4.1694336,11.9677734,4,12.4921875,4
		C13.0175781,4,13.25,4.1694336,13.5732422,4.4042969C13.9374876,4.6699219,14.3916016,5,15.2412109,5
		s1.3037109-0.3300781,1.6689453-0.5957031C17.2333984,4.1694336,17.4658203,4,17.9912109,4
		c0.5263672,0,0.7597656,0.1694336,1.0830078,0.4042969C19.4394531,4.6699219,19.8945313,5,20.7460938,5
		c0.8505859,0,1.3056641-0.3300781,1.6708984-0.5952148c0.1728516-0.1259766,0.3203125-0.2329102,0.5-0.3051758
		c-0.0751953,0.2368164-0.1953125,0.4169922-0.3330078,0.6230469c-0.2107544,0.3165283-0.4546509,0.7089233-0.5426636,1.3223267
		c-0.5615845,0.0934448-0.9206543,0.338562-1.2122192,0.5502319C20.5058594,6.8300781,20.2724609,7,19.7460938,7
		s-0.7607422-0.1699219-1.0839844-0.4047852C18.296875,6.3300781,17.8417969,6,16.9912109,6
		c-0.8496094,0-1.3046875,0.3300781-1.6689453,0.5957031C14.9990234,6.8305664,14.7666016,7,14.2412109,7
		c-0.5244141,0-0.7568359-0.1694336-1.0800781-0.4042969C12.796875,6.3305664,12.3427734,6,11.4921875,6
		c-0.8496094,0-1.3037109,0.3300781-1.6679688,0.5957031C9.5009766,6.8305664,9.2685547,7,8.7431641,7
		C8.2197266,7,7.9873047,6.8305664,7.6660156,6.5961914C7.3007813,6.3305664,6.8476563,6,5.9980469,6
		C5.1474609,6,4.6933594,6.3305664,4.3291016,6.5957031C4.0058594,6.8305664,3.7734375,7,3.2490234,7
		C2.7236328,7,2.4912109,6.8305664,2.1679688,6.5957031C1.8914795,6.394043,1.5609131,6.1570435,1.0471191,6.0537109
		C1.1148682,5.7393188,1.2514038,5.524292,1.4160156,5.2773438z"/>
	<path opacity="0.1" fill="#010101" d="M3.2490234,7c0.5244141,0,0.7568359-0.1694336,1.0800781-0.4042969
		C4.6933594,6.3305664,5.1474609,6,5.9980469,6c0.8496094,0,1.3027344,0.3305664,1.6679688,0.5961914
		C7.9873047,6.8305664,8.2197266,7,8.7431641,7c0.5253906,0,0.7578125-0.1694336,1.0810547-0.4042969
		C10.1884766,6.3300781,10.6425781,6,11.4921875,6c0.8505859,0,1.3046875,0.3305664,1.6689453,0.5957031
		C13.484375,6.8305664,13.7167969,7,14.2412109,7c0.5253906,0,0.7578125-0.1694336,1.0810547-0.4042969
		C15.6865234,6.3300781,16.1416016,6,16.9912109,6c0.8505859,0,1.3056641,0.3300781,1.6708984,0.5952148
		C18.9853516,6.8300781,19.2197266,7,19.7460938,7s0.7597656-0.1699219,1.0830078-0.4047852
		c0.2915649-0.2116699,0.6506348-0.4567871,1.2122192-0.5502319c0.0300903-0.2095337,0.0821533-0.3859863,0.1410522-0.5497437
		c-0.0414429,0.0288086-0.0827637,0.0447388-0.1265259,0.0761719C21.68573,5.8365479,21.2246094,6.166626,20.3626709,6.166626
		c-0.862915,0-1.3240356-0.3300781-1.6941528-0.5957031C18.3410034,5.3360596,18.1044922,5.166626,17.571106,5.166626
		c-0.5324097,0-0.7679443,0.1694336-1.095459,0.4042969c-0.3701172,0.265625-0.8302612,0.5957031-1.6911621,0.5957031
		c-0.8609619,0-1.321106-0.3300781-1.6901855-0.5957031c-0.3275757-0.2348633-0.5631104-0.4042969-1.095459-0.4042969
		c-0.5314331,0-0.7669678,0.1694336-1.0944824,0.4042969C10.5352173,5.8360596,10.0750732,6.166626,9.2131958,6.166626
		c-0.8599854,0-1.3190918-0.3305664-1.6882324-0.5957031C7.1984253,5.3360596,6.9619141,5.166626,6.4315186,5.166626
		c-0.5324097,0-0.7679443,0.1694336-1.095459,0.4042969C4.9669189,5.8365479,4.5067749,6.166626,3.645874,6.166626
		c-0.8619385,0-1.3220825-0.3305664-1.6912231-0.5957031c-0.1812744-0.1298218-0.3416748-0.2316284-0.5319824-0.303894
		C1.4204712,5.2702637,1.4181519,5.2741089,1.4160156,5.2773438c-0.0705566,0.105835-0.1322632,0.206665-0.18927,0.3110962
		C1.1943359,5.6862793,1.1563721,5.7737427,1.1170654,5.8583984C1.0939331,5.9232788,1.0631104,5.9794922,1.0471191,6.0537109
		c0.5137939,0.1033325,0.8443604,0.340332,1.1208496,0.5419922C2.4912109,6.8305664,2.7236328,7,3.2490234,7z"/>
	<path fill="#F3F3F3" d="M21.8291016,9.5952148C21.5058594,9.8300781,21.2724609,10,20.7460938,10
		s-0.7607422-0.1699219-1.0839844-0.4047852C19.296875,9.3300781,18.8417969,9,17.9912109,9
		c-0.8496094,0-1.3046875,0.3300781-1.6689453,0.5957031C15.9990234,9.8305664,15.7666016,10,15.2412109,10
		c-0.5244141,0-0.7568359-0.1694336-1.0800781-0.4042969C13.796875,9.3305664,13.3427734,9,12.4921875,9
		c-0.8496094,0-1.3037109,0.3300781-1.6679688,0.5957031C10.5009766,9.8305664,10.2685547,10,9.7431641,10
		c-0.5234375,0-0.7558594-0.1694336-1.0771484-0.4038086C8.3007813,9.3305664,7.8476563,9,6.9980469,9
		C6.1474609,9,5.6933594,9.3305664,5.3291016,9.5957031C5.0058594,9.8305664,4.7734375,10,4.2490234,10
		c-0.5253906,0-0.7578125-0.1694336-1.0810547-0.4042969C2.8769531,9.3837891,2.5292969,9.1308594,1.96875,9.0371094
		C1.8818359,8.4208984,1.6279297,8.0400391,1.4160156,7.7226563C1.2814941,7.520813,1.1685791,7.336792,1.0928955,7.1071167
		c0.1731567,0.0721436,0.3188477,0.1748657,0.4871826,0.2971802C1.9443359,7.6694336,2.3984375,8,3.2490234,8
		c0.8496094,0,1.3037109-0.3300781,1.6679688-0.5957031C5.2402344,7.1694336,5.4726563,7,5.9980469,7
		c0.5234375,0,0.7568359,0.1694336,1.0791016,0.4042969C7.4414063,7.6694336,7.8945313,8,8.7431641,8
		c0.8505859,0,1.3046875-0.3305664,1.6689453-0.5957031C10.7353516,7.1694336,10.9677734,7,11.4921875,7
		C12.0175781,7,12.25,7.1694336,12.5732422,7.4042969C12.9374876,7.6699219,13.3916016,8,14.2412109,8
		s1.3037109-0.3300781,1.6689453-0.5957031C16.2333984,7.1694336,16.4658203,7,16.9912109,7
		c0.5263672,0,0.7597656,0.1694336,1.0830078,0.4042969C18.4394531,7.6699219,18.8945313,8,19.7460938,8
		c0.8505859,0,1.3056641-0.3300781,1.6708984-0.5952148c0.211792-0.1538696,0.3917236-0.2740479,0.6340332-0.3426514
		c0.0997314,0.5561523,0.3337402,0.9159546,0.532959,1.21521c0.1650391,0.2475586,0.3056641,0.4580078,0.3730469,0.7734375
		C22.4384766,9.1533203,22.1074219,9.3930664,21.8291016,9.5952148z"/>
	<path fill="#303C42" d="M23,14.5c0-0.2763672-0.2236328-0.5-0.5-0.5c-0.5244141,0-0.7568359-0.1694336-1.0800781-0.4042969
		C21.0556641,13.3305664,20.6015625,13,19.7509766,13c-0.8496094,0-1.3037109,0.3300781-1.6679688,0.5957031
		C17.7597656,13.8305664,17.5273438,14,17.0019531,14c-0.5234375,0-0.7568359-0.1694336-1.0791016-0.4042969
		C15.5585938,13.3305664,15.1054688,13,14.2568359,13c-0.8505859,0-1.3046875,0.3305664-1.6689453,0.5957031
		C12.2646484,13.8305664,12.0322266,14,11.5078125,14c-0.5253906,0-0.7578125-0.1694336-1.0810547-0.4042969
		C10.0624876,13.3300781,9.6083984,13,8.7587891,13s-1.3037109,0.3300781-1.6689453,0.5957031
		C6.7666016,13.8305664,6.5341797,14,6.0087891,14c-0.5263672,0-0.7597656-0.1694336-1.0830078-0.4042969
		C4.5605469,13.3300781,4.1054688,13,3.2539063,13c-0.8505859,0-1.3056641,0.3300781-1.6708984,0.5952148
		C1.2597656,13.8300781,1.0263672,14,0.5,14C0.2236328,14,0,14.2236328,0,14.5c0,0.9013672,0.3242188,1.387207,0.5839844,1.7773438
		C0.8164063,16.6259766,1,16.9013672,1,17.5s-0.1835938,0.8740234-0.4160156,1.2226563C0.3242188,19.112793,0,19.5986328,0,20.5
		C0,20.7763672,0.2236328,21,0.5,21c0.8505859,0,1.3056641-0.3300781,1.6708984-0.5952148
		C2.4941406,20.1699219,2.7275391,20,3.2539063,20s0.7607422,0.1699219,1.0839844,0.4047852
		C4.703125,20.6699219,5.1582031,21,6.0087891,21c0.8496094,0,1.3046875-0.3300781,1.6689453-0.5957031
		C8.0009766,20.1694336,8.2333984,20,8.7587891,20c0.5244141,0,0.7568359,0.1694336,1.0800781,0.4042969
		C10.203125,20.6694336,10.6572266,21,11.5078125,21c0.8496094,0,1.3037109-0.3300781,1.6679688-0.5957031
		C13.4990234,20.1694336,13.7314453,20,14.2568359,20c0.5234375,0,0.7558594,0.1694336,1.0771484,0.4038086
		C15.6992188,20.6694336,16.1523438,21,17.0019531,21c0.8505859,0,1.3046875-0.3305664,1.6689453-0.5957031
		C18.9941406,20.1694336,19.2265625,20,19.7509766,20c0.5253906,0,0.7578125,0.1694336,1.0810547,0.4042969
		C21.1962891,20.6699219,21.6503906,21,22.5,21c0.2763672,0,0.5-0.2236328,0.5-0.5
		c0-0.5986328,0.1835938-0.8740234,0.4160156-1.2226563C23.6757813,18.887207,24,18.4013672,24,17.5
		s-0.3242188-1.387207-0.5839844-1.7773438C23.1835938,15.3740234,23,15.0986328,23,14.5z"/>
	<path fill="#E53A35" d="M2.1708984,14.4047852C2.4941406,14.1699219,2.7275391,14,3.2539063,14
		s0.7607422,0.1699219,1.0839844,0.4047852C4.703125,14.6699219,5.1582031,15,6.0087891,15
		c0.8496094,0,1.3046875-0.3300781,1.6689453-0.5957031C8.0009766,14.1694336,8.2333984,14,8.7587891,14
		c0.5244141,0,0.7568359,0.1694336,1.0800781,0.4042969C10.203125,14.6694336,10.6572266,15,11.5078125,15
		c0.8496094,0,1.3037109-0.3300781,1.6679688-0.5957031C13.4990234,14.1694336,13.7314453,14,14.2568359,14
		c0.5234375,0,0.7558594,0.1694336,1.0771484,0.4038086C15.6992188,14.6694336,16.1523438,15,17.0019531,15
		c0.8505859,0,1.3046875-0.3305664,1.6689453-0.5957031C18.9941406,14.1694336,19.2265625,14,19.7509766,14
		c0.5253906,0,0.7578125,0.1694336,1.0810547,0.4042969c0.2910156,0.2119141,0.6386719,0.4648438,1.1992188,0.5585938
		c0.0869141,0.6162109,0.3408203,0.9970703,0.5527344,1.3144531c0.1345215,0.2018433,0.2474365,0.3859253,0.3231201,0.6156006
		c-0.1731567-0.0721436-0.3188477-0.1749268-0.4871826-0.2972412C22.0556641,16.3305664,21.6015625,16,20.7509766,16
		c-0.8496094,0-1.3037109,0.3300781-1.6679688,0.5957031C18.7597656,16.8305664,18.5273438,17,18.0019531,17
		c-0.5234375,0-0.7568359-0.1694336-1.0791016-0.4042969C16.5585938,16.3305664,16.1054688,16,15.2568359,16
		c-0.8505859,0-1.3046875,0.3305664-1.6689453,0.5957031C13.2646484,16.8305664,13.0322266,17,12.5078125,17
		c-0.5253906,0-0.7578125-0.1694336-1.0810547-0.4042969C11.0624876,16.3300781,10.6083984,16,9.7587891,16
		s-1.3037109,0.3300781-1.6689453,0.5957031C7.7666016,16.8305664,7.5341797,17,7.0087891,17
		c-0.5263672,0-0.7597656-0.1694336-1.0830078-0.4042969C5.5605469,16.3300781,5.1054688,16,4.2539063,16
		c-0.8505859,0-1.3056641,0.3300781-1.6708984,0.5952148c-0.211731,0.1538696-0.3917236,0.2740479-0.6339722,0.3426514
		c-0.0997314-0.5561523-0.3338013-0.9160156-0.53302-1.21521c-0.1650391-0.2475586-0.3056641-0.4580078-0.3730469-0.7734375
		C1.5615234,14.8466797,1.8925781,14.6069336,2.1708984,14.4047852z"/>
	<path opacity="0.1" fill="#010101" d="M20.5654297,14.916626c-0.5461426,0-0.788147,0.1694336-1.1247559,0.4042969
		c-0.3793335,0.2651367-0.8522339,0.5957031-1.7380371,0.5957031c-0.8848267,0-1.3566895-0.3305664-1.7370605-0.5961914
		c-0.3345337-0.234375-0.5765991-0.4038086-1.1217041-0.4038086c-0.5471191,0-0.7891846,0.1694336-1.1257935,0.4042969
		c-0.3793335,0.265625-0.8522339,0.5957031-1.7370605,0.5957031c-0.8857422,0-1.3586426-0.3305664-1.7379761-0.5957031
		c-0.3366699-0.2348633-0.5786743-0.4042969-1.1248169-0.4042969c-0.5471191,0-0.7891846,0.1694336-1.1257935,0.4042969
		c-0.3793335,0.265625-0.8532715,0.5957031-1.7380371,0.5957031c-0.8858032,0-1.3597412-0.3300781-1.7400513-0.5952148
		C4.1776733,15.0865479,3.9335938,14.916626,3.385498,14.916626c-0.5481567,0-0.7912598,0.1699219-1.1278687,0.4047852
		c-0.2189941,0.15271-0.4700928,0.3265381-0.8123169,0.4467773c0.1925049,0.2907104,0.4087524,0.6401367,0.5037231,1.1696777
		c0.2422485-0.0686035,0.4222412-0.1887817,0.6339722-0.3426514C2.9482422,16.3300781,3.4033203,16,4.2539063,16
		c0.8515625,0,1.3066406,0.3300781,1.671875,0.5957031C6.2490234,16.8305664,6.4824219,17,7.0087891,17
		c0.5253906,0,0.7578125-0.1694336,1.0810547-0.4042969C8.4550781,16.3300781,8.9091797,16,9.7587891,16
		s1.3036985,0.3300781,1.6679688,0.5957031C11.75,16.8305664,11.9824219,17,12.5078125,17
		c0.5244141,0,0.7568359-0.1694336,1.0800781-0.4042969C13.9521484,16.3305664,14.40625,16,15.2568359,16
		c0.8486328,0,1.3017578,0.3305664,1.6660156,0.5957031C17.2451172,16.8305664,17.4785156,17,18.0019531,17
		c0.5253906,0,0.7578125-0.1694336,1.0810547-0.4042969C19.4472656,16.3300781,19.9013672,16,20.7509766,16
		c0.8505859,0,1.3046875,0.3305664,1.6689453,0.5957031c0.168335,0.1223145,0.3140259,0.2250977,0.4871826,0.2972412
		c-0.0756836-0.2296753-0.1885986-0.4137573-0.3231201-0.6156006c-0.118042-0.1768188-0.2463989-0.3788452-0.3543701-0.6248169
		c-0.2092896-0.1035156-0.3824463-0.2225952-0.5383911-0.331604C21.3546143,15.0860596,21.1125488,14.916626,20.5654297,14.916626z"
		/>
	<path fill="#FAFBFB" d="M3.4345703,9.083374c0.5461426,0,0.788147-0.1694336,1.1247559-0.4042969
		C4.9386597,8.4139404,5.4115601,8.083374,6.2973633,8.083374c0.8848267,0,1.3566895,0.3305664,1.7370605,0.5961914
		C8.3689575,8.9139404,8.6110229,9.083374,9.1561279,9.083374c0.5471191,0,0.7891846-0.1694336,1.1257935-0.4042969
		c0.3793335-0.265625,0.8522339-0.5957031,1.7370605-0.5957031c0.8857422,0,1.3586426,0.3305664,1.7379761,0.5957031
		c0.3366699,0.2348633,0.5786743,0.4042969,1.1248169,0.4042969c0.5471191,0,0.7891846-0.1694336,1.1257935-0.4042969
		c0.3793335-0.265625,0.8532715-0.5957031,1.7380371-0.5957031c0.8858032,0,1.3597412,0.3300781,1.7400513,0.5952148
		c0.3366699,0.2348633,0.5807495,0.4047852,1.1288452,0.4047852c0.5481567,0,0.7912598-0.1699219,1.1278687-0.4047852
		c0.2189941-0.15271,0.4700928-0.3265381,0.8123169-0.4467773c-0.1925049-0.2907104-0.4087524-0.6401367-0.5037231-1.1696777
		c-0.2422485,0.0686035-0.4222412,0.1887817-0.6339722,0.3426514C21.0517578,7.6699219,20.5966797,8,19.7460938,8
		c-0.8515625,0-1.3066406-0.3300781-1.671875-0.5957031C17.7509766,7.1694336,17.5175781,7,16.9912109,7
		c-0.5253906,0-0.7578125,0.1694336-1.0810547,0.4042969C15.5449219,7.6699219,15.0908203,8,14.2412109,8
		s-1.3037233-0.3300781-1.6679688-0.5957031C12.25,7.1694336,12.0175781,7,11.4921875,7
		c-0.5244141,0-0.7568359,0.1694336-1.0800781,0.4042969C10.0478516,7.6694336,9.59375,8,8.7431641,8
		C7.8945313,8,7.4414063,7.6694336,7.0771484,7.4042969C6.7548828,7.1694336,6.5214844,7,5.9980469,7
		C5.4726563,7,5.2402344,7.1694336,4.9169922,7.4042969C4.5527344,7.6699219,4.0986328,8,3.2490234,8
		C2.3984375,8,1.9443359,7.6694336,1.5800781,7.4042969c-0.168335-0.1223145-0.3140259-0.2250977-0.4871826-0.2972412
		C1.1685791,7.336731,1.2814941,7.520813,1.4160156,7.7226563c0.118042,0.1768188,0.2463989,0.3788452,0.3543701,0.6248169
		c0.2092896,0.1035156,0.3824463,0.2225952,0.5383911,0.331604C2.6453857,8.9139404,2.8874512,9.083374,3.4345703,9.083374z"/>
	<path fill="#F3F3F3" d="M22.5839844,18.7225761c-0.2011719,0.3012695-0.4394531,0.6591797-0.5380859,1.2211914
		c-0.2412109-0.0683594-0.4140625-0.1943359-0.6259766-0.3481445c-0.3642578-0.2651367-0.8183594-0.5957031-1.6689453-0.5957031
		c-0.8496094,0-1.3037109,0.3300781-1.6679688,0.5957031c-0.3232422,0.2348633-0.5556641,0.4042969-1.0810547,0.4042969
		c-0.5234375,0-0.7568359-0.1694336-1.0791016-0.4042969c-0.3642578-0.2651367-0.8173828-0.5957031-1.6660156-0.5957031
		c-0.8505859,0-1.3046875,0.3305664-1.6689453,0.5957031c-0.3232422,0.2348633-0.5556641,0.4042969-1.0800781,0.4042969
		c-0.5253906,0-0.7578125-0.1694336-1.0810547-0.4042969c-0.3642454-0.265625-0.8183594-0.5957031-1.6679688-0.5957031
		S7.4550781,19.329998,7.0898438,19.595623c-0.3232422,0.2348633-0.5556641,0.4042969-1.0810547,0.4042969
		c-0.5263672,0-0.7597656-0.1694336-1.0830078-0.4042969c-0.3652344-0.265625-0.8203125-0.5957031-1.671875-0.5957031
		c-0.8505859,0-1.3056641,0.3300781-1.6708984,0.5952148c-0.1728516,0.1259766-0.3203125,0.2329102-0.5,0.3051758
		c0.0751953-0.2368164,0.1953125-0.4169922,0.3330078-0.6230469c0.2107544-0.3165283,0.4546509-0.7089233,0.5426636-1.3223267
		c0.5615845-0.0934448,0.9206543-0.338562,1.2122192-0.5502319c0.3232422-0.2348633,0.5566406-0.4047852,1.0830078-0.4047852
		s0.7607422,0.1699219,1.0839844,0.4047852c0.3652344,0.2651367,0.8203125,0.5952148,1.6708984,0.5952148
		c0.8496094,0,1.3046875-0.3300781,1.6689453-0.5957031c0.3232422-0.2348633,0.5556641-0.4042969,1.0810547-0.4042969
		c0.5244141,0,0.7568359,0.1694336,1.0800781,0.4042969c0.3642578,0.2651367,0.8183594,0.5957031,1.6689453,0.5957031
		c0.8496094,0,1.3037109-0.3300781,1.6679688-0.5957031c0.3232422-0.2348633,0.5556641-0.4042969,1.0810547-0.4042969
		c0.5234375,0,0.7558594,0.1694336,1.0771484,0.4038086c0.3652344,0.265625,0.8183594,0.5961914,1.6679688,0.5961914
		c0.8505859,0,1.3046875-0.3305664,1.6689453-0.5957031c0.3232422-0.2348633,0.5556641-0.4042969,1.0800781-0.4042969
		c0.5253906,0,0.7578125,0.1694336,1.0810547,0.4042969c0.2764893,0.2016602,0.6070557,0.4386597,1.1208496,0.5419922
		C22.8851318,18.260601,22.7485962,18.4756279,22.5839844,18.7225761z"/>
	<path fill="#FAFBFB" d="M20.7509766,16.9999199c-0.5244141,0-0.7568359,0.1694336-1.0800781,0.4042969
		c-0.3642578,0.2651367-0.8183594,0.5957031-1.6689453,0.5957031c-0.8496094,0-1.3027344-0.3305664-1.6679688-0.5961914
		c-0.3212891-0.234375-0.5537109-0.4038086-1.0771484-0.4038086c-0.5253906,0-0.7578125,0.1694336-1.0810547,0.4042969
		c-0.3642578,0.265625-0.8183594,0.5957031-1.6679688,0.5957031c-0.8505859,0-1.3046875-0.3305664-1.6689453-0.5957031
		c-0.3232422-0.2348633-0.5556641-0.4042969-1.0800781-0.4042969c-0.5253906,0-0.7578125,0.1694336-1.0810547,0.4042969
		c-0.3642578,0.265625-0.8193359,0.5957031-1.6689453,0.5957031c-0.8505859,0-1.3056641-0.3300781-1.6708984-0.5952148
		c-0.3232422-0.2348633-0.5576172-0.4047852-1.0839844-0.4047852s-0.7597656,0.1699219-1.0830078,0.4047852
		c-0.2915649,0.2116699-0.6506348,0.4567871-1.2122192,0.5502319c-0.0300903,0.2095337-0.0821533,0.3859863-0.1410522,0.5497437
		c0.0414429-0.0288086,0.0827637-0.0447388,0.1265259-0.0761719c0.3701172-0.2651367,0.8312378-0.5952148,1.6931763-0.5952148
		c0.862915,0,1.3240356,0.3300781,1.6941528,0.5957031c0.3275146,0.2348633,0.5640259,0.4042969,1.0974121,0.4042969
		c0.5324097,0,0.7679443-0.1694336,1.095459-0.4042969c0.3701172-0.265625,0.8302612-0.5957031,1.6911621-0.5957031
		c0.8609619,0,1.321106,0.3300781,1.6901855,0.5957031c0.3275757,0.2348633,0.5631104,0.4042969,1.095459,0.4042969
		c0.5314331,0,0.7669678-0.1694336,1.0944824-0.4042969c0.3691406-0.2651367,0.8292847-0.5957031,1.6911621-0.5957031
		c0.8599854,0,1.3190918,0.3305664,1.6882324,0.5957031c0.3265381,0.2348633,0.5630493,0.4042969,1.0934448,0.4042969
		c0.5324097,0,0.7679443-0.1694336,1.095459-0.4042969c0.3691406-0.265625,0.8292847-0.5957031,1.6901855-0.5957031
		c0.8619385,0,1.3220825,0.3305664,1.6912231,0.5957031c0.1812744,0.1298218,0.3416748,0.2316284,0.5319824,0.303894
		c0.0021973-0.0032349,0.0045166-0.0070801,0.0066528-0.0103149c0.0705566-0.105835,0.1322632-0.206665,0.18927-0.3110962
		c0.0324097-0.0978394,0.0703735-0.1853027,0.1096802-0.2699585c0.0231323-0.0648804,0.0539551-0.1210938,0.0699463-0.1953125
		c-0.5137939-0.1033325-0.8443604-0.340332-1.1208496-0.5419922C21.5087891,17.1693535,21.2763672,16.9999199,20.7509766,16.9999199
		z"/>
	<linearGradient id="SVGID_1_" gradientUnits="userSpaceOnUse" x1="-0.3336532" y1="6.248723" x2="24.3336525" y2="17.751276">
		<stop  offset="0" style="stop-color:#FFFFFF;stop-opacity:0.2"/>
		<stop  offset="1" style="stop-color:#FFFFFF;stop-opacity:0"/>
	</linearGradient>
	<path fill="url(#SVGID_1_)" d="M23,6.5c0-0.5986328,0.1835938-0.8740234,0.4160156-1.2226563
		C23.6757813,4.887207,24,4.4013672,24,3.5C24,3.2236328,23.7763672,3,23.5,3c-0.8505859,0-1.3056641,0.3300781-1.6708984,0.5952148
		C21.5058594,3.8300781,21.2724609,4,20.7460938,4s-0.7607422-0.1699219-1.0839844-0.4047852
		C19.296875,3.3300781,18.8417969,3,17.9912109,3c-0.8496094,0-1.3046875,0.3300781-1.6689453,0.5957031
		C15.9990234,3.8305664,15.7666016,4,15.2412109,4c-0.5244141,0-0.7568359-0.1694336-1.0800781-0.4042969
		C13.796875,3.3305664,13.3427734,3,12.4921875,3c-0.8496094,0-1.3037109,0.3300781-1.6679688,0.5957031
		C10.5009766,3.8305664,10.2685547,4,9.7431641,4C9.2197266,4,8.9873047,3.8305664,8.6660156,3.5961914
		C8.3007813,3.3305664,7.8476563,3,6.9980469,3C6.1474609,3,5.6933594,3.3305664,5.3291016,3.5957031
		C5.0058594,3.8305664,4.7734375,4,4.2490234,4C3.7236328,4,3.4912109,3.8305664,3.1679688,3.5957031
		C2.8037109,3.3300781,2.3496094,3,1.5,3C1.2236328,3,1,3.2236328,1,3.5c0,0.5986328-0.1835938,0.8740234-0.4160156,1.2226563
		C0.3242188,5.112793,0,5.5986328,0,6.5s0.3242188,1.387207,0.5839844,1.7773438C0.8164063,8.6259766,1,8.9013672,1,9.5
		C1,9.7763672,1.2236328,10,1.5,10c0.5244141,0,0.7568359,0.1694336,1.0800781,0.4042969
		C2.9443359,10.6694336,3.3984375,11,4.2490234,11c0.8496094,0,1.3037109-0.3300781,1.6679688-0.5957031
		C6.2402344,10.1694336,6.4726563,10,6.9980469,10c0.5234375,0,0.7568359,0.1694336,1.0791016,0.4042969
		C8.4414063,10.6694336,8.8945313,11,9.7431641,11c0.8505859,0,1.3046875-0.3305664,1.6689453-0.5957031
		C11.7353516,10.1694336,11.9677734,10,12.4921875,10c0.5253906,0,0.7578125,0.1694336,1.0810547,0.4042969
		C13.9374876,10.6699219,14.3916016,11,15.2412109,11s1.3037109-0.3300781,1.6689453-0.5957031
		C17.2333984,10.1694336,17.4658203,10,17.9912109,10c0.5263672,0,0.7597656,0.1694336,1.0830078,0.4042969
		C19.4394531,10.6699219,19.8945313,11,20.7460938,11c0.8505859,0,1.3056641-0.3300781,1.6708984-0.5952148
		C22.7402344,10.1699219,22.9736328,10,23.5,10c0.2763672,0,0.5-0.2236328,0.5-0.5
		c0-0.9013672-0.3242188-1.387207-0.5839844-1.7773438C23.1835938,7.3740234,23,7.0986328,23,6.5z M23,14.5
		c0-0.2763672-0.2236328-0.5-0.5-0.5c-0.5244141,0-0.7568359-0.1694336-1.0800781-0.4042969
		C21.0556641,13.3305664,20.6015625,13,19.7509766,13c-0.8496094,0-1.3037109,0.3300781-1.6679688,0.5957031
		C17.7597656,13.8305664,17.5273438,14,17.0019531,14c-0.5234375,0-0.7568359-0.1694336-1.0791016-0.4042969
		C15.5585938,13.3305664,15.1054688,13,14.2568359,13c-0.8505859,0-1.3046875,0.3305664-1.6689453,0.5957031
		C12.2646484,13.8305664,12.0322266,14,11.5078125,14c-0.5253906,0-0.7578125-0.1694336-1.0810547-0.4042969
		C10.0624876,13.3300781,9.6083984,13,8.7587891,13s-1.3037109,0.3300781-1.6689453,0.5957031
		C6.7666016,13.8305664,6.5341797,14,6.0087891,14c-0.5263672,0-0.7597656-0.1694336-1.0830078-0.4042969
		C4.5605469,13.3300781,4.1054688,13,3.2539063,13c-0.8505859,0-1.3056641,0.3300781-1.6708984,0.5952148
		C1.2597656,13.8300781,1.0263672,14,0.5,14C0.2236328,14,0,14.2236328,0,14.5c0,0.9013672,0.3242188,1.387207,0.5839844,1.7773438
		C0.8164063,16.6259766,1,16.9013672,1,17.5s-0.1835938,0.8740234-0.4160156,1.2226563C0.3242188,19.112793,0,19.5986328,0,20.5
		C0,20.7763672,0.2236328,21,0.5,21c0.8505859,0,1.3056641-0.3300781,1.6708984-0.5952148
		C2.4941406,20.1699219,2.7275391,20,3.2539063,20s0.7607422,0.1699219,1.0839844,0.4047852
		C4.703125,20.6699219,5.1582031,21,6.0087891,21c0.8496094,0,1.3046875-0.3300781,1.6689453-0.5957031
		C8.0009766,20.1694336,8.2333984,20,8.7587891,20c0.5244141,0,0.7568359,0.1694336,1.0800781,0.4042969
		C10.203125,20.6694336,10.6572266,21,11.5078125,21c0.8496094,0,1.3037109-0.3300781,1.6679688-0.5957031
		C13.4990234,20.1694336,13.7314453,20,14.2568359,20c0.5234375,0,0.7558594,0.1694336,1.0771484,0.4038086
		C15.6992188,20.6694336,16.1523438,21,17.0019531,21c0.8505859,0,1.3046875-0.3305664,1.6689453-0.5957031
		C18.9941406,20.1694336,19.2265625,20,19.7509766,20c0.5253906,0,0.7578125,0.1694336,1.0810547,0.4042969
		C21.1962891,20.6699219,21.6503906,21,22.5,21c0.2763672,0,0.5-0.2236328,0.5-0.5
		c0-0.5986328,0.1835938-0.8740234,0.4160156-1.2226563C23.6757813,18.887207,24,18.4013672,24,17.5
		s-0.3242188-1.387207-0.5839844-1.7773438C23.1835938,15.3740234,23,15.0986328,23,14.5z"/>
</g>
<g>
</g>
<g>
</g>
<g>
</g>
<g>
</g>
<g>
</g>
<g>
</g>
<g>
</g>
<g>
</g>
<g>
</g>
<g>
</g>
<g>
</g>
<g>
</g>
<g>
</g>
<g>
</g>
<g>
</g>
</svg>
