<?xml version="1.0" ?><!DOCTYPE svg  PUBLIC '-//W3C//DTD SVG 1.1//EN'  'http://www.w3.org/Graphics/SVG/1.1/DTD/svg11.dtd'><svg enable-background="new 0 0 128 128" id="Слой_1" version="1.1" viewBox="0 0 128 128" xml:space="preserve" xmlns="http://www.w3.org/2000/svg" xmlns:xlink="http://www.w3.org/1999/xlink"><path d="M75.8,70.9L75.8,70.9c-21.4-4.7-43.7-4.7-65.1,0l0,0C8,71.5,5.4,69.7,5,67l-1.1-7.9  C0.5,35.3,19.1,14,43.2,14h0C67.4,14,86,35.3,82.6,59.1L81.5,67C81.1,69.7,78.5,71.5,75.8,70.9z" fill="#F8F7FB"/><g><path d="M51.7,67.5c8.4,0.4,16.8,1.5,25,3.4h0c1.9,0.4,3.8-0.4,4.8-1.9C71.7,67.5,61.7,67,51.7,67.5z" fill="#F8F7FB"/><path d="M19.9,59.1c-3.1-21.3,11.5-40.5,31.9-44.4c-2.4-0.5-4.9-0.7-7.5-0.7h0C20.1,14,1.5,35.3,4.9,59.1L6,67   c0.4,2.7,3,4.5,5.7,3.9h0c3.4-0.7,6.8-1.4,10.2-1.9c-0.4-0.6-0.7-1.3-0.8-2L19.9,59.1z" opacity="0.1"/><path d="M21.9,69c1.1,1.5,2.9,2.3,4.8,1.9c8.3-1.8,16.6-2.9,25-3.4C41.8,67,31.8,67.5,21.9,69z" fill="#F8F7FB"/></g><path d="M25.4,73.5c-6-0.6-11.8-1.5-17.3-2.7" fill="#F8F7FB"/><path d="M77.5,70.9c-5.2,1.1-10.7,2-16.3,2.6" fill="#F8F7FB"/><path d="M60.1,68.8l4.6,25.7c1.8,10.2-6,19.5-16.4,19.5H38.2c-10.4,0-18.2-9.3-16.4-19.5l4.6-25.3" fill="#E5E3E3"/><g opacity="0.1"><path d="M26.3,69.2l-4.6,25.3c-1.8,10.2,6,19.5,16.4,19.5h10c-10.4,0-18.2-9.3-16.4-19.5l4.6-25.3H26.3z"/></g><path d="M31.6,96.3c-0.5,2.6,0.7,4.4,1.4,5.3c0.7,0.9,2.4,2.4,5.1,2.4" fill="#F8F7FB"/><path d="M111.4,98.5L111.4,98.5c-9.7-8.9-21.3-15.6-33.8-19.5l0,0c-1.6-0.5-2.4-2.2-1.8-3.7l1.8-4.4  c5.4-13.4,21.4-18.9,34-11.6l0,0c12.6,7.3,15.8,23.9,6.9,35.2l-3,3.8C114.5,99.4,112.6,99.6,111.4,98.5z" fill="#F8F7FB"/><path d="M111.4,98.5L111.4,98.5c-9.7-8.9-21.3-15.6-33.8-19.5l0,0c-1.6-0.5-2.4-2.2-1.8-3.7l1.8-4.4  c5.4-13.4,21.4-18.9,34-11.6l0,0c12.6,7.3,15.8,23.9,6.9,35.2l-3,3.8C114.5,99.4,112.6,99.6,111.4,98.5z" fill="#F8F7FB"/><g opacity="0.1"><path d="M84.8,77.2l2.8-6.4c3.1-7.7,9.6-12.7,17-14.3c-11-2.4-22.6,3.3-27,14.3l-1.8,4.4c-0.6,1.5,0.2,3.2,1.8,3.7   c12.6,4,24.1,10.6,33.8,19.5c-9.7-8.9-12.3-13.6-24.8-17.5C85,80.5,84.2,78.7,84.8,77.2z"/></g><path d="M84.4,84.7c-2.9-2.1-5.7-4.3-8.2-6.6" fill="#F8F7FB"/><path d="M112.2,99c-3-1-6.1-2.2-9.2-3.6" fill="#F8F7FB"/><path d="M103.8,92.7l-5.3,14.8c-2.1,5.8-9,8.3-14.4,5.2l-5.3-3c-5.4-3.1-6.7-10.3-2.7-15l10-11.8" fill="#E5E3E3"/><g opacity="0.1"><path d="M84.2,96.6l8.5-10.1l-6.6-3.7l-10,11.8c-4,4.7-2.7,11.9,2.7,15l5.3,3c2.1,1.2,4.4,1.6,6.6,1.2l-3.9-2.3   C81.5,108.5,80.2,101.3,84.2,96.6z"/></g><line fill="#F8F7FB" x1="83.8" x2="89.2" y1="101" y2="104"/><path d="M12.2,60.3c0.2,1.2,1.2,2.1,2.5,2.1c0.1,0,0.2,0,0.4,0c1.4-0.2,2.3-1.5,2.1-2.8l-0.3-2.3  c-1.1-7.7,1.2-15.5,6.3-21.4c5.2-6,12.7-9.4,20.7-9.4c1.4,0,2.5-1.1,2.5-2.5s-1.1-2.5-2.5-2.5c-9.4,0-18.3,4.1-24.5,11.1  c-6.1,7-8.8,16.2-7.5,25.4L12.2,60.3z" fill="#62355C"/><path d="M38.7,101.5c-1.6,0-2.7-0.8-3.2-1.5c-0.5-0.7-1.1-1.8-0.9-3.3c0.2-1.4-0.7-2.7-2-2.9c-1.4-0.2-2.7,0.7-2.9,2  c-0.6,3.6,0.9,6.2,2,7.4c1,1.2,3.3,3.3,7.1,3.3c1.4,0,2.5-1.1,2.5-2.5S40.1,101.5,38.7,101.5z" fill="#62355C"/><path d="M126,74.9c-1.4-7.5-6.1-14-12.7-17.9c-4-2.3-8.6-3.6-13.2-3.6c-5.2,0-10.1,1.5-14.3,4.2  c-0.1,0.6-0.1,1.2-0.2,1.8l-0.8,5.4c3.9-4,9.4-6.4,15.3-6.4c3.7,0,7.4,1,10.7,2.9c5.4,3.1,9.2,8.4,10.3,14.5c1.2,6-0.3,12.2-4.1,17  l-3,3.8c-0.2,0.2-0.4,0.1-0.5,0c-9.9-9.1-21.9-16-34.8-20.1c0,0,0,0,0,0c-0.1,0-0.1-0.1-0.2-0.1c0,0,0,0,0,0c0-0.1,0-0.2,0-0.2  l1.3-3.1c0,0,0,0,0,0c2.4-0.9,4.2-3.1,4.6-5.7l1.1-7.9c1.7-12-1.9-24.2-9.8-33.4c-8-9.3-19.7-14.6-32-14.6c-12.3,0-24,5.3-32,14.6  c-8,9.2-11.5,21.3-9.8,33.4l1.1,7.9c0.5,3.3,3.2,5.8,6.4,6.1c4.4,0.9,8.9,1.7,13.7,2.2l-3.3,18.4c-1,5.5,0.5,11.2,4.1,15.6  c3.7,4.4,9,6.9,14.7,6.9h10.2c5.7,0,11.1-2.5,14.7-6.9c3.6-4.3,5.1-10,4.1-15.6l-3.3-18.3c3.3-0.4,6.5-0.9,9.6-1.4l0,0  c-0.5,1.4-0.5,2.9,0.1,4.2c0.2,0.4,0.4,0.7,0.7,1c0.1,0.1,0.2,0.3,0.4,0.4c0,0,0.1,0.1,0.1,0.1c0.1,0.1,0.2,0.2,0.3,0.3  c1.8,1.6,3.7,3.2,5.8,4.8l-6.6,7.8c-2.4,2.8-3.4,6.5-2.7,10.1c0.6,3.7,2.9,6.8,6.1,8.7l5.3,3c1.9,1.1,4.1,1.7,6.3,1.7  c1.4,0,2.9-0.3,4.3-0.8c3.5-1.3,6.2-4,7.4-7.4l3.4-9.5c2.4,1,4.7,1.9,7,2.6c0,0,0,0,0,0c0,0,0.1,0,0.1,0c0,0,0.1,0,0.1,0  c0.5,0.2,1.1,0.3,1.7,0.3c1.6,0,3.2-0.7,4.2-2l3-3.8C125.6,90,127.5,82.3,126,74.9z M78.6,73.4c0,0-0.1,0-0.1,0  C78.5,73.4,78.6,73.4,78.6,73.4z M79.2,73.2C79.2,73.2,79.2,73.2,79.2,73.2C79.2,73.2,79.2,73.2,79.2,73.2z M15.5,29.4  c7.1-8.2,17.4-12.9,28.2-12.9c10.9,0,21.2,4.7,28.2,12.9c7,8.1,10.2,18.8,8.6,29.4l-1.1,7.9c-0.2,1.2-1.4,2.1-2.7,1.8  c-10.8-2.4-22-3.6-33.1-3.6c-11.1,0-22.2,1.2-33.1,3.6c-0.2,0-0.4,0-0.6,0c-0.2,0-0.4-0.1-0.6-0.1c-0.7-0.3-1.3-0.9-1.4-1.7  l-1.1-7.9C5.4,48.2,8.5,37.5,15.5,29.4z M59.7,106.4c-2.7,3.2-6.7,5.1-10.9,5.1H38.7c-4.2,0-8.2-1.9-10.9-5.1  c-2.7-3.2-3.8-7.4-3-11.5l4.4-24.4c9.7-1,19.5-1,29.2,0L62.8,95C63.5,99,62.4,103.2,59.7,106.4z M96.7,106.6  c-0.7,2.1-2.4,3.7-4.4,4.4c-2.1,0.8-4.4,0.6-6.3-0.6l-5.3-3c-1.9-1.1-3.3-3-3.7-5.2c-0.4-2.2,0.2-4.4,1.6-6l9.1-10.8  c4.8,2.2,9.4,4.9,13.7,7.9L96.7,106.6z" fill="#62355C"/><path d="M87.2,74.2c0.4,0.3,0.9,0.4,1.4,0.4c0.8,0,1.6-0.4,2.1-1.1c2.1-3.2,5.6-5,9.4-5c1.4,0,2.5-1.1,2.5-2.5  s-1.1-2.5-2.5-2.5c-5.5,0-10.6,2.7-13.6,7.3C85.7,71.9,86.1,73.5,87.2,74.2z" fill="#62355C"/><path d="M90.9,101.8l-5.3-3c-1.2-0.7-2.7-0.2-3.4,1c-0.7,1.2-0.2,2.7,1,3.4l5.3,3c0.4,0.2,0.8,0.3,1.2,0.3  c0.9,0,1.7-0.5,2.2-1.3C92.5,104,92.1,102.5,90.9,101.8z" fill="#62355C"/></svg>